<svg width="50" height="40" viewBox="0 0 50 40" fill="none" xmlns="http://www.w3.org/2000/svg">
<rect opacity="0.1" width="50" height="40" rx="4" fill="#C9874A"/>
<g clip-path="url(#clip0)">
<path d="M32.5 12.9167H17.5C16.837 12.9167 16.2011 13.1801 15.7322 13.649C15.2634 14.1178 15 14.7537 15 15.4167V24.5834C15 25.2465 15.2634 25.8823 15.7322 26.3512C16.2011 26.82 16.837 27.0834 17.5 27.0834H32.5C33.163 27.0834 33.7989 26.82 34.2678 26.3512C34.7366 25.8823 35 25.2465 35 24.5834V15.4167C35 14.7537 34.7366 14.1178 34.2678 13.649C33.7989 13.1801 33.163 12.9167 32.5 12.9167ZM17.5 14.5834H32.5C32.721 14.5834 32.933 14.6712 33.0893 14.8275C33.2455 14.9838 33.3333 15.1957 33.3333 15.4167V16.2501C33.3333 16.3606 33.2894 16.4666 33.2113 16.5447C33.1332 16.6228 33.0272 16.6667 32.9167 16.6667H17.0833C16.9728 16.6667 16.8668 16.6228 16.7887 16.5447C16.7106 16.4666 16.6667 16.3606 16.6667 16.2501V15.4167C16.6667 15.1957 16.7545 14.9838 16.9107 14.8275C17.067 14.6712 17.279 14.5834 17.5 14.5834ZM32.5 25.4167H17.5C17.279 25.4167 17.067 25.329 16.9107 25.1727C16.7545 25.0164 16.6667 24.8044 16.6667 24.5834V19.5834C16.6667 19.4729 16.7106 19.3669 16.7887 19.2888C16.8668 19.2106 16.9728 19.1667 17.0833 19.1667H32.9167C33.0272 19.1667 33.1332 19.2106 33.2113 19.2888C33.2894 19.3669 33.3333 19.4729 33.3333 19.5834V24.5834C33.3333 24.8044 33.2455 25.0164 33.0893 25.1727C32.933 25.329 32.721 25.4167 32.5 25.4167Z" fill="#C9874A"/>
<path d="M21.6654 22.0833H19.1654C18.9444 22.0833 18.7324 22.171 18.5761 22.3273C18.4198 22.4836 18.332 22.6956 18.332 22.9166C18.332 23.1376 18.4198 23.3496 18.5761 23.5058C18.7324 23.6621 18.9444 23.7499 19.1654 23.7499H21.6654C21.8864 23.7499 22.0983 23.6621 22.2546 23.5058C22.4109 23.3496 22.4987 23.1376 22.4987 22.9166C22.4987 22.6956 22.4109 22.4836 22.2546 22.3273C22.0983 22.171 21.8864 22.0833 21.6654 22.0833Z" fill="#C9874A"/>
</g>
<defs>
<clipPath id="clip0">
<rect width="20" height="20" fill="white" transform="translate(15 10)"/>
</clipPath>
</defs>
</svg>
