<svg width="40" height="40" viewBox="0 0 40 40" fill="none" xmlns="http://www.w3.org/2000/svg">
<path d="M20 40C31.0457 40 40 31.0457 40 20C40 8.9543 31.0457 0 20 0C8.9543 0 0 8.9543 0 20C0 31.0457 8.9543 40 20 40Z" fill="#BC5E2C" fill-opacity="0.05"/>
<path d="M24.7229 14.6101C24.5421 14.925 24.3078 15.2059 24.0304 15.4402C23.8874 15.5601 23.7357 15.6694 23.5767 15.7671C23.4949 15.8166 23.4111 15.8639 23.3272 15.9069L23.1917 15.9714L23.1681 15.9908H23.1229L23.0799 16.008C22.9663 16.0532 22.8637 16.1221 22.7788 16.2101C22.6996 16.2922 22.642 16.3927 22.6111 16.5026C22.5966 16.5522 22.5894 16.6036 22.5896 16.6553C22.5866 16.6795 22.5866 16.7041 22.5896 16.7284V16.808C22.6537 17.0201 22.6431 17.2479 22.5595 17.4531C22.4736 17.6581 22.3422 17.8409 22.1753 17.9877C22.0084 18.1345 21.8103 18.2414 21.596 18.3004C21.4192 18.352 21.2614 18.4545 21.1423 18.595C21.0921 18.6511 21.055 18.7176 21.0338 18.7898C21.0126 18.862 21.0078 18.938 21.0197 19.0123V19.0467C21.0212 19.0674 21.0212 19.0883 21.0197 19.109C21.024 19.1512 21.024 19.1937 21.0197 19.2359C21.0231 19.3235 21.0137 19.4112 20.9917 19.4961C20.9537 19.6599 20.8803 19.8133 20.7767 19.9456C20.5592 20.2136 20.2639 20.4074 19.9315 20.5004L19.8541 20.5241L19.7874 20.5477C19.6602 20.5979 19.5461 20.6766 19.4541 20.7778C19.4004 20.8312 19.3597 20.8962 19.3351 20.9678C19.3105 21.0394 19.3027 21.1156 19.3122 21.1907V21.2187C19.3136 21.2402 19.3136 21.2617 19.3122 21.2832C19.3166 21.3261 19.3166 21.3693 19.3122 21.4122C19.3152 21.4996 19.3072 21.587 19.2885 21.6725C19.2495 21.8385 19.1763 21.9945 19.0735 22.1305C18.9676 22.2691 18.838 22.3878 18.6907 22.4811C18.6164 22.5302 18.538 22.5727 18.4563 22.6079L18.3294 22.6574L18.267 22.6789L18.2132 22.694C18.0588 22.7433 17.9235 22.8395 17.8261 22.9692C17.7776 23.0256 17.7424 23.0922 17.723 23.164C17.7037 23.2359 17.7007 23.3111 17.7143 23.3843L17.7358 23.4703C17.7445 23.5107 17.7502 23.5517 17.753 23.5929C17.7621 23.6729 17.7621 23.7537 17.753 23.8337C17.7305 23.994 17.6764 24.1483 17.5939 24.2875C17.4132 24.5843 17.1326 24.807 16.8025 24.9155C16.7774 24.9239 16.7514 24.9297 16.7251 24.9327H16.7036C16.6733 24.9433 16.6438 24.9563 16.6154 24.9714C16.56 25.0028 16.5094 25.0419 16.4649 25.0875C16.3762 25.1814 16.3178 25.2998 16.2971 25.4273C16.2882 25.4915 16.2882 25.5566 16.2971 25.6208V25.6681C16.2986 25.676 16.2986 25.684 16.2971 25.6918V25.7262C16.3145 25.7802 16.3275 25.8356 16.3358 25.8918C16.3684 26.1179 16.3379 26.3486 16.2477 26.5585C16.1564 26.7858 15.9981 26.9801 15.7939 27.1154L15.7057 27.1649L15.6176 27.2058L15.5509 27.2294L15.5057 27.2531C15.4463 27.2858 15.3932 27.3287 15.3487 27.38C15.2553 27.4943 15.1997 27.6348 15.1896 27.7821C15.1753 27.9374 15.1989 28.0939 15.2584 28.238V28.2595C15.2658 28.2833 15.2682 28.3083 15.2654 28.333C15.2626 28.3577 15.2547 28.3815 15.2422 28.403C15.2296 28.4244 15.2127 28.443 15.1925 28.4576C15.1724 28.4721 15.1494 28.4823 15.1251 28.4875C15.0702 28.5042 15.0111 28.4996 14.9595 28.4746C14.9143 28.4509 14.8692 28.4273 14.8262 28.4015C14.8032 28.3813 14.7823 28.359 14.7638 28.3348L14.7186 28.281L14.6455 28.1843C14.6004 28.1197 14.5552 28.0552 14.5122 27.9843C14.4277 27.8476 14.3558 27.7037 14.2971 27.5542C14.2331 27.399 14.1925 27.2352 14.1767 27.0681C14.1743 26.9736 14.1867 26.8793 14.2133 26.7886C14.2399 26.6743 14.2971 26.5695 14.3789 26.4853L14.4004 26.4638V26.4466C14.4107 26.43 14.42 26.4128 14.4283 26.395C14.4428 26.3516 14.4536 26.307 14.4606 26.2617C14.4725 26.1567 14.4725 26.0506 14.4606 25.9456C14.4453 25.8353 14.4179 25.7272 14.3789 25.623C14.3611 25.5709 14.3403 25.5199 14.3165 25.4703L14.2799 25.3972L14.2584 25.3606L14.2348 25.3198C14.071 25.0526 13.9999 24.7389 14.0326 24.4273C14.0543 24.249 14.1217 24.0793 14.2283 23.9348C14.2894 23.8533 14.3619 23.7809 14.4434 23.7198C14.4861 23.6879 14.5306 23.6584 14.5767 23.6316L14.6498 23.5972L14.7036 23.5714H14.7272C14.861 23.491 14.961 23.365 15.009 23.2165C15.0408 23.14 15.059 23.0585 15.0627 22.9757C15.0673 22.9371 15.0673 22.8981 15.0627 22.8595C15.0645 22.8402 15.0645 22.8208 15.0627 22.8015V22.7563C15.0654 22.7351 15.06 22.7136 15.0477 22.6961C15.015 22.5318 15.0231 22.3619 15.0713 22.2015C15.1183 22.0382 15.2013 21.8875 15.3143 21.7606C15.5411 21.5036 15.8414 21.3227 16.1745 21.2424L16.2283 21.2273H16.2649L16.3401 21.2036C16.3877 21.1859 16.4337 21.1643 16.4778 21.1391C16.5688 21.0935 16.6522 21.034 16.7251 20.9628C16.7896 20.9018 16.8415 20.8288 16.8778 20.7477C16.8912 20.7159 16.9013 20.6827 16.9079 20.6488V20.5606C16.9064 20.5356 16.9064 20.5104 16.9079 20.4854C16.9223 20.2971 16.991 20.1171 17.1057 19.9671C17.2122 19.8242 17.3415 19.7 17.4885 19.5993C17.7679 19.4097 18.0847 19.2821 18.4175 19.2252H18.4369C18.6367 19.1782 18.8243 19.0895 18.9874 18.9649C19.0631 18.9127 19.1293 18.848 19.1831 18.7735C19.2014 18.7455 19.2158 18.7151 19.2261 18.6832C19.2289 18.6705 19.2289 18.6573 19.2261 18.6445C19.2272 18.6388 19.2272 18.633 19.2261 18.6273V18.5714C19.2469 18.3816 19.3215 18.2018 19.4412 18.0531C19.5471 17.9157 19.6741 17.7959 19.8175 17.6983C20.0984 17.5049 20.4161 17.3717 20.7509 17.3069C21.0089 17.265 21.2481 17.1458 21.4369 16.9649C21.5037 16.9011 21.5482 16.8174 21.5638 16.7262V16.7004V16.6768C21.549 16.5116 21.578 16.3455 21.6476 16.1951C21.7373 16.0052 21.8664 15.8366 22.0261 15.7004C22.1832 15.5625 22.362 15.4513 22.5552 15.3714L22.7057 15.3133L22.781 15.2897H22.7982C22.8605 15.2639 22.9337 15.2316 23.0003 15.1994C23.1348 15.1306 23.2642 15.0523 23.3874 14.965C23.6285 14.7915 23.8398 14.5802 24.0132 14.3391C24.1799 14.1029 24.3043 13.8395 24.381 13.5607C24.535 12.9885 24.5527 12.3882 24.4326 11.808C24.426 11.7894 24.4234 11.7696 24.4248 11.7499C24.4263 11.7302 24.4319 11.7111 24.4412 11.6937C24.4505 11.6763 24.4634 11.661 24.4789 11.6488C24.4945 11.6367 24.5124 11.6279 24.5315 11.623C24.5705 11.6064 24.6144 11.6051 24.6543 11.6194C24.6942 11.6338 24.7271 11.6628 24.7466 11.7005V11.722C24.8832 12.0164 24.9843 12.3261 25.0476 12.6445C25.1153 12.9662 25.1298 13.2967 25.0906 13.623C25.0827 13.711 25.0669 13.7981 25.0433 13.8832C25.0264 13.9677 25.0019 14.0505 24.9702 14.1305C24.9143 14.297 24.8422 14.4576 24.7552 14.6101H24.7229ZM27.1616 13.3908C26.783 12.5544 26.2853 11.7772 25.6842 11.0832C25.491 10.8457 25.2812 10.6222 25.0562 10.4144C24.8631 10.484 24.6968 10.6127 24.581 10.7821C24.4652 10.9516 24.4057 11.1533 24.4111 11.3585C24.3332 11.0705 24.1957 10.802 24.0075 10.5705C23.8194 10.339 23.5846 10.1495 23.3186 10.0144C21.2813 9.90926 19.2557 10.3805 17.474 11.374C15.6924 12.3675 14.2268 13.8432 13.2455 15.6316C10.4176 20.8187 13.1036 28.7068 14.4498 29.2251C15.7961 29.7434 24.3207 26.1456 26.9788 20.9047C27.6127 19.7579 27.9619 18.4757 27.9971 17.1659C28.0322 15.8561 27.7523 14.557 27.181 13.3779" fill="#F2761B"/>
</svg>
