<svg
    width="40"
    height="40"
    viewBox="0 0 40 40"
    fill="none"
    xmlns="http://www.w3.org/2000/svg"
    >
    <circle opacity="0.07" cx="20" cy="20" r="20" fill="#BC5E2C" />
    <path
        d="M18.9996 24.9997H21V18.9998H18.9996V24.9997ZM19.998 10C18.0204 10.0005 16.0873 10.5873 14.4433 11.6864C12.7992 12.7854 11.5179 14.3473 10.7615 16.1745C10.005 18.0017 9.80731 20.0121 10.1934 21.9517C10.5795 23.8912 11.532 25.6727 12.9306 27.0709C14.3291 28.4691 16.1108 29.4212 18.0505 29.8068C19.9901 30.1925 22.0005 29.9943 23.8275 29.2374C25.6546 28.4805 27.2161 27.1989 28.3147 25.5545C29.4134 23.9102 29.9998 21.977 29.9998 19.9994C29.9988 17.3473 28.9447 14.8041 27.0691 12.929C25.1936 11.0538 22.6501 10.0003 19.998 10ZM19.998 27.9996C18.4157 27.9994 16.8691 27.53 15.5536 26.6508C14.2381 25.7716 13.2129 24.522 12.6076 23.0601C12.0022 21.5983 11.844 19.9897 12.1528 18.4379C12.4616 16.8861 13.2237 15.4607 14.3426 14.342C15.4615 13.2232 16.887 12.4614 18.4389 12.1528C19.9907 11.8442 21.5992 12.0027 23.061 12.6083C24.5228 13.2138 25.7722 14.2392 26.6512 15.5548C27.5302 16.8704 27.9994 18.4172 27.9994 19.9994C27.9966 22.1205 27.1526 24.1539 25.6526 25.6537C24.1526 27.1534 22.1191 27.9971 19.998 27.9996ZM18.9996 16.9995H21V14.9991H18.9996V16.9995Z"
        fill="#F2761B"
    />
</svg>