<svg width="40" height="40" viewBox="0 0 40 40" fill="none" xmlns="http://www.w3.org/2000/svg">
<path d="M20 40C31.0457 40 40 31.0457 40 20C40 8.9543 31.0457 0 20 0C8.9543 0 0 8.9543 0 20C0 31.0457 8.9543 40 20 40Z" fill="#5C2682"/>
<path d="M33.5905 2.18555H5.40905C4.73346 2.18555 4.18579 2.73322 4.18579 3.40881V31.5903C4.18579 32.2659 4.73346 32.8135 5.40905 32.8135H33.5905C34.2661 32.8135 34.8138 32.2659 34.8138 31.5903V3.40881C34.8138 2.73322 34.2661 2.18555 33.5905 2.18555Z" fill="#5C2682"/>
<path d="M10.1029 14.5338V15.6653H12.6058V16.7072H10.1029V18.738H8.94873V13.4922H12.9428V14.5338H10.1029Z" fill="white"/>
<path d="M18.0537 18.2811C17.9067 18.3973 17.7471 18.4966 17.5778 18.5772C17.3975 18.6619 17.2075 18.7244 17.0121 18.7632C16.785 18.8078 16.554 18.8292 16.3226 18.827C15.9549 18.8304 15.5903 18.759 15.251 18.6172C14.9313 18.484 14.641 18.2893 14.3966 18.044C14.1544 17.7979 13.9633 17.5063 13.8346 17.1859C13.6986 16.8503 13.6298 16.4912 13.6322 16.1291V16.1142C13.6294 15.753 13.6982 15.3947 13.8346 15.0602C13.965 14.7397 14.1558 14.4473 14.3966 14.1987C14.6416 13.9478 14.9347 13.7489 15.2584 13.6141C15.6104 13.469 15.9882 13.3971 16.3688 13.4026C16.5938 13.401 16.8183 13.421 17.0394 13.4625C17.2281 13.4986 17.4127 13.5539 17.5902 13.6274C17.7515 13.6955 17.9048 13.7809 18.0475 13.8822C18.1862 13.9813 18.3165 14.0916 18.4372 14.2121L17.7018 15.0587C17.5141 14.886 17.3035 14.74 17.0759 14.6247C16.8528 14.5175 16.6077 14.4637 16.3602 14.4675C16.1498 14.4655 15.9415 14.509 15.7495 14.5949C15.5655 14.6773 15.4009 14.7972 15.2662 14.9471C15.1297 15.0995 15.023 15.2762 14.9515 15.4679C14.8756 15.6703 14.8374 15.885 14.839 16.1012V16.1161C14.8377 16.3335 14.8758 16.5493 14.9515 16.7531C15.0219 16.9455 15.127 17.1232 15.2615 17.2776C15.3988 17.4329 15.5679 17.5568 15.7573 17.6408C15.9467 17.7249 16.152 17.7671 16.3592 17.7647C16.6591 17.7647 16.9127 17.7097 17.12 17.5997C17.3447 17.4774 17.5525 17.3263 17.7381 17.1502L18.4725 17.8921C18.3429 18.0322 18.2029 18.1622 18.0537 18.2811Z" fill="white"/>
<path d="M23.5016 18.738V15.3131L22.0251 17.5538H21.9941L20.5327 15.3358V18.738H19.395V13.4922H20.6387L22.0176 15.7105L23.3965 13.4922H24.6405V18.738H23.5016Z" fill="white"/>
<path d="M30.2132 17.9286C30.1204 18.109 29.9841 18.2635 29.8167 18.3781C29.6282 18.5052 29.4181 18.5967 29.1967 18.6481C28.9326 18.7106 28.662 18.7408 28.3907 18.738H25.9001V13.4922H28.3315C28.8698 13.4922 29.2924 13.6146 29.5991 13.8595C29.9058 14.1044 30.0592 14.4342 30.0594 14.8487V14.8652C30.0615 14.9997 30.0426 15.1337 30.0033 15.2623C29.9684 15.372 29.9183 15.4764 29.8545 15.5723C29.7938 15.6632 29.7208 15.7452 29.6375 15.8159C29.5564 15.8855 29.4678 15.9458 29.3734 15.9957C29.6766 16.1109 29.9153 16.267 30.0895 16.4642C30.2637 16.6613 30.3507 16.9343 30.3505 17.2832V17.2981C30.3558 17.5162 30.3087 17.7324 30.2132 17.9286ZM28.9202 15.0434C28.9202 14.8686 28.8553 14.735 28.7255 14.6426C28.5957 14.5502 28.4084 14.504 28.1635 14.504H27.0242V15.6129H28.0875C28.3423 15.6129 28.5447 15.5692 28.6945 15.4818C28.8443 15.3943 28.9192 15.2532 28.9192 15.0583L28.9202 15.0434ZM29.2125 17.1418C29.2152 17.0611 29.1982 16.981 29.1629 16.9084C29.1276 16.8358 29.0752 16.7729 29.0101 16.7252C28.8751 16.6229 28.6581 16.5712 28.3591 16.5702H27.0261V17.7243H28.3975C28.6523 17.7243 28.8522 17.6781 28.997 17.5857C29.1419 17.4934 29.2143 17.3497 29.214 17.1548L29.2125 17.1418Z" fill="white"/>
<path d="M30.2639 22.0996V24.6683H8.83423V23.3173C8.83419 23.1574 8.86566 22.999 8.92684 22.8513C8.98802 22.7035 9.07771 22.5693 9.19079 22.4562C9.30387 22.3431 9.43812 22.2534 9.58587 22.1922C9.73363 22.131 9.89199 22.0996 10.0519 22.0996H30.2639Z" fill="#FAB613"/>
<path d="M8.83423 25.5H30.2639V28.0687H10.0519C9.89196 28.0687 9.73358 28.0372 9.5858 27.976C9.43803 27.9148 9.30376 27.8251 9.19068 27.712C9.07759 27.5989 8.98791 27.4646 8.92675 27.3168C8.86559 27.169 8.83415 27.0106 8.83423 26.8507V25.5Z" fill="#FAB613"/>
</svg>
