<svg viewBox="0 0 162 187" fill="none" xmlns="http://www.w3.org/2000/svg">
<g filter="url(#filter0_d)">
<circle cx="68.5" cy="89.5" r="19.5" fill="#050301"/>
</g>
<path d="M73.8229 98.265C73.7325 98.265 73.659 98.1915 73.659 98.1011V97.5557V96.7557H72.859H65.1433H64.3433V97.5557V98.1011C64.3433 98.1915 64.2693 98.265 64.1785 98.265C64.0881 98.265 64.0146 98.1915 64.0146 98.1011V97.5557V96.7557H63.2146H62.266C61.6044 96.7557 61.0662 96.2175 61.0662 95.5559V83.0486C61.0662 82.387 61.6044 81.8488 62.266 81.8488H75.7372C76.3987 81.8488 76.937 82.387 76.937 83.0486V95.5559C76.937 96.2175 76.3987 96.7557 75.7372 96.7557H74.7877H73.9877V97.5557V98.1011C73.9877 98.1915 73.9137 98.265 73.8229 98.265Z" fill="#C7ECDE"/>
<path d="M75.7371 95.9557C75.9576 95.9557 76.1369 95.7764 76.1369 95.5559V83.0486C76.1369 82.8282 75.9576 82.6488 75.7371 82.6488H62.2659C62.0455 82.6488 61.8661 82.8282 61.8661 83.0486V95.5559C61.8661 95.7764 62.0455 95.9557 62.2659 95.9557H63.2145H63.5432H65.1432H72.8589H74.4589H74.7876H75.7371ZM73.8228 99.065C73.29 99.065 72.8589 98.6339 72.8589 98.1011V97.5557H65.1432V98.1011C65.1432 98.6339 64.7112 99.065 64.1784 99.065C63.6456 99.065 63.2145 98.6339 63.2145 98.1011V97.5557H62.2659C61.1607 97.5557 60.2661 96.6602 60.2661 95.5559V83.0486C60.2661 81.9443 61.1607 81.0488 62.2659 81.0488H75.7371C76.8414 81.0488 77.7369 81.9443 77.7369 83.0486V95.5559C77.7369 96.6602 76.8414 97.5557 75.7371 97.5557H74.7876V98.1011C74.7876 98.6339 74.3556 99.065 73.8228 99.065Z" fill="#C7ECDE"/>
<path d="M68.967 90.1617C68.4669 90.1617 68.0601 89.7553 68.0601 89.2557C68.0601 88.7561 68.4669 88.3496 68.967 88.3496C69.467 88.3496 69.8739 88.7561 69.8739 89.2557C69.8739 89.7553 69.467 90.1617 68.967 90.1617Z" fill="white"/>
<path d="M68.967 89.0996C68.8804 89.0996 68.8101 89.1696 68.8101 89.2557C68.8101 89.3417 68.8804 89.4117 68.967 89.4117C69.0535 89.4117 69.1239 89.3417 69.1239 89.2557C69.1239 89.1696 69.0535 89.0996 68.967 89.0996ZM68.967 87.5996C69.882 87.5996 70.6239 88.341 70.6239 89.2557C70.6239 90.1703 69.882 90.9117 68.967 90.9117C68.0519 90.9117 67.3101 90.1703 67.3101 89.2557C67.3101 88.341 68.0519 87.5996 68.967 87.5996Z" fill="#050301"/>
<defs>
<filter id="filter0_d" x="-25" y="0" width="187" height="187" filterUnits="userSpaceOnUse" color-interpolation-filters="sRGB">
<feFlood flood-opacity="0" result="BackgroundImageFix"/>
<feColorMatrix in="SourceAlpha" type="matrix" values="0 0 0 0 0 0 0 0 0 0 0 0 0 0 0 0 0 0 127 0"/>
<feOffset dy="4"/>
<feGaussianBlur stdDeviation="37"/>
<feColorMatrix type="matrix" values="0 0 0 0 0 0 0 0 0 0 0 0 0 0 0 0 0 0 0.06 0"/>
<feBlend mode="normal" in2="BackgroundImageFix" result="effect1_dropShadow"/>
<feBlend mode="normal" in="SourceGraphic" in2="effect1_dropShadow" result="shape"/>
</filter>
</defs>
</svg>
