<svg width="98" height="30" viewBox="0 0 98 30" fill="none" xmlns="http://www.w3.org/2000/svg">
<path d="M10.0629 16.4531L0.535889 13.9161L2.46589 8.62307L11.7469 12.2801L11.0189 2.44507H17.2419L16.4899 12.4761L25.4899 8.89707L27.3789 14.2301L17.8029 16.7671L24.1729 24.1671L19.1439 27.4671L13.8119 19.2611L8.45989 27.1891L3.43089 24.0571L10.0629 16.4531Z" fill="#C7CAD3" fill-opacity="0.6" stroke="black" stroke-width="0.816"/>
<path d="M45.6259 16.4531L36.1399 13.9391L38.0399 8.62209L47.3209 12.2791L46.5909 2.44409H52.8139L52.0529 12.4911L61.0529 8.91209L62.9419 14.2451L53.3609 16.7661L59.7309 24.1661L54.7019 27.4661L49.3779 19.2601L44.0309 27.1891L39.0019 24.0571L45.6259 16.4531Z" fill="#C7CAD3" fill-opacity="0.6" stroke="black" stroke-width="0.816"/>
<path d="M94.0029 10.5181H93.3239V6.60207C93.2866 4.92621 92.5866 3.33343 91.3773 2.17265C90.168 1.01186 88.5479 0.377697 86.8719 0.40907H83.6009C81.9247 0.377699 80.3045 1.012 79.0951 2.173C77.8858 3.334 77.1859 4.92703 77.1489 6.60307V10.5181H76.2579C75.5819 10.506 74.9287 10.7623 74.4414 11.2309C73.9541 11.6995 73.6723 12.3422 73.6579 13.0181V21.6001C73.6492 21.7172 73.6492 21.8349 73.6579 21.9521C73.8923 24.0037 74.8826 25.8945 76.4357 27.2555C77.9888 28.6165 79.9932 29.35 82.0579 29.3131H88.1669C90.2101 29.3472 92.1942 28.6275 93.7404 27.2915C95.2865 25.9554 96.2864 24.0966 96.5489 22.0701C96.5806 21.9154 96.597 21.758 96.5979 21.6001V12.9841C96.5744 12.3151 96.2894 11.682 95.8042 11.2209C95.3189 10.7598 94.6722 10.5074 94.0029 10.5181ZM80.1009 6.60207C80.1208 5.69009 80.5011 4.82311 81.1584 4.19067C81.8158 3.55823 82.6968 3.21178 83.6089 3.22707H86.8799C87.792 3.21178 88.673 3.55823 89.3303 4.19067C89.9877 4.82311 90.3679 5.69009 90.3879 6.60207V10.5171H80.0769L80.1009 6.60207Z" fill="#F2761B" stroke="black" stroke-width="0.816"/>
<path opacity="0.137" d="M74.3529 11.1851C74.3529 11.1851 71.7529 23.8961 88.1089 28.7641C90.2809 29.4111 81.2379 31.0231 77.5869 28.6131C74.1309 26.3311 73.2399 22.7851 73.3939 19.3341C73.459 16.5938 73.7801 13.8656 74.3529 11.1851Z" fill="#18120F"/>
</svg>
