<svg width="107" height="76" viewBox="0 0 107 76" fill="none" xmlns="http://www.w3.org/2000/svg">
<path d="M51.4787 21.7505C39.7487 21.7505 30.25 31.2705 30.25 43.0005C30.25 54.7305 39.7487 64.2505 51.4787 64.2505C63.23 64.2505 72.75 54.7305 72.75 43.0005C72.75 31.2705 63.23 21.7505 51.4787 21.7505ZM51.5 60.0005C42.1075 60.0005 34.5 52.393 34.5 43.0005C34.5 33.608 42.1075 26.0005 51.5 26.0005C60.8925 26.0005 68.5 33.608 68.5 43.0005C68.5 52.393 60.8925 60.0005 51.5 60.0005ZM49.375 49.3755H53.625V53.6255H49.375V49.3755ZM49.375 32.3755H53.625V45.1255H49.375V32.3755Z" fill="#EB5757"/>
<path d="M13.1017 3.46191L7.02818 17.4052" stroke="#EC1B24" stroke-width="1.48377"/>
<path d="M3.09334 7.39697L17.0366 13.4705" stroke="#EC1B24" stroke-width="1.48377"/>
<path d="M82.6002 13.373L86.424 22.5447" stroke="#EC1B24" stroke-width="0.969446"/>
<path d="M79.9262 19.8711L89.0978 16.0473" stroke="#EC1B24" stroke-width="0.969446"/>
<path d="M12.1389 64.2129L7.71291 73.6388" stroke="#EC1B24" stroke-width="1.01593"/>
<path d="M5.21295 66.7129L14.6389 71.1389" stroke="#EC1B24" stroke-width="1.01593"/>
<path d="M101.945 48.082L97.7802 57.6426" stroke="#EC1B24" stroke-width="1.01739"/>
<path d="M95.0822 50.7803L104.643 54.9448" stroke="#EC1B24" stroke-width="1.01739"/>
</svg>
