<svg width="26" height="28" viewBox="0 0 26 28" fill="none" xmlns="http://www.w3.org/2000/svg">
<g filter="url(#filter0_d)">
<path d="M13 24C19.6274 24 25 18.6274 25 12C25 5.37258 19.6274 0 13 0C6.37258 0 1 5.37258 1 12C1 18.6274 6.37258 24 13 24Z" fill="white"/>
</g>
<path opacity="0.2" d="M13 6C11.8133 6 10.6533 6.35189 9.66658 7.01118C8.67989 7.67047 7.91085 8.60754 7.45673 9.7039C7.0026 10.8003 6.88378 12.0067 7.11529 13.1705C7.3468 14.3344 7.91825 15.4035 8.75736 16.2426C9.59648 17.0818 10.6656 17.6532 11.8295 17.8847C12.9933 18.1162 14.1997 17.9974 15.2961 17.5433C16.3925 17.0892 17.3295 16.3201 17.9888 15.3334C18.6481 14.3467 19 13.1867 19 12C19 10.4087 18.3679 8.88258 17.2426 7.75736C16.1174 6.63214 14.5913 6 13 6ZM11.0643 10.0642C11.2173 10.0642 11.367 10.1096 11.4943 10.1947C11.6215 10.2797 11.7208 10.4006 11.7793 10.5421C11.8379 10.6835 11.8532 10.8391 11.8234 10.9893C11.7935 11.1394 11.7198 11.2773 11.6116 11.3856C11.5033 11.4938 11.3654 11.5675 11.2153 11.5974C11.0651 11.6272 10.9095 11.6119 10.7681 11.5533C10.6266 11.4948 10.5057 11.3955 10.4207 11.2683C10.3356 11.141 10.2903 10.9913 10.2903 10.8383C10.2903 10.633 10.3718 10.4361 10.517 10.2909C10.6621 10.1458 10.859 10.0642 11.0643 10.0642ZM14.935 11.613C14.7819 11.613 14.6323 11.5676 14.505 11.4826C14.3777 11.3975 14.2785 11.2766 14.2199 11.1352C14.1613 10.9938 14.146 10.8381 14.1759 10.688C14.2057 10.5379 14.2795 10.3999 14.3877 10.2917C14.4959 10.1835 14.6339 10.1097 14.784 10.0799C14.9341 10.05 15.0898 10.0653 15.2312 10.1239C15.3726 10.1825 15.4935 10.2817 15.5786 10.409C15.6636 10.5363 15.709 10.6859 15.709 10.839C15.709 11.0441 15.6276 11.2409 15.4826 11.386C15.3376 11.5312 15.1409 11.6128 14.9358 11.613H14.935Z" fill="black"/>
<path d="M14.9358 10.0645C14.7827 10.0645 14.633 10.1098 14.5058 10.1949C14.3785 10.2799 14.2793 10.4008 14.2207 10.5423C14.1621 10.6837 14.1468 10.8393 14.1766 10.9895C14.2065 11.1396 14.2802 11.2775 14.3885 11.3858C14.4967 11.494 14.6346 11.5677 14.7848 11.5976C14.9349 11.6274 15.0905 11.6121 15.232 11.5535C15.3734 11.495 15.4943 11.3957 15.5793 11.2685C15.6644 11.1412 15.7098 10.9915 15.7098 10.8385C15.7098 10.6332 15.6282 10.4363 15.4831 10.2911C15.3379 10.146 15.141 10.0645 14.9358 10.0645ZM11.065 10.0645C10.9119 10.0645 10.7623 10.1098 10.635 10.1949C10.5077 10.2799 10.4085 10.4008 10.3499 10.5423C10.2914 10.6837 10.276 10.8393 10.3059 10.9895C10.3358 11.1396 10.4095 11.2775 10.5177 11.3858C10.626 11.494 10.7639 11.5677 10.914 11.5976C11.0642 11.6274 11.2198 11.6121 11.3612 11.5535C11.5026 11.495 11.6235 11.3957 11.7086 11.2685C11.7936 11.1412 11.839 10.9915 11.839 10.8385C11.839 10.7367 11.819 10.636 11.78 10.5421C11.7411 10.4481 11.684 10.3628 11.612 10.2909C11.5401 10.219 11.4547 10.162 11.3607 10.1232C11.2667 10.0843 11.166 10.0644 11.0643 10.0645H11.065Z" fill="white"/>
<path d="M13.5519 14.2295L14.2584 13.523C14.3279 13.4484 14.3658 13.3497 14.364 13.2476C14.3622 13.1456 14.3209 13.0483 14.2487 12.9762C14.1766 12.904 14.0793 12.8627 13.9773 12.8609C13.8753 12.8591 13.7765 12.897 13.7019 12.9665L12.9954 13.673L12.2889 12.9665C12.2142 12.897 12.1155 12.8591 12.0135 12.8609C11.9115 12.8627 11.8142 12.904 11.742 12.9762C11.6699 13.0483 11.6286 13.1456 11.6268 13.2476C11.625 13.3497 11.6628 13.4484 11.7324 13.523L12.4389 14.2295L11.7324 14.936C11.6628 15.0107 11.625 15.1094 11.6268 15.2114C11.6286 15.3134 11.6699 15.4107 11.742 15.4829C11.8142 15.555 11.9115 15.5963 12.0135 15.5981C12.1155 15.5999 12.2142 15.5621 12.2889 15.4925L12.9954 14.786L13.7019 15.4925C13.7765 15.5621 13.8753 15.5999 13.9773 15.5981C14.0793 15.5963 14.1766 15.555 14.2487 15.4829C14.3209 15.4107 14.3622 15.3134 14.364 15.2114C14.3658 15.1094 14.3279 15.0107 14.2584 14.936L13.5519 14.2295Z" fill="white"/>
<defs>
<filter id="filter0_d" x="0" y="0" width="26" height="28" filterUnits="userSpaceOnUse" color-interpolation-filters="sRGB">
<feFlood flood-opacity="0" result="BackgroundImageFix"/>
<feColorMatrix in="SourceAlpha" type="matrix" values="0 0 0 0 0 0 0 0 0 0 0 0 0 0 0 0 0 0 127 0"/>
<feOffset dy="3"/>
<feGaussianBlur stdDeviation="0.5"/>
<feColorMatrix type="matrix" values="0 0 0 0 0 0 0 0 0 0 0 0 0 0 0 0 0 0 0.059 0"/>
<feBlend mode="normal" in2="BackgroundImageFix" result="effect1_dropShadow"/>
<feBlend mode="normal" in="SourceGraphic" in2="effect1_dropShadow" result="shape"/>
</filter>
</defs>
</svg>
