<svg width="40" height="40" viewBox="0 0 40 40" fill="none" xmlns="http://www.w3.org/2000/svg">
<path d="M20 40C31.0457 40 40 31.0457 40 20C40 8.9543 31.0457 0 20 0C8.9543 0 0 8.9543 0 20C0 31.0457 8.9543 40 20 40Z" fill="#BC5E2C" fill-opacity="0.05"/>
<path d="M15.7851 26.5706C19.5324 26.5706 22.5701 23.5329 22.5701 19.7856C22.5701 16.0383 19.5324 13.0005 15.7851 13.0005C12.0378 13.0005 9 16.0383 9 19.7856C9 23.5329 12.0378 26.5706 15.7851 26.5706Z" fill="#EE0005"/>
<path d="M24.2153 26.5701C27.9625 26.5701 31.0003 23.5324 31.0003 19.7851C31.0003 16.0378 27.9625 13 24.2153 13C20.468 13 17.4302 16.0378 17.4302 19.7851C17.4302 23.5324 20.468 26.5701 24.2153 26.5701Z" fill="#F9A000"/>
<path d="M17.4302 19.7848C17.4292 20.8077 17.66 21.8174 18.1051 22.7383C18.5503 23.6592 19.1982 24.4673 20.0004 25.1019C20.8016 24.4666 21.4489 23.6585 21.8939 22.7378C22.3388 21.8172 22.5699 20.8079 22.5699 19.7853C22.5699 18.7628 22.3388 17.7535 21.8939 16.8329C21.4489 15.9122 20.8016 15.104 20.0004 14.4688C19.1984 15.1033 18.5506 15.9112 18.1054 16.8319C17.6603 17.7526 17.4294 18.7622 17.4302 19.7848Z" fill="#FF6300"/>
</svg>
