<svg width="40" height="40" viewBox="0 0 40 40" fill="none" xmlns="http://www.w3.org/2000/svg">
<path d="M20 40C31.0457 40 40 31.0457 40 20C40 8.9543 31.0457 0 20 0C8.9543 0 0 8.9543 0 20C0 31.0457 8.9543 40 20 40Z" fill="#06B4F1"/>
<path d="M13.1616 16.2605C12.8111 16.2265 12.4697 16.3095 12.127 16.3567C12.0974 16.3251 12.1236 16.3017 12.1358 16.2816C12.9682 14.9192 14.118 13.991 15.7113 13.6721C16.2723 13.5579 16.8484 13.5379 17.416 13.6129C17.6445 13.6439 17.8512 13.5599 18.0678 13.5279C18.2749 13.4973 18.3157 13.5279 18.2116 13.7088C18.0076 14.0638 18.1307 14.4106 18.1882 14.7628C18.2888 15.376 18.3941 15.9885 18.504 16.6005C18.5241 16.7141 18.501 16.8004 18.419 16.8749C18.2626 17.0174 18.1283 17.1976 17.8662 17.1109C17.6962 17.0551 17.5656 16.9864 17.5602 16.7834C17.5577 16.7381 17.541 16.6946 17.5123 16.6593C17.2821 16.3948 17.056 16.1252 16.7772 15.9086C16.6123 15.7804 16.5174 15.7981 16.3994 15.9739C16.2658 16.1728 16.1924 16.4003 16.1064 16.6216C15.9024 17.1435 15.7018 17.6657 15.3696 18.1251C15.3036 18.2162 15.2387 18.2567 15.119 18.2451C14.6643 18.1979 14.2068 18.1852 13.7502 18.207C13.7597 18.2699 13.8008 18.2682 13.8409 18.2733C14.2901 18.3284 14.7385 18.3862 15.1877 18.4403C15.5416 18.4831 15.7657 18.8544 15.6215 19.177C15.3366 19.7992 15.0177 20.4052 14.6661 20.9923C14.6216 21.0715 14.5562 21.1369 14.4771 21.1813C14.2894 21.2856 14.1027 21.3919 13.9171 21.5003C13.843 21.5434 13.7944 21.5343 13.757 21.452C13.6707 21.2661 13.6383 21.0597 13.6635 20.8563C13.6801 20.7234 13.8991 20.6183 14.0609 20.654C14.2619 20.6992 14.3537 20.6241 14.3452 20.416C14.3411 20.3181 14.3883 20.2416 14.4356 20.1654C14.5971 19.9063 14.763 19.65 14.9249 19.3909C14.9589 19.3355 15.0228 19.2756 14.9789 19.208C14.9351 19.1403 14.8548 19.1607 14.7892 19.1665C14.4869 19.193 14.1918 19.2155 13.9052 19.3538C13.4183 19.5884 12.8852 19.684 12.3517 19.7578C11.6588 19.8533 10.9547 19.8445 10.2567 19.9856C10.2791 19.6694 10.3083 19.3647 10.2546 19.0271C10.1727 19.1264 10.1672 19.2107 10.1577 19.2913C10.0404 20.3014 9.48214 21.0328 8.68654 21.6114C8.20287 21.9594 7.65535 22.2086 7.07529 22.3448C6.66967 22.4438 6.37999 22.6671 6.17939 23.034C5.95125 23.4512 5.77411 23.8945 5.53781 24.3056C5.29062 24.736 4.91084 25.0114 4.40934 25.0896C4.15366 25.1294 4.11286 25.0774 4.188 24.8292C4.21928 24.7272 4.25906 24.6252 4.2951 24.5252C4.3767 24.2947 4.48108 24.1002 4.783 24.1376C4.8969 24.1519 4.95844 24.0696 4.99856 23.9612C5.2301 23.3356 5.47082 22.7137 5.70033 22.0874C5.71649 22.0339 5.74514 21.9849 5.78391 21.9446C5.82269 21.9043 5.87049 21.8738 5.92337 21.8556C6.19537 21.7536 6.46737 21.6587 6.73053 21.5455C7.18545 21.3513 7.31533 21.1375 7.2837 20.6492C7.25752 20.2375 7.20585 19.8261 7.29357 19.4154C7.46867 18.5922 8.00756 18.0625 8.70864 17.6668C9.33628 17.3132 10.0255 17.1316 10.7146 16.9528C11.4701 16.7587 12.2252 16.5632 12.9797 16.3663C13.0436 16.3496 13.1059 16.3275 13.1688 16.3081L13.1616 16.2605Z" fill="white"/>
<path d="M20.077 23.709C20.8719 23.709 21.4931 24.321 21.4873 25.0952C21.4812 25.8796 20.8522 26.4892 20.0552 26.4834C19.2674 26.4776 18.6564 25.8758 18.6558 25.1044C18.6551 24.3183 19.2783 23.7063 20.077 23.709ZM19.2633 25.0809C19.2613 25.5773 19.601 25.9452 20.0647 25.9486C20.5387 25.952 20.8848 25.5946 20.8848 25.1016C20.8848 24.6175 20.5298 24.2442 20.0688 24.2418C19.5989 24.2394 19.2654 24.5876 19.2633 25.0809Z" fill="white"/>
<path d="M14.7556 24.1561C14.9358 23.9226 15.1364 23.7709 15.4081 23.7233C15.9844 23.6213 16.4787 23.98 16.5083 24.5641C16.5352 25.0942 16.5209 25.6266 16.5168 26.1581C16.5168 26.3355 16.3951 26.4362 16.2193 26.4348C16.0435 26.4335 15.9235 26.3291 15.9164 26.14C15.9082 25.9143 15.914 25.6878 15.9136 25.46C15.9136 25.2622 15.9174 25.0639 15.9109 24.8664C15.8987 24.4781 15.6937 24.2575 15.3516 24.2571C15.0001 24.2571 14.7573 24.4951 14.7488 24.8742C14.7396 25.2866 14.7488 25.6997 14.7444 26.1125C14.7427 26.3165 14.6363 26.428 14.4513 26.4324C14.2663 26.4369 14.1433 26.3304 14.1422 26.1485C14.1375 25.4418 14.1375 24.7349 14.1422 24.028C14.1408 23.9533 14.1686 23.881 14.2197 23.8265C14.2709 23.772 14.3413 23.7398 14.4159 23.7366C14.4929 23.7307 14.5692 23.7542 14.6296 23.8022C14.69 23.8503 14.73 23.9194 14.7417 23.9957C14.7491 24.0392 14.7495 24.0807 14.7556 24.1561Z" fill="white"/>
<path d="M22.7828 24.1461C23.0575 23.7877 23.3982 23.648 23.8239 23.7333C24.2234 23.8135 24.5121 24.128 24.524 24.5384C24.5393 25.0807 24.5321 25.6237 24.5294 26.1663C24.5294 26.3309 24.4094 26.4411 24.2496 26.4455C24.2113 26.4475 24.173 26.4419 24.1369 26.4291C24.1008 26.4163 24.0676 26.3965 24.0392 26.3708C24.0108 26.3451 23.9877 26.3141 23.9713 26.2795C23.9549 26.2448 23.9455 26.2073 23.9436 26.1691C23.932 25.9549 23.9395 25.7396 23.9375 25.5231C23.9351 25.2745 23.9446 25.025 23.9245 24.7778C23.8984 24.4555 23.7083 24.2776 23.404 24.2579C23.0997 24.2382 22.8692 24.4113 22.792 24.7091C22.743 24.8988 22.7702 25.0916 22.7668 25.283C22.7621 25.555 22.7668 25.827 22.7651 26.097C22.7651 26.3108 22.6393 26.4475 22.4557 26.4438C22.28 26.4407 22.1599 26.3078 22.1593 26.1007C22.1569 25.4394 22.1593 24.7778 22.1593 24.1165C22.1593 23.8761 22.264 23.7425 22.4506 23.7353C22.6373 23.7282 22.7495 23.854 22.7672 24.0927C22.7709 24.1109 22.7761 24.1287 22.7828 24.1461Z" fill="white"/>
<path d="M12.7069 26.0612C12.6529 26.0701 12.6369 26.1109 12.6127 26.1394C12.3275 26.4794 11.9083 26.5315 11.5125 26.4043C11.1596 26.2907 10.9495 25.947 10.9464 25.5203C10.943 25.0338 10.9444 24.5469 10.9464 24.0603C10.9464 23.8563 11.0562 23.7401 11.2364 23.738C11.4231 23.736 11.5445 23.858 11.5468 24.0637C11.5506 24.4258 11.5468 24.7879 11.5468 25.1517C11.5468 25.2197 11.5468 25.2877 11.5516 25.3557C11.5754 25.7172 11.7814 25.9205 12.1197 25.9188C12.458 25.9171 12.6977 25.693 12.709 25.3455C12.7219 24.927 12.7151 24.5081 12.7144 24.0875C12.7144 23.9233 12.7722 23.7965 12.9371 23.7475C13.1411 23.6867 13.3186 23.8285 13.3196 24.0535C13.3223 24.7383 13.3223 25.4231 13.3196 26.1078C13.3196 26.306 13.2057 26.4363 13.0354 26.4441C12.865 26.4519 12.7436 26.3343 12.7154 26.1381C12.713 26.1143 12.7103 26.0884 12.7069 26.0612Z" fill="white"/>
<path d="M3.15974 21.0783C3.12059 20.9072 3.13049 20.7286 3.1883 20.5628C3.47866 19.6537 4.14948 19.1913 5.03858 18.9846C5.3609 18.9098 5.68832 18.9033 6.01642 18.9115C6.43292 18.9217 6.84092 18.8914 7.22206 18.702C7.2581 18.684 7.30128 18.6609 7.33256 18.6922C7.37098 18.7306 7.32338 18.7632 7.304 18.7942C7.20083 18.9428 7.11761 19.1043 7.05648 19.2746C7.02418 19.3694 6.94224 19.3953 6.86948 19.433C6.13236 19.8145 5.3456 20.0525 4.5398 20.2405C4.25862 20.3065 3.98322 20.3877 3.72754 20.5261C3.48734 20.6493 3.28957 20.8416 3.15974 21.0783Z" fill="white"/>
<path d="M16.4019 18.4989C16.2836 18.5091 16.1609 18.5026 16.0483 18.5329C15.8318 18.592 15.6859 18.4853 15.5383 18.3588C15.4958 18.3228 15.5016 18.2986 15.5247 18.2609C15.5689 18.1885 15.6128 18.116 15.6543 18.0423C15.8545 17.6873 15.8545 17.6863 16.2632 17.7363C16.5101 17.7662 16.7566 17.7992 17.0031 17.8311C17.2676 17.8651 17.474 18.199 17.3669 18.4448C17.1147 19.0325 16.8143 19.5983 16.4686 20.1363C16.3152 20.3719 16.0191 20.4471 15.7784 20.5783C15.727 20.6065 15.6995 20.5491 15.6811 20.5086C15.6066 20.3488 15.5778 20.1714 15.5982 19.9962C15.6138 19.8728 15.7954 19.7759 15.9467 19.8024C16.1473 19.8364 16.2064 19.7892 16.2088 19.5814C16.2088 19.4968 16.2503 19.4298 16.2918 19.3632C16.4356 19.133 16.5838 18.9059 16.7263 18.675C16.8181 18.5268 16.7984 18.4951 16.6223 18.4921C16.5828 18.4921 16.5434 18.4938 16.5036 18.4955C16.4696 18.4955 16.4356 18.4999 16.4016 18.5023L16.4019 18.4989Z" fill="white"/>
<path d="M25.7636 24.3354C26.0196 23.9865 26.3416 23.7574 26.7877 23.7601C27.1029 23.7589 27.4058 23.8825 27.6302 24.1038C28.1338 24.5873 28.1742 25.4768 27.7152 26.0061C27.5452 26.204 27.3348 26.3492 27.0787 26.4036C26.8351 26.4619 26.5798 26.4474 26.3443 26.3618C26.0999 26.2683 25.9251 26.0874 25.7242 25.9055C25.7242 26.0048 25.7242 26.1041 25.7242 26.2033C25.7242 26.2951 25.7327 26.4026 25.5994 26.3975C25.4841 26.3931 25.4821 26.2975 25.4824 26.2081C25.4824 25.914 25.4824 25.6199 25.4824 25.3241C25.4824 24.6563 25.4824 23.9887 25.4824 23.3212C25.4824 23.2759 25.4824 23.2307 25.4841 23.1852C25.4889 23.1134 25.528 23.0651 25.6004 23.0645C25.6834 23.0645 25.7174 23.1151 25.7177 23.1971C25.7177 23.5082 25.7215 23.8193 25.7235 24.1304C25.7235 24.1909 25.7235 24.2514 25.7235 24.3119L25.7636 24.3354ZM27.7676 25.0994C27.7635 24.4534 27.3388 23.9913 26.753 23.995C26.1672 23.9988 25.7116 24.4874 25.7136 25.1099C25.7157 25.7324 26.1811 26.2132 26.7676 26.2125C27.3596 26.2118 27.7717 25.7539 27.7676 25.0994Z" fill="white"/>
<path d="M30.5402 25.9698C30.1108 26.4832 29.529 26.5138 29.0959 26.354C28.7385 26.2217 28.5624 25.9562 28.5695 25.606C28.5763 25.2714 28.7701 25.0154 29.1207 24.892C29.5419 24.7414 29.9707 24.7835 30.3923 24.8767C30.5198 24.9046 30.546 24.8815 30.5422 24.757C30.529 24.3276 30.2597 24.0474 29.816 24.0151C29.5439 23.9955 29.2712 24.0433 29.0221 24.1545C28.9418 24.1885 28.8521 24.2338 28.8079 24.1205C28.7637 24.0073 28.8579 23.975 28.9381 23.942C29.2781 23.802 29.6314 23.7421 29.9996 23.8081C30.4599 23.8907 30.7615 24.2161 30.7738 24.6826C30.7877 25.2024 30.7782 25.7233 30.7795 26.2435C30.7795 26.3248 30.7625 26.3982 30.668 26.4026C30.563 26.4077 30.5388 26.3326 30.5402 26.2432C30.5402 26.1629 30.5402 26.0857 30.5402 25.9698ZM29.8602 25.0202C29.5603 25.0144 29.357 25.0202 29.1676 25.1106C28.9636 25.2072 28.8375 25.3615 28.8296 25.5961C28.8218 25.8365 28.9316 26.0116 29.1424 26.1146C29.4974 26.2877 29.8466 26.2432 30.1777 26.0497C30.4885 25.8685 30.5715 25.5768 30.549 25.2361C30.5432 25.1504 30.515 25.1181 30.4355 25.1001C30.2114 25.0552 29.9887 25.0205 29.8575 25.0202H29.8602Z" fill="white"/>
<path d="M35.6637 25.1388C35.4652 25.3332 35.2768 25.5202 35.0857 25.7038C35.0347 25.7528 35.0272 25.8089 35.0283 25.8738C35.0283 26.0041 35.0283 26.1343 35.0283 26.2642C35.0283 26.3451 34.9943 26.3951 34.9079 26.3934C34.8215 26.3917 34.7886 26.341 34.7875 26.2614C34.7875 26.2387 34.7875 26.2162 34.7875 26.1934C34.7875 25.2258 34.7875 24.2581 34.7875 23.2902C34.7856 23.2506 34.7867 23.2109 34.7909 23.1715C34.7927 23.1427 34.8056 23.1156 34.8269 23.0961C34.8482 23.0765 34.8763 23.066 34.9052 23.0668C34.9209 23.0654 34.9367 23.0676 34.9515 23.073C34.9663 23.0784 34.9798 23.087 34.9909 23.0982C35.002 23.1094 35.0106 23.1229 35.0159 23.1377C35.0212 23.1526 35.0233 23.1684 35.0218 23.1841C35.0242 23.2803 35.0279 23.3762 35.0279 23.4724C35.0279 24.0667 35.0279 24.6611 35.0279 25.2554V25.4227C35.1088 25.4135 35.1347 25.3574 35.1714 25.3207C35.6093 24.8703 36.0461 24.4189 36.4818 23.9664C36.5134 23.9324 36.5457 23.9022 36.5766 23.8692C36.6331 23.8083 36.7014 23.7764 36.7687 23.8372C36.8418 23.9035 36.7983 23.9695 36.7422 24.0266C36.5674 24.2041 36.392 24.3809 36.2183 24.5591C36.0918 24.6886 35.881 24.8107 35.8657 24.9528C35.8487 25.1102 36.0649 25.2469 36.1792 25.3927C36.3784 25.6464 36.5834 25.8953 36.7874 26.1452C36.8439 26.2132 36.904 26.2982 36.8258 26.3672C36.7402 26.443 36.6626 26.377 36.5997 26.2992C36.289 25.9092 35.9752 25.5233 35.6637 25.1388Z" fill="white"/>
<path d="M31.8915 24.222C32.171 23.8714 32.5195 23.7222 32.9557 23.7677C33.4517 23.8191 33.8108 24.1689 33.8305 24.6677C33.8512 25.193 33.8383 25.7197 33.8404 26.2457C33.8404 26.3279 33.8217 26.3946 33.721 26.3929C33.6115 26.3908 33.5979 26.3157 33.5979 26.229C33.5979 25.7934 33.5979 25.3577 33.5979 24.922C33.6003 24.8373 33.596 24.7525 33.585 24.6684C33.5123 24.2193 33.1937 23.9619 32.7418 23.9823C32.2798 24.003 31.9132 24.3536 31.8973 24.817C31.8826 25.2464 31.8928 25.6765 31.8922 26.1066C31.8922 26.1518 31.8922 26.197 31.8922 26.2426C31.8922 26.3235 31.8728 26.3908 31.7732 26.3932C31.6735 26.3956 31.6467 26.3354 31.646 26.2508C31.646 26.228 31.646 26.2055 31.646 26.1828V24.0272C31.646 23.9989 31.646 23.9707 31.646 23.9425C31.6504 23.8677 31.6752 23.8065 31.763 23.8065C31.8585 23.8065 31.8877 23.8708 31.8901 23.9524C31.8935 24.0414 31.8915 24.1315 31.8915 24.222Z" fill="white"/>
<path d="M17.947 25.0899C17.947 25.4299 17.947 25.7678 17.947 26.1068C17.947 26.318 17.8498 26.4257 17.6642 26.4332C17.4707 26.4407 17.3463 26.3312 17.3446 26.1211C17.3396 25.432 17.3396 24.7427 17.3446 24.0532C17.3463 23.8564 17.4758 23.735 17.6485 23.7363C17.8297 23.7363 17.945 23.8649 17.9464 24.0729C17.9487 24.4119 17.947 24.7509 17.947 25.0899Z" fill="white"/>
<path d="M6.47514 23.9838C6.40714 23.993 6.36804 23.9355 6.40714 23.8179C6.44454 23.7057 6.48772 23.5952 6.52478 23.4826C6.58428 23.3007 6.68118 23.1766 6.89878 23.1875C7.01268 23.1933 7.08816 23.1273 7.10958 23.0093C7.17418 22.6513 7.37172 22.4194 7.73246 22.3249C7.84466 22.2957 7.9453 22.2229 8.05172 22.1702C8.08096 22.1556 8.11122 22.127 8.1442 22.1532C8.17718 22.1794 8.15406 22.2148 8.13944 22.2433C7.93544 22.6466 7.76544 23.0729 7.49344 23.4313C7.26156 23.7339 6.94366 23.9532 6.47514 23.9838Z" fill="white"/>
</svg>
