<svg width="40" height="40" viewBox="0 0 40 40" fill="none" xmlns="http://www.w3.org/2000/svg">
<path d="M20 40C31.0457 40 40 31.0457 40 20C40 8.9543 31.0457 0 20 0C8.9543 0 0 8.9543 0 20C0 31.0457 8.9543 40 20 40Z" fill="#0066B3" fill-opacity="0.05"/>
<path d="M16.8672 22.8166L18.0955 16.2197H20.0147L18.8248 22.8166H16.8672Z" fill="#3C58BF"/>
<path d="M16.8672 22.8166L18.4409 16.2197H20.0147L18.8248 22.8166H16.8672Z" fill="#293688"/>
<path d="M25.7717 16.2932C25.3878 16.1466 24.7737 16 24.006 16C22.0868 16 20.705 16.9162 20.705 18.2356C20.705 19.2251 21.6646 19.7382 22.4323 20.0681C23.2 20.3979 23.4303 20.6178 23.4303 20.911C23.4303 21.3508 22.8161 21.5707 22.2787 21.5707C21.5111 21.5707 21.0888 21.4608 20.4363 21.2042L20.1676 21.0943L19.8989 22.5969C20.3595 22.7801 21.204 22.9634 22.0868 22.9634C24.1212 22.9634 25.4646 22.0471 25.4646 20.6545C25.4646 19.8848 24.9656 19.2984 23.8141 18.822C23.1232 18.4922 22.701 18.3089 22.701 17.9791C22.701 17.6859 23.0464 17.3927 23.8141 17.3927C24.4666 17.3927 24.9272 17.5026 25.2727 17.6492L25.4646 17.7225L25.7717 16.2932Z" fill="#3C58BF"/>
<path d="M25.7717 16.2932C25.3878 16.1466 24.7737 16 24.006 16C22.0868 16 21.0504 16.9162 21.0504 18.2356C21.0504 19.2251 21.6646 19.7382 22.4323 20.0681C23.2 20.3979 23.4303 20.6178 23.4303 20.911C23.4303 21.3508 22.8161 21.5707 22.2787 21.5707C21.5111 21.5707 21.0888 21.4608 20.4363 21.2042L20.1676 21.0943L19.8989 22.5969C20.3595 22.7801 21.204 22.9634 22.0868 22.9634C24.1212 22.9634 25.4646 22.0471 25.4646 20.6545C25.4646 19.8848 24.9656 19.2984 23.8141 18.822C23.1232 18.4922 22.701 18.3089 22.701 17.9791C22.701 17.6859 23.0464 17.3927 23.8141 17.3927C24.4666 17.3927 24.9272 17.5026 25.2727 17.6492L25.4646 17.7225L25.7717 16.2932Z" fill="#293688"/>
<path fill-rule="evenodd" clip-rule="evenodd" d="M28.0756 16.6962C28.2675 16.2564 28.613 16.2197 29.0736 16.2197H30.5705L32.1827 22.8166H30.3402L30.1099 21.7171H27.6534L27.2695 22.8166H25.1968L28.0756 16.6962ZM28.9572 18.6752C28.9572 18.6752 28.3046 20.2878 28.1895 20.6177V20.6543H29.8016C29.7248 20.2878 29.341 18.6386 29.341 18.6386L29.2259 18.0156C29.1107 18.2721 28.9572 18.6752 28.9572 18.6752Z" fill="#3C58BF"/>
<path fill-rule="evenodd" clip-rule="evenodd" d="M28.5362 16.6962C28.7281 16.2564 29.0736 16.2197 29.5342 16.2197H30.5705L32.1827 22.8166H30.3402L30.1099 21.7171H27.6534L27.2695 22.8166H25.1968L28.5362 16.6962ZM28.9572 18.6752C28.9572 18.6752 28.343 20.2512 28.1895 20.6177V20.6543H29.8016C29.7248 20.2878 29.341 18.6386 29.341 18.6386L29.2259 18.0156C29.1107 18.2721 28.9572 18.6752 28.9572 18.6752Z" fill="#293688"/>
<path d="M13.3353 20.8375L13.1434 19.8846C12.798 18.7852 11.6848 17.5757 10.4565 16.9893L12.1838 22.8532H14.2566L17.3657 16.2563H15.2929L13.3353 20.8375Z" fill="#3C58BF"/>
<path d="M13.3353 20.8375L13.1434 19.8846C12.798 18.7852 11.6848 17.5757 10.4565 16.9893L12.1838 22.8532H14.2566L17.3657 16.2563H15.6768L13.3353 20.8375Z" fill="#293688"/>
<path d="M8 16.2197L8.34546 16.293C10.802 16.8428 12.4909 18.2354 13.1435 19.8847L12.4525 16.7695C12.3374 16.3297 11.9919 16.2197 11.5697 16.2197H8V16.2197Z" fill="#FFBC00"/>
<path d="M8 16.2197C10.4566 16.7695 12.4909 18.1988 13.1435 19.848L12.4909 17.2459C12.3758 16.8061 11.9919 16.5496 11.5697 16.5496L8 16.2197Z" fill="#F7981D"/>
<path d="M8 16.2197C10.4566 16.7695 12.4909 18.1988 13.1435 19.848L12.6828 18.4187C12.5677 17.9789 12.4142 17.5391 11.8768 17.3559L8 16.2197Z" fill="#ED7C00"/>
<path d="M15.2547 20.6176L13.9497 19.3715L13.3355 20.7642L13.182 19.8479C12.8365 18.7485 11.7234 17.539 10.4951 16.9526L12.2224 22.8165H14.2951L15.2547 20.6176Z" fill="#051244"/>
<path d="M18.8243 22.8167L17.1738 21.2041L16.8667 22.8167H18.8243Z" fill="#051244"/>
<path d="M23.2388 20.5444C23.3924 20.691 23.4691 20.801 23.4307 20.9476C23.4307 21.3874 22.8166 21.6073 22.2792 21.6073C21.5115 21.6073 21.0893 21.4973 20.4368 21.2408L20.1681 21.1308L19.8994 22.6334C20.36 22.8167 21.2045 22.9999 22.0873 22.9999C23.3156 22.9999 24.3136 22.6701 24.8893 22.0837L23.2388 20.5444Z" fill="#051244"/>
<path d="M25.4648 22.8167H27.2689L27.6527 21.7172H30.1093L30.3396 22.8167H32.182L31.5295 20.1413L29.2265 18.0156L29.3416 18.602C29.3416 18.602 29.7255 20.2512 29.8022 20.6177H28.1901C28.3436 20.2512 28.9578 18.6753 28.9578 18.6753C28.9578 18.6753 29.1113 18.2722 29.2265 18.0156" fill="#051244"/>
</svg>