<svg width="31" height="19" viewBox="0 0 31 19" fill="none" xmlns="http://www.w3.org/2000/svg">
<path d="M0 2C0 0.895431 0.89543 0 2 0H29C30.1046 0 31 0.895431 31 2V17C31 18.1046 30.1046 19 29 19H2C0.89543 19 0 18.1046 0 17V2Z" fill="white"/>
<path d="M12.9707 12.4257L13.9484 7.1748H15.476L14.5289 12.4257H12.9707Z" fill="#3C58BF"/>
<path d="M12.9707 12.4257L14.2233 7.1748H15.476L14.5289 12.4257H12.9707Z" fill="#293688"/>
<path d="M20.0585 7.23343C19.753 7.11675 19.2642 7.00006 18.6531 7.00006C17.1255 7.00006 16.0256 7.72935 16.0256 8.77952C16.0256 9.56715 16.7894 9.97555 17.4005 10.2381C18.0115 10.5006 18.1948 10.6757 18.1948 10.909C18.1948 11.2591 17.706 11.4341 17.2783 11.4341C16.6672 11.4341 16.3312 11.3466 15.8118 11.1424L15.5979 11.0549L15.384 12.2509C15.7507 12.3968 16.4228 12.5426 17.1255 12.5426C18.7448 12.5426 19.8141 11.8134 19.8141 10.7048C19.8141 10.0922 19.4169 9.62549 18.5004 9.24626C17.9504 8.98372 17.6143 8.83786 17.6143 8.57532C17.6143 8.34195 17.8893 8.10858 18.5004 8.10858C19.0197 8.10858 19.3864 8.19609 19.6613 8.31278L19.8141 8.37112L20.0585 7.23343Z" fill="#3C58BF"/>
<path d="M20.0585 7.23343C19.753 7.11675 19.2642 7.00006 18.6531 7.00006C17.1255 7.00006 16.3006 7.72935 16.3006 8.77952C16.3006 9.56715 16.7894 9.97555 17.4005 10.2381C18.0115 10.5006 18.1948 10.6757 18.1948 10.909C18.1948 11.2591 17.706 11.4341 17.2783 11.4341C16.6672 11.4341 16.3312 11.3466 15.8118 11.1424L15.5979 11.0549L15.384 12.2509C15.7507 12.3968 16.4228 12.5426 17.1255 12.5426C18.7448 12.5426 19.8141 11.8134 19.8141 10.7048C19.8141 10.0922 19.4169 9.62549 18.5004 9.24626C17.9504 8.98372 17.6143 8.83786 17.6143 8.57532C17.6143 8.34195 17.8893 8.10858 18.5004 8.10858C19.0197 8.10858 19.3864 8.19609 19.6613 8.31278L19.8141 8.37112L20.0585 7.23343Z" fill="#293688"/>
<path fill-rule="evenodd" clip-rule="evenodd" d="M21.8925 7.55403C22.0452 7.20398 22.3202 7.1748 22.6868 7.1748H23.8784L25.1616 12.4257H23.6951L23.5118 11.5505H21.5564L21.2509 12.4257H19.6011L21.8925 7.55403ZM22.5941 9.12972C22.5941 9.12972 22.0748 10.4133 21.9831 10.6758V10.705H23.2663C23.2052 10.4133 22.8997 9.10054 22.8997 9.10054L22.808 8.60463C22.7163 8.80883 22.5941 9.12972 22.5941 9.12972Z" fill="#3C58BF"/>
<path fill-rule="evenodd" clip-rule="evenodd" d="M22.2591 7.55403C22.4119 7.20398 22.6868 7.1748 23.0535 7.1748H23.8784L25.1616 12.4257H23.6951L23.5118 11.5505H21.5564L21.2509 12.4257H19.6011L22.2591 7.55403ZM22.5941 9.12972C22.5941 9.12972 22.1053 10.3841 21.9831 10.6758V10.705H23.2663C23.2052 10.4133 22.8997 9.10054 22.8997 9.10054L22.808 8.60463C22.7163 8.80883 22.5941 9.12972 22.5941 9.12972Z" fill="#293688"/>
<path d="M10.1596 10.8504L10.0068 10.092C9.73185 9.21681 8.84583 8.25415 7.86816 7.78741L9.24301 12.4548H10.8928L13.3676 7.20398H11.7177L10.1596 10.8504Z" fill="#3C58BF"/>
<path d="M10.1596 10.8504L10.0068 10.092C9.73185 9.21681 8.84583 8.25415 7.86816 7.78741L9.24301 12.4548H10.8928L13.3676 7.20398H12.0233L10.1596 10.8504Z" fill="#293688"/>
<path d="M5.91309 7.1748L6.18806 7.23315C8.14339 7.67072 9.48769 8.77924 10.0071 10.092L9.45714 7.61238C9.36548 7.26232 9.09051 7.1748 8.75444 7.1748H5.91309V7.1748Z" fill="#FFBC00"/>
<path d="M5.91309 7.1748C7.86842 7.61238 9.48769 8.75006 10.0071 10.0628L9.48769 7.99161C9.39603 7.64155 9.09051 7.43735 8.75444 7.43735L5.91309 7.1748Z" fill="#F7981D"/>
<path d="M5.91309 7.1748C7.86842 7.61238 9.48769 8.75006 10.0071 10.0628L9.64045 8.92509C9.54879 8.57503 9.42658 8.22498 8.99885 8.07912L5.91309 7.1748Z" fill="#ED7C00"/>
<path d="M11.6876 10.6761L10.6489 9.68423L10.16 10.7927L10.0378 10.0635C9.76285 9.18831 8.87684 8.22565 7.89917 7.75891L9.27402 12.4263H10.9238L11.6876 10.6761Z" fill="#051244"/>
<path d="M14.5291 12.4265L13.2154 11.1429L12.9709 12.4265H14.5291Z" fill="#051244"/>
<path d="M18.0426 10.6182C18.1648 10.7348 18.2259 10.8224 18.1953 10.9391C18.1953 11.2891 17.7065 11.4641 17.2788 11.4641C16.6677 11.4641 16.3316 11.3766 15.8123 11.1724L15.5984 11.0849L15.3845 12.2809C15.7511 12.4268 16.4233 12.5727 17.126 12.5727C18.1037 12.5727 18.898 12.3101 19.3563 11.8434L18.0426 10.6182Z" fill="#051244"/>
<path d="M19.8142 12.4272H21.2502L21.5557 11.5521H23.511L23.6943 12.4272H25.1608L24.6414 10.2977L22.8083 8.60577L22.9 9.07252C22.9 9.07252 23.2055 10.3852 23.2666 10.6769H21.9834C22.1056 10.3852 22.5945 9.13086 22.5945 9.13086C22.5945 9.13086 22.7167 8.80997 22.8083 8.60577" fill="#051244"/>
<path d="M2 1H29V-1H2V1ZM30 2V17H32V2H30ZM29 18H2V20H29V18ZM1 17V2H-1V17H1ZM2 18C1.44772 18 1 17.5523 1 17H-1C-1 18.6569 0.343146 20 2 20V18ZM30 17C30 17.5523 29.5523 18 29 18V20C30.6569 20 32 18.6569 32 17H30ZM29 1C29.5523 1 30 1.44772 30 2H32C32 0.343146 30.6569 -1 29 -1V1ZM2 -1C0.343145 -1 -1 0.343146 -1 2H1C1 1.44772 1.44772 1 2 1V-1Z" fill="#FDF1E9"/>
</svg>
