<svg width="107" height="76" viewBox="0 0 107 76" fill="none" xmlns="http://www.w3.org/2000/svg">
<path d="M13.1018 3.46191L7.02824 17.4052" stroke="#FFBC00" stroke-width="1.48377"/>
<path d="M3.09338 7.39697L17.0366 13.4705" stroke="#FFBC00" stroke-width="1.48377"/>
<path d="M82.6002 13.373L86.424 22.5447" stroke="#FFBC00" stroke-width="0.969446"/>
<path d="M79.9263 19.8711L89.0979 16.0473" stroke="#FFBC00" stroke-width="0.969446"/>
<path d="M12.1389 64.2129L7.71294 73.6388" stroke="#FFBC00" stroke-width="1.01593"/>
<path d="M5.21301 66.7129L14.6389 71.1389" stroke="#FFBC00" stroke-width="1.01593"/>
<path d="M101.945 48.082L97.7803 57.6426" stroke="#FFBC00" stroke-width="1.01739"/>
<path d="M95.0823 50.7803L104.643 54.9448" stroke="#FFBC00" stroke-width="1.01739"/>
<path d="M49.2107 34.4165H53.794V45.8748H49.2107V34.4165ZM49.2084 48.1665H53.7917V52.7498H49.2084V48.1665Z" fill="#FFBC00"/>
<path d="M55.5516 21.1256C54.7541 19.6246 53.2003 18.6919 51.4999 18.6919C49.7995 18.6919 48.2458 19.6246 47.4483 21.1279L30.632 52.8973C30.2589 53.595 30.074 54.3778 30.0957 55.1687C30.1174 55.9596 30.3449 56.7312 30.7558 57.4073C31.1607 58.0865 31.7358 58.6484 32.4242 59.0374C33.1126 59.4264 33.8906 59.6292 34.6814 59.6256H68.3185C69.941 59.6256 71.4099 58.7961 72.2464 57.4073C72.6566 56.7309 72.8837 55.9594 72.9054 55.1687C72.9271 54.3779 72.7426 53.5952 72.3701 52.8973L55.5516 21.1256ZM34.6814 55.0423L51.4999 23.2729L68.3299 55.0423H34.6814Z" fill="#FFBC00"/>
</svg>
