<svg xmlns="http://www.w3.org/2000/svg" xmlns:xlink="http://www.w3.org/1999/xlink" viewBox="-5366 -304.495 79 41">
  <defs>
    <style>
      .cls-1 {
        fill: #fff;
        opacity: 0.08;
      }

      .cls-2, .cls-3 {
        fill: #f5f5f5;
      }

      .cls-2 {
        font-size: 18px;
        font-family: SourceSansPro-Semibold, Source Sans Pro;
        font-weight: 600;
        opacity: 0.85;
      }

      .cls-3 {
        opacity: 0.9;
      }

      .cls-4 {
        filter: url(#ADD);
      }
    </style>
    <filter id="ADD" x="-5339" y="-304.495" width="51" height="41" filterUnits="userSpaceOnUse">
      <feOffset dy="2" input="SourceAlpha"/>
      <feGaussianBlur stdDeviation="3" result="blur"/>
      <feFlood flood-opacity="0.051"/>
      <feComposite operator="in" in2="blur"/>
      <feComposite in="SourceGraphic"/>
    </filter>
  </defs>
  <g id="Group_2901" data-name="Group 2901" transform="translate(-6917 -564.601)">
    <rect id="Rectangle_2084" data-name="Rectangle 2084" class="cls-1" width="79" height="32" rx="16" transform="translate(1551 263)"/>
    <g class="cls-4" transform="matrix(1, 0, 0, 1, 6917, 564.6)">
      <text id="ADD-2" data-name="ADD" class="cls-2" transform="translate(-5297 -279.5)"><tspan x="-32.544" y="0">ADD</tspan></text>
    </g>
    <g id="Group_2625" data-name="Group 2625" transform="translate(19249.928 -4195.9) rotate(45)">
      <path id="Path_1860" data-name="Path 1860" class="cls-3" d="M.958,0A.959.959,0,0,0,0,.958v11.5a.958.958,0,0,0,1.916,0V.958A.959.959,0,0,0,.958,0Z" transform="translate(-9333.522 15660.66) rotate(45)"/>
      <path id="Path_1861" data-name="Path 1861" class="cls-3" d="M12.455,0H.958a.958.958,0,0,0,0,1.916h11.5a.958.958,0,0,0,0-1.916Z" transform="translate(-9341.652 15660.66) rotate(45)"/>
    </g>
  </g>
</svg>
