<svg xmlns="http://www.w3.org/2000/svg" xmlns:xlink="http://www.w3.org/1999/xlink" viewBox="-5812 2311 151 43.105">
  <defs>
    <style>
      .cls-1 {
        fill: #151515;
      }

      .cls-1, .cls-2 {
        opacity: 0.8;
      }

      .cls-2, .cls-4 {
        fill: #f5f5f5;
      }

      .cls-2 {
        font-size: 18px;
        font-family: SourceSansPro-Semibold, Source Sans Pro;
        font-weight: 600;
      }

      .cls-3 {
        opacity: 0;
      }

      .cls-5 {
        fill: #fff;
      }

      .cls-6 {
        fill: #e7e7e7;
        opacity: 0.9;
      }

      .cls-7 {
        fill: #c4702e;
      }

      .cls-8 {
        filter: url(#ADD_CARD);
      }
    </style>
    <filter id="ADD_CARD" x="-5770" y="2313.105" width="97" height="41" filterUnits="userSpaceOnUse">
      <feOffset dy="2" input="SourceAlpha"/>
      <feGaussianBlur stdDeviation="3" result="blur"/>
      <feFlood flood-opacity="0.051"/>
      <feComposite operator="in" in2="blur"/>
      <feComposite in="SourceGraphic"/>
    </filter>
  </defs>
  <g id="addCard" transform="translate(-6035 1927)">
    <rect id="Rectangle_2084" data-name="Rectangle 2084" class="cls-1" width="151" height="42" rx="21" transform="translate(223 384)"/>
    <g class="cls-8" transform="matrix(1, 0, 0, 1, 6035, -1927)">
      <text id="ADD_CARD-2" data-name="ADD CARD" class="cls-2" transform="translate(-5682 2338.11)"><tspan x="-78.462" y="0">ADD CARD</tspan></text>
    </g>
    <g id="Group_2625" data-name="Group 2625" class="cls-3" transform="translate(18013.928 -4074.901) rotate(45)">
      <path id="Path_1860" data-name="Path 1860" class="cls-4" d="M.958,0A.959.959,0,0,0,0,.958v11.5a.958.958,0,0,0,1.916,0V.958A.959.959,0,0,0,.958,0Z" transform="translate(-9333.522 15660.66) rotate(45)"/>
      <path id="Path_1861" data-name="Path 1861" class="cls-4" d="M12.455,0H.958a.958.958,0,0,0,0,1.916h11.5a.958.958,0,0,0,0-1.916Z" transform="translate(-9341.652 15660.66) rotate(45)"/>
    </g>
    <g id="credit-cards_1_" data-name="credit-cards (1)" transform="translate(243.71 394.487)">
      <g id="Group_1149" data-name="Group 1149" transform="translate(0 3.607)">
        <g id="Group_2388" data-name="Group 2388" transform="translate(1.993 8.144)">
          <path id="Path_1051" data-name="Path 1051" class="cls-5" d="M44.385,25.611V25.1l-.3.511Z" transform="translate(-29.26 -25.044)"/>
          <path id="Path_1052" data-name="Path 1052" class="cls-5" d="M17.532,25.1l-.3.511h.3Z" transform="translate(-12.653 -25.044)"/>
          <path id="Path_1053" data-name="Path 1053" class="cls-5" d="M22.6,26.423a.243.243,0,0,0,.044-.152.227.227,0,0,0-.051-.159.162.162,0,0,0-.124-.055.165.165,0,0,0-.105.036.2.2,0,0,0-.069.172.232.232,0,0,0,.052.156.165.165,0,0,0,.131.061A.147.147,0,0,0,22.6,26.423Z" transform="translate(-15.784 -25.636)"/>
          <path id="Path_1054" data-name="Path 1054" class="cls-5" d="M8.784,34.121a.212.212,0,0,0,.124-.039.161.161,0,0,0,.058-.141v-.076a.24.24,0,0,1-.04.02.366.366,0,0,1-.055.014l-.047.009a.3.3,0,0,0-.095.028.094.094,0,0,0-.048.087.09.09,0,0,0,.029.075A.114.114,0,0,0,8.784,34.121Z" transform="translate(-7.362 -30.465)"/>
          <path id="Path_1055" data-name="Path 1055" class="cls-5" d="M29.793,26.569a.165.165,0,0,0,.126-.048.227.227,0,0,0,0-.274.189.189,0,0,0-.25,0,.188.188,0,0,0-.046.138.191.191,0,0,0,.045.136A.165.165,0,0,0,29.793,26.569Z" transform="translate(-20.313 -25.724)"/>
          <path id="Path_1056" data-name="Path 1056" class="cls-5" d="M14.422,33.2a.162.162,0,0,0-.122.044.212.212,0,0,0-.054.121H14.6a.17.17,0,0,0-.054-.124A.181.181,0,0,0,14.422,33.2Z" transform="translate(-10.803 -30.053)"/>
          <path id="Path_1057" data-name="Path 1057" class="cls-5" d="M32.232,24.962a.162.162,0,0,0-.1.033.213.213,0,0,0-.067.178.248.248,0,0,0,.043.158.178.178,0,0,0,.222.025.192.192,0,0,0,.079-.176.249.249,0,0,0-.047-.159A.156.156,0,0,0,32.232,24.962Z" transform="translate(-21.822 -24.959)"/>
          <path id="Path_1058" data-name="Path 1058" class="cls-5" d="M29.826,25.25a.144.144,0,0,0,.11-.041.149.149,0,0,0,.039-.106.153.153,0,0,0-.039-.11.173.173,0,0,0-.221,0,.149.149,0,0,0-.04.11.139.139,0,0,0,.15.147Z" transform="translate(-20.346 -24.953)"/>
          <path id="Path_1059" data-name="Path 1059" class="cls-5" d="M21.026,33.908a.291.291,0,0,0-.094.028.094.094,0,0,0-.048.087.09.09,0,0,0,.029.075.112.112,0,0,0,.072.024.211.211,0,0,0,.124-.039.161.161,0,0,0,.058-.141v-.076a.214.214,0,0,1-.04.02.367.367,0,0,1-.055.014Z" transform="translate(-14.909 -30.465)"/>
          <path id="Path_1060" data-name="Path 1060" class="cls-5" d="M30.016,33.908a.285.285,0,0,0-.094.028.094.094,0,0,0-.048.087.09.09,0,0,0,.029.075.112.112,0,0,0,.072.024.212.212,0,0,0,.124-.039.161.161,0,0,0,.058-.141v-.076a.227.227,0,0,1-.04.02.367.367,0,0,1-.055.014Z" transform="translate(-20.468 -30.465)"/>
          <path id="Path_1061" data-name="Path 1061" class="cls-5" d="M35.49,33.243a.212.212,0,0,0-.055.121h.352a.172.172,0,0,0-.055-.124.18.18,0,0,0-.121-.042A.161.161,0,0,0,35.49,33.243Z" transform="translate(-23.908 -30.053)"/>
          <path id="Path_1062" data-name="Path 1062" class="cls-5" d="M49.335,26.482a.146.146,0,0,0,.122-.058.24.24,0,0,0,.045-.152.227.227,0,0,0-.051-.159.161.161,0,0,0-.124-.055.163.163,0,0,0-.1.036.2.2,0,0,0-.069.172.23.23,0,0,0,.051.156A.165.165,0,0,0,49.335,26.482Z" transform="translate(-32.392 -25.636)"/>
          <path id="Path_1063" data-name="Path 1063" class="cls-5" d="M5.256,25.693a.135.135,0,0,0,.137.109.134.134,0,0,0,.136-.109,1.087,1.087,0,0,0,.031-.262c0-.018,0-.032,0-.051a1.155,1.155,0,0,0-.032-.317.132.132,0,0,0-.136-.1.133.133,0,0,0-.137.1,1.087,1.087,0,0,0-.034.317,1.634,1.634,0,0,0,.009.185A.567.567,0,0,0,5.256,25.693Z" transform="translate(-5.223 -24.957)"/>
        </g>
        <path id="Path_1064" data-name="Path 1064" class="cls-6" d="M.83,17.079a1.414,1.414,0,0,0,.606.14h18.4a1.421,1.421,0,0,0,1-.411,1.46,1.46,0,0,0,.439-1.044V5.062a1.459,1.459,0,0,0-.439-1.044,1.423,1.423,0,0,0-1-.412H1.437A1.448,1.448,0,0,0,0,5.062v10.7A1.456,1.456,0,0,0,.83,17.079Zm.923-4.9a.924.924,0,0,1,.091-.453.334.334,0,0,1,.318-.159.335.335,0,0,1,.318.159.885.885,0,0,1,.087.406c0,.016,0,.029,0,.047a.919.919,0,0,1-.091.452.336.336,0,0,1-.318.159.335.335,0,0,1-.318-.159.639.639,0,0,1-.063-.178A1.257,1.257,0,0,1,1.754,12.175ZM12.872,7.424a1.955,1.955,0,0,1,3.1-1.589,1.957,1.957,0,0,1,3.168,1.52A1.957,1.957,0,0,1,17.189,9.31a1.936,1.936,0,0,1-1.131-.366A1.957,1.957,0,0,1,12.937,7.9,1.909,1.909,0,0,1,12.872,7.424ZM12.5,14.965a.1.1,0,0,0-.1-.056.121.121,0,0,0-.118.056.219.219,0,0,0-.016.1v.47H12.06v-.781h.2v.114a.327.327,0,0,1,.072-.087.284.284,0,0,1,.3-.007.228.228,0,0,1,.067.094.264.264,0,0,1,.1-.1.3.3,0,0,1,.141-.032.28.28,0,0,1,.1.02.228.228,0,0,1,.091.071.219.219,0,0,1,.044.1.669.669,0,0,1,.007.116l0,.493h-.209v-.5a.163.163,0,0,0-.015-.073.1.1,0,0,0-.1-.055.118.118,0,0,0-.118.071.225.225,0,0,0-.016.089v.466h-.206v-.466A.252.252,0,0,0,12.5,14.965Zm.016-2.638a.31.31,0,0,1-.161.039.366.366,0,0,1-.251-.1.357.357,0,0,1-.11-.282.434.434,0,0,1,.11-.309.407.407,0,0,1,.657.121.927.927,0,0,1,.057.358,1,1,0,0,1-.055.359.384.384,0,0,1-.384.274.39.39,0,0,1-.24-.079.312.312,0,0,1-.122-.23h.232a.145.145,0,0,0,.044.085.135.135,0,0,0,.1.032.166.166,0,0,0,.161-.128.727.727,0,0,0,.032-.205A.218.218,0,0,1,12.519,12.327ZM11.125,12a.357.357,0,0,1-.026-.125.292.292,0,0,1,.1-.221.463.463,0,0,1,.551,0,.29.29,0,0,1,.1.221.35.35,0,0,1-.026.125.238.238,0,0,1-.112.116.331.331,0,0,1,.132.13.373.373,0,0,1,.045.181.337.337,0,0,1-.111.255.433.433,0,0,1-.31.1.4.4,0,0,1-.3-.1.351.351,0,0,1-.1-.255.366.366,0,0,1,.045-.181.285.285,0,0,1,.132-.122A.275.275,0,0,1,11.125,12Zm.523,2.913a.215.215,0,0,0-.1-.019.13.13,0,0,0-.1.036.145.145,0,0,0-.029.072h-.2a.3.3,0,0,1,.058-.168.336.336,0,0,1,.279-.1.506.506,0,0,1,.229.051.2.2,0,0,1,.1.193v.359c0,.024,0,.055,0,.09a.12.12,0,0,0,.012.055.08.08,0,0,0,.031.024v.03h-.222a.2.2,0,0,1-.013-.045.46.46,0,0,1-.006-.047.416.416,0,0,1-.1.078.294.294,0,0,1-.15.039.261.261,0,0,1-.176-.06.215.215,0,0,1-.07-.172.223.223,0,0,1,.112-.209.5.5,0,0,1,.181-.05l.07-.008a.355.355,0,0,0,.082-.018.061.061,0,0,0,.044-.058A.071.071,0,0,0,11.649,14.914Zm-.818.048a.115.115,0,0,0-.113-.06.142.142,0,0,0-.142.088.3.3,0,0,0-.02.119v.423h-.2v-.781h.2v.114a.341.341,0,0,1,.074-.087.257.257,0,0,1,.159-.047.3.3,0,0,1,.2.064.257.257,0,0,1,.077.21v.527h-.209v-.475A.212.212,0,0,0,10.83,14.961Zm-1.136.414a.135.135,0,0,0,.075.011h.02l.021,0v.153l-.1,0a.264.264,0,0,1-.2-.05.151.151,0,0,1-.035-.109V14.9H9.371v-.145h.109v-.219h.2v.219H9.81V14.9H9.683v.414C9.682,15.348,9.686,15.368,9.695,15.376Zm.04-3.151a1.657,1.657,0,0,0-.09.27,1.121,1.121,0,0,0-.04.262H9.362a1.43,1.43,0,0,1,.209-.664,1.581,1.581,0,0,1,.215-.3H9.2l0-.209h.837v.183a1.417,1.417,0,0,0-.146.184A1.547,1.547,0,0,0,9.735,12.225ZM6.4,12.5v-.2l.436-.72H7.1v.741h.134V12.5H7.1v.255H6.872V12.5Zm.533,1.973h.221v.867h.528v.19H6.936ZM7.455,12.7a.354.354,0,0,1-.121-.258h.232a.225.225,0,0,0,.053.117.149.149,0,0,0,.114.041.155.155,0,0,0,.132-.061.246.246,0,0,0,.045-.153.271.271,0,0,0-.042-.153.149.149,0,0,0-.132-.063.224.224,0,0,0-.074.011.147.147,0,0,0-.083.072l-.209-.01.083-.655h.652v.2H7.621l-.042.259A.443.443,0,0,1,7.663,12a.353.353,0,0,1,.123-.019.357.357,0,0,1,.366.387.456.456,0,0,1-.105.294.382.382,0,0,1-.316.129A.411.411,0,0,1,7.455,12.7Zm.763,2.218a.214.214,0,0,0-.1-.019.132.132,0,0,0-.1.036A.142.142,0,0,0,7.986,15h-.2a.3.3,0,0,1,.058-.168.337.337,0,0,1,.279-.1.506.506,0,0,1,.229.051.2.2,0,0,1,.1.193v.359c0,.024,0,.055,0,.09a.12.12,0,0,0,.012.055A.08.08,0,0,0,8.5,15.5v.03H8.278a.26.26,0,0,1-.013-.045.469.469,0,0,1-.005-.047.416.416,0,0,1-.1.078.3.3,0,0,1-.15.039.263.263,0,0,1-.177-.06.215.215,0,0,1-.069-.172.223.223,0,0,1,.112-.209.5.5,0,0,1,.181-.05l.07-.008a.346.346,0,0,0,.082-.018.065.065,0,0,0,.043-.059A.071.071,0,0,0,8.219,14.914ZM8.357,12.6a.761.761,0,0,1-.083-.378A1.723,1.723,0,0,1,8.285,12a.677.677,0,0,1,.079-.252A.4.4,0,0,1,8.5,11.61a.356.356,0,0,1,.2-.053.39.39,0,0,1,.264.085.322.322,0,0,1,.111.225H8.837a.115.115,0,0,0-.023-.063.128.128,0,0,0-.114-.056.167.167,0,0,0-.162.127.8.8,0,0,0-.036.208.261.261,0,0,1,.1-.075.335.335,0,0,1,.131-.024.34.34,0,0,1,.259.107.385.385,0,0,1,.1.274.462.462,0,0,1-.1.293.366.366,0,0,1-.308.127A.354.354,0,0,1,8.357,12.6Zm.709,2.677a1.173,1.173,0,0,0-.214-.061.452.452,0,0,1-.187-.083.18.18,0,0,1-.055-.14.244.244,0,0,1,.085-.187.343.343,0,0,1,.24-.078.437.437,0,0,1,.239.059.249.249,0,0,1,.106.2h-.2a.122.122,0,0,0-.022-.062.142.142,0,0,0-.115-.041.171.171,0,0,0-.1.021.061.061,0,0,0-.029.049.053.053,0,0,0,.03.051,1.3,1.3,0,0,0,.213.056.387.387,0,0,1,.183.087.2.2,0,0,1,.061.147.238.238,0,0,1-.087.19.409.409,0,0,1-.268.073.4.4,0,0,1-.273-.078.253.253,0,0,1-.088-.2h.208a.136.136,0,0,0,.028.077.188.188,0,0,0,.142.041.217.217,0,0,0,.1-.018.057.057,0,0,0,.036-.054A.058.058,0,0,0,9.065,15.276Zm-3.554.087a.21.21,0,0,0,.113.029.173.173,0,0,0,.114-.036A.163.163,0,0,0,5.78,15.3h.209a.256.256,0,0,1-.076.142.38.38,0,0,1-.294.114.426.426,0,0,1-.275-.1.379.379,0,0,1-.119-.313.423.423,0,0,1,.108-.312.378.378,0,0,1,.28-.108.446.446,0,0,1,.184.037.31.31,0,0,1,.135.116.393.393,0,0,1,.063.161A.965.965,0,0,1,6,15.2H5.43A.188.188,0,0,0,5.512,15.363Zm-.189-3.475a.261.261,0,0,1-.062.177.211.211,0,0,1-.082.061.164.164,0,0,1,.091.055.292.292,0,0,1,.089.226.382.382,0,0,1-.1.265.4.4,0,0,1-.308.114.374.374,0,0,1-.35-.164.489.489,0,0,1-.057-.229h.229a.271.271,0,0,0,.023.118.157.157,0,0,0,.155.086.171.171,0,0,0,.119-.047.175.175,0,0,0,.051-.135.152.152,0,0,0-.095-.156.475.475,0,0,0-.17-.023v-.167a.428.428,0,0,0,.158-.023.123.123,0,0,0,.065-.084.173.173,0,0,0,.013-.056.158.158,0,0,0-.039-.11.146.146,0,0,0-.111-.043.141.141,0,0,0-.121.053.219.219,0,0,0-.037.14H4.561a.576.576,0,0,1,.031-.167.38.38,0,0,1,.09-.129.317.317,0,0,1,.108-.064.466.466,0,0,1,.155-.022.412.412,0,0,1,.274.088.289.289,0,0,1,.1.211A.21.21,0,0,1,5.323,11.888Zm-.451,3.073a.1.1,0,0,0-.1-.055.117.117,0,0,0-.117.071.218.218,0,0,0-.017.089v.466H4.432v-.466a.259.259,0,0,0-.014-.1.1.1,0,0,0-.1-.056.122.122,0,0,0-.118.056.219.219,0,0,0-.016.1v.47H3.975v-.781h.2v.114a.326.326,0,0,1,.072-.087.246.246,0,0,1,.154-.046.241.241,0,0,1,.145.039.221.221,0,0,1,.067.094.268.268,0,0,1,.1-.1.3.3,0,0,1,.141-.032.278.278,0,0,1,.1.02.231.231,0,0,1,.091.071.223.223,0,0,1,.044.1.669.669,0,0,1,.007.116l0,.493H4.886v-.5A.151.151,0,0,0,4.872,14.961Zm9.521-3.149a.169.169,0,0,0-.264.029.4.4,0,0,0-.026.145h-.227a.572.572,0,0,1,.055-.245.341.341,0,0,1,.331-.177.42.42,0,0,1,.3.1.361.361,0,0,1,.111.276.376.376,0,0,1-.079.234.8.8,0,0,1-.17.151l-.093.066c-.058.041-.1.072-.12.09a.271.271,0,0,0-.055.065h.518v.206h-.812a.552.552,0,0,1,.054-.233.659.659,0,0,1,.236-.251,1.724,1.724,0,0,0,.209-.166.245.245,0,0,0,.072-.17A.19.19,0,0,0,14.393,11.811Zm-.513,2.955a.306.306,0,0,1,.135.116.388.388,0,0,1,.063.161.938.938,0,0,1,.006.156h-.57a.188.188,0,0,0,.082.165.209.209,0,0,0,.113.029.173.173,0,0,0,.114-.036.168.168,0,0,0,.042-.055h.208a.257.257,0,0,1-.076.142.381.381,0,0,1-.294.114.427.427,0,0,1-.275-.1.379.379,0,0,1-.119-.313.424.424,0,0,1,.108-.312.379.379,0,0,1,.28-.108A.433.433,0,0,1,13.88,14.766Zm-.367-2.01h-.239v-.818H13v-.159a.991.991,0,0,0,.154-.015.215.215,0,0,0,.114-.062.2.2,0,0,0,.046-.085.188.188,0,0,0,.009-.047h.195Zm2.686-.5a.475.475,0,0,0-.17-.023v-.167a.429.429,0,0,0,.158-.023.137.137,0,0,0,.078-.139.156.156,0,0,0-.04-.11.145.145,0,0,0-.111-.043.14.14,0,0,0-.121.053.221.221,0,0,0-.037.14H15.74a.564.564,0,0,1,.03-.167.38.38,0,0,1,.09-.129.317.317,0,0,1,.108-.064.465.465,0,0,1,.154-.022.416.416,0,0,1,.275.088.293.293,0,0,1,.1.236.263.263,0,0,1-.062.177.208.208,0,0,1-.082.061.168.168,0,0,1,.092.055.293.293,0,0,1,.089.226.381.381,0,0,1-.1.264.4.4,0,0,1-.309.114.372.372,0,0,1-.349-.165.478.478,0,0,1-.057-.229h.229a.262.262,0,0,0,.023.118.156.156,0,0,0,.154.086.171.171,0,0,0,.119-.047.175.175,0,0,0,.051-.135A.154.154,0,0,0,16.2,12.257Zm1.281.061V12.5h-.135v.255h-.228V12.5h-.469v-.2l.436-.72h.263v.741Zm.634-.089a.148.148,0,0,0-.132-.063.22.22,0,0,0-.073.011.148.148,0,0,0-.083.072l-.209-.01.083-.655h.653v.2h-.485l-.042.259A.454.454,0,0,1,17.91,12a.356.356,0,0,1,.123-.019.357.357,0,0,1,.366.387.455.455,0,0,1-.1.294.381.381,0,0,1-.316.129.419.419,0,0,1-.278-.09.354.354,0,0,1-.121-.258h.232a.222.222,0,0,0,.053.117.151.151,0,0,0,.114.041.156.156,0,0,0,.132-.061.253.253,0,0,0,.045-.153A.258.258,0,0,0,18.115,12.229Zm1.2-.361h-.232a.118.118,0,0,0-.023-.063.128.128,0,0,0-.114-.056.168.168,0,0,0-.162.127.8.8,0,0,0-.036.208.257.257,0,0,1,.1-.075.366.366,0,0,1,.39.084.385.385,0,0,1,.1.274.463.463,0,0,1-.1.293.366.366,0,0,1-.308.127.353.353,0,0,1-.33-.187.756.756,0,0,1-.083-.378A1.8,1.8,0,0,1,18.532,12a.672.672,0,0,1,.079-.252.405.405,0,0,1,.133-.138.356.356,0,0,1,.2-.053.389.389,0,0,1,.263.085A.327.327,0,0,1,19.315,11.869Zm-15.3-.3a.42.42,0,0,1,.3.1.36.36,0,0,1,.111.276.373.373,0,0,1-.079.234.772.772,0,0,1-.167.149l0,0-.093.066c-.058.041-.1.072-.12.09a.271.271,0,0,0-.055.065h.518v.206H3.617a.563.563,0,0,1,.049-.218s0-.01.005-.015a.654.654,0,0,1,.236-.251,1.649,1.649,0,0,0,.208-.166.244.244,0,0,0,.073-.17.19.19,0,0,0-.042-.125.169.169,0,0,0-.264.029.385.385,0,0,0-.026.145H3.63a.572.572,0,0,1,.055-.245.308.308,0,0,1,.113-.116A.363.363,0,0,1,3.87,11.6.436.436,0,0,1,4.017,11.564Zm-1.7,3.968H2.114V14.474h.232l.42.738v-.738h.206v1.058H2.75l-.43-.75v.75Zm.709-2.776v-.818H2.749v-.159a1,1,0,0,0,.154-.015.215.215,0,0,0,.114-.062.2.2,0,0,0,.045-.085.193.193,0,0,0,.009-.047h.195v1.186H3.028ZM2.262,9.05V8.3H3.02v.772H2.264C2.264,9.061,2.262,9.056,2.262,9.05Zm.758,1.009a1.06,1.06,0,0,1-.672-.594H3.02Zm.4-.594h.655v.643H3.417Zm1.052,0h.673a1.061,1.061,0,0,1-.673.594V9.464Zm.758-.414c0,.006,0,.011,0,.017H4.47V8.3h.757V9.05ZM4.271,7.9h-.2V9.067H3.417V7.142h.753A1.055,1.055,0,0,1,5.178,7.9H4.271ZM3.02,7.9H2.311a1.055,1.055,0,0,1,.709-.707Zm.2,7.217a.5.5,0,0,1,.181-.05l.07-.009a.315.315,0,0,0,.082-.018.062.062,0,0,0,.044-.058.069.069,0,0,0-.034-.067.214.214,0,0,0-.1-.019.132.132,0,0,0-.1.036A.145.145,0,0,0,3.332,15h-.2a.3.3,0,0,1,.058-.168.337.337,0,0,1,.279-.1.506.506,0,0,1,.229.051.2.2,0,0,1,.1.193v.359c0,.024,0,.055,0,.09a.114.114,0,0,0,.012.055.079.079,0,0,0,.03.024v.03H3.622a.2.2,0,0,1-.013-.045c0-.014,0-.029-.006-.047a.416.416,0,0,1-.1.078.3.3,0,0,1-.15.039.263.263,0,0,1-.177-.06.215.215,0,0,1-.069-.172A.221.221,0,0,1,3.221,15.115Z" transform="translate(0 -3.607)"/>
        <path id="Path_1065" data-name="Path 1065" class="cls-7" d="M35.18,12.107a1.544,1.544,0,0,0,2.061.247H37.9s.008-.009.013-.013a1.708,1.708,0,0,0,.287-.288H37.053a2.1,2.1,0,0,1-.126-.233h1.42a1.706,1.706,0,0,0,.126-.3H36.822c-.006-.024-.016-.047-.022-.072a1.647,1.647,0,0,1-.029-.189h1.761a1.725,1.725,0,0,0,.024-.237c0-.022-.006-.043-.007-.065h-1.8a1.971,1.971,0,0,1,.026-.253h1.746a1.73,1.73,0,0,0-.089-.3H36.851a1.973,1.973,0,0,1,.106-.261H38.3c-.028-.045-.065-.084-.1-.126a1.584,1.584,0,0,0-.134-.176h-.929c.018-.024.038-.046.056-.069a1.561,1.561,0,0,0-2.419,1.307,1.543,1.543,0,0,0,.4,1.032Z" transform="translate(-21.511 -7.258)"/>
      </g>
    </g>
  </g>
</svg>
