<svg xmlns="http://www.w3.org/2000/svg" viewBox="-8644 -228.161 108.512 36.734">
  <defs>
    <style>
      .cls-1 {
        fill: #1d1d1d;
      }

      .cls-2 {
        opacity: 0.5;
      }

      .cls-3 {
        fill: #e7e7e7;
        opacity: 0.7;
      }
    </style>
  </defs>
  <g id="Group_1870" data-name="Group 1870" transform="translate(-8644 -228.161)">
    <g id="available-on-the-app-store" transform="translate(0 0)">
      <g id="Artboard-1" transform="translate(0)">
        <g id="App-Store">
          <path id="background" class="cls-1" d="M4.3,0H104A4.412,4.412,0,0,1,108.4,4.408V32.326A4.412,4.412,0,0,1,104,36.734H4.3A4.412,4.412,0,0,1-.108,32.326V4.408A4.412,4.412,0,0,1,4.3,0Z" transform="translate(0.108)"/>
          <g id="icon" class="cls-2" transform="translate(9.623 6.465)">
            <path id="Fill-2" class="cls-3" d="M14.127,13.4a4.737,4.737,0,0,1,2.248-3.967,4.873,4.873,0,0,0-3.813-2.064c-1.6-.169-3.159.962-3.975.962s-2.094-.94-3.446-.918A5.066,5.066,0,0,0,.873,10.018c-1.844,3.2-.47,7.9,1.3,10.484.889,1.264,1.918,2.682,3.277,2.63,1.322-.051,1.822-.845,3.416-.845s2.05.845,3.431.815c1.425-.022,2.314-1.271,3.174-2.549A10.363,10.363,0,0,0,16.919,17.6a4.582,4.582,0,0,1-2.792-4.2" transform="translate(0.002 -2.334)"/>
            <path id="Fill-3" class="cls-3" d="M15.43,3.335A4.661,4.661,0,0,0,16.5,0a4.726,4.726,0,0,0-3.064,1.587A4.469,4.469,0,0,0,12.337,4.8,3.915,3.915,0,0,0,15.43,3.335" transform="translate(-3.909)"/>
          </g>
          <g id="Group_1723" data-name="Group 1723" class="cls-2" transform="translate(33.788 16.075)">
            <path id="Fill-4" class="cls-3" d="M9.143,11.163H7.292L6.278,7.975H2.752l-.962,3.188h-1.8L3.479.312h2.16l3.5,10.851ZM5.977,6.638,5.059,3.809c-.1-.294-.279-.97-.544-2.042H4.478c-.11.463-.279,1.146-.514,2.042l-.9,2.829Z" transform="translate(0.011 -0.158)"/>
            <path id="Fill-5" class="cls-3" d="M23.039,8.493a4.407,4.407,0,0,1-1.087,3.152,3.167,3.167,0,0,1-2.41,1.029,2.413,2.413,0,0,1-2.233-1.109V15.67H15.568V7.244c0-.838-.022-1.69-.066-2.571H17.03l.1,1.242h.029A3.085,3.085,0,0,1,22.1,5.605a4.256,4.256,0,0,1,.94,2.887Zm-1.771.059a3.194,3.194,0,0,0-.514-1.881A1.781,1.781,0,0,0,19.241,5.9a1.846,1.846,0,0,0-1.168.426,1.967,1.967,0,0,0-.683,1.117,2.379,2.379,0,0,0-.081.529V9.279a2.1,2.1,0,0,0,.522,1.44,1.736,1.736,0,0,0,1.359.588,1.794,1.794,0,0,0,1.528-.757A3.319,3.319,0,0,0,21.269,8.551Z" transform="translate(-4.915 -1.491)"/>
            <path id="Fill-6" class="cls-3" d="M36.216,8.493a4.407,4.407,0,0,1-1.087,3.152,3.167,3.167,0,0,1-2.41,1.029,2.413,2.413,0,0,1-2.233-1.109V15.67H28.744V7.244c0-.838-.022-1.69-.066-2.571h1.528l.1,1.242h.029a3.085,3.085,0,0,1,4.944-.309A4.256,4.256,0,0,1,36.216,8.493Zm-1.771.059a3.194,3.194,0,0,0-.514-1.881A1.781,1.781,0,0,0,32.418,5.9a1.846,1.846,0,0,0-1.168.426,2.007,2.007,0,0,0-.683,1.117,2.379,2.379,0,0,0-.081.529V9.279a2.1,2.1,0,0,0,.522,1.44,1.736,1.736,0,0,0,1.359.588,1.785,1.785,0,0,0,1.528-.757A3.269,3.269,0,0,0,34.445,8.551Z" transform="translate(-9.099 -1.491)"/>
            <path id="Fill-7" class="cls-3" d="M51.343,8.05a2.905,2.905,0,0,1-.962,2.255,4.272,4.272,0,0,1-2.953.948,5.168,5.168,0,0,1-2.806-.676l.4-1.447a4.88,4.88,0,0,0,2.513.676,2.366,2.366,0,0,0,1.528-.441,1.44,1.44,0,0,0,.551-1.183,1.53,1.53,0,0,0-.448-1.109,4.2,4.2,0,0,0-1.5-.838C45.753,5.523,44.8,4.487,44.8,3.128A2.756,2.756,0,0,1,45.811.938,3.992,3.992,0,0,1,48.478.086,5.243,5.243,0,0,1,50.939.6L50.5,2.011a4.336,4.336,0,0,0-2.086-.5,2.165,2.165,0,0,0-1.44.448,1.3,1.3,0,0,0-.433.984A1.319,1.319,0,0,0,47.038,4a5.605,5.605,0,0,0,1.58.838,5.3,5.3,0,0,1,2.057,1.322,2.749,2.749,0,0,1,.669,1.888" transform="translate(-14.162 -0.086)"/>
            <path id="Fill-8" class="cls-3" d="M60.7,5.149H58.778v3.8c0,.962.338,1.447,1.014,1.447a3.225,3.225,0,0,0,.771-.081l.051,1.322a4.032,4.032,0,0,1-1.352.191,2.081,2.081,0,0,1-1.609-.632,3.067,3.067,0,0,1-.58-2.109V5.142H55.935v-1.3h1.139V2.409l1.7-.514V3.842H60.7V5.149" transform="translate(-17.754 -0.66)"/>
            <path id="Fill-9" class="cls-3" d="M71.984,8.525a4.3,4.3,0,0,1-1.029,2.961,3.682,3.682,0,0,1-2.865,1.19,3.526,3.526,0,0,1-2.748-1.139,4.136,4.136,0,0,1-1.021-2.88,4.267,4.267,0,0,1,1.051-2.975,3.666,3.666,0,0,1,2.843-1.161,3.575,3.575,0,0,1,2.77,1.146,4.084,4.084,0,0,1,1,2.858Zm-1.8.037a3.506,3.506,0,0,0-.463-1.844,1.8,1.8,0,0,0-3.159,0A3.519,3.519,0,0,0,66.1,8.6a3.488,3.488,0,0,0,.463,1.844,1.784,1.784,0,0,0,3.144-.015A3.56,3.56,0,0,0,70.184,8.562Z" transform="translate(-20.417 -1.494)"/>
            <path id="Fill-10" class="cls-3" d="M81.886,6.2a3.221,3.221,0,0,0-.551-.044,1.64,1.64,0,0,0-1.418.691,2.621,2.621,0,0,0-.433,1.543V12.5H77.743V7.133c0-.9-.015-1.726-.051-2.461H79.2l.066,1.5h.051a2.667,2.667,0,0,1,.867-1.242,2.115,2.115,0,0,1,1.256-.419,3.659,3.659,0,0,1,.433.029l.007,1.66" transform="translate(-24.663 -1.491)"/>
            <path id="Fill-11" class="cls-3" d="M91.991,8.2a3.973,3.973,0,0,1-.066.786H86.708a2.268,2.268,0,0,0,.757,1.771,2.6,2.6,0,0,0,1.7.544,5.853,5.853,0,0,0,2.109-.367l.272,1.2a6.528,6.528,0,0,1-2.623.485,3.8,3.8,0,0,1-2.858-1.073,3.96,3.96,0,0,1-1.036-2.873A4.489,4.489,0,0,1,86,5.735a3.329,3.329,0,0,1,2.733-1.256,2.9,2.9,0,0,1,2.557,1.256,4.249,4.249,0,0,1,.7,2.469Zm-1.66-.448a2.343,2.343,0,0,0-.338-1.337,1.517,1.517,0,0,0-1.381-.727A1.651,1.651,0,0,0,87.23,6.4a2.613,2.613,0,0,0-.514,1.352Z" transform="translate(-26.994 -1.481)"/>
          </g>
          <g id="Available-on-the" class="cls-2" transform="translate(34.434 6.737)">
            <path id="Fill-12" class="cls-3" d="M4.471,5.818H3.56l-.5-1.565H1.327L.849,5.818H-.032L1.68.484H2.737ZM2.906,3.592,2.458,2.2c-.044-.14-.132-.478-.272-1.007H2.172c-.059.228-.132.558-.257,1.007l-.441,1.4Z" transform="translate(0.032 -0.205)"/>
            <path id="Fill-13" class="cls-3" d="M11.134,2.659,9.679,6.509h-.83L7.439,2.659h.918l.654,2.035c.11.338.206.661.279.97h.022c.066-.279.162-.6.279-.97l.647-2.035h.9" transform="translate(-2.34 -0.896)"/>
            <path id="Fill-14" class="cls-3" d="M16.285,6.478l-.066-.441H16.2a1.322,1.322,0,0,1-1.124.529A1.116,1.116,0,0,1,13.9,5.435c0-.948.823-1.44,2.248-1.44V3.921c0-.507-.272-.757-.8-.757a1.794,1.794,0,0,0-1.007.287l-.176-.558a2.47,2.47,0,0,1,1.322-.331c1.007,0,1.513.529,1.513,1.594V5.574a5.121,5.121,0,0,0,.059.918l-.771-.015ZM16.168,4.56c-.948,0-1.425.228-1.425.779a.545.545,0,0,0,.588.6.817.817,0,0,0,.838-.786Z" transform="translate(-4.391 -0.865)"/>
            <path id="Fill-15" class="cls-3" d="M20.993,1.258a.5.5,0,0,1-.507-.514.522.522,0,0,1,1.043,0,.5.5,0,0,1-.536.514Zm-.411.632h.852V5.732h-.852Z" transform="translate(-6.483 -0.127)"/>
            <path id="Fill-16" class="cls-3" d="M24.1.075h.852V5.681H24.1Z" transform="translate(-7.632 -0.075)"/>
            <path id="Fill-17" class="cls-3" d="M29.559,6.474l-.066-.441h-.022a1.322,1.322,0,0,1-1.124.529,1.116,1.116,0,0,1-1.175-1.131c0-.948.823-1.44,2.248-1.44V3.918c0-.507-.272-.757-.8-.757a1.794,1.794,0,0,0-1.007.287l-.176-.566a2.47,2.47,0,0,1,1.322-.331c1.007,0,1.513.529,1.513,1.594V5.563a6.074,6.074,0,0,0,.051.918h-.764V6.474Zm-.118-1.918c-.948,0-1.425.228-1.425.779a.545.545,0,0,0,.588.6.817.817,0,0,0,.838-.786Z" transform="translate(-8.606 -0.862)"/>
            <path id="Fill-18" class="cls-3" d="M35.862,5.776a1.309,1.309,0,0,1-1.212-.683h-.015l-.051.6h-.727c.022-.309.029-.654.029-1.036V.075h.86V2.4h.015a1.322,1.322,0,0,1,1.227-.639c.926,0,1.572.793,1.572,1.947A1.852,1.852,0,0,1,35.862,5.776Zm-.176-3.343a.981.981,0,0,0-.94,1.021v.676a.94.94,0,0,0,.926.962c.639,0,1.021-.522,1.021-1.352,0-.779-.4-1.308-1.007-1.308Z" transform="translate(-10.729 -0.075)"/>
            <path id="Fill-19" class="cls-3" d="M41.133.075h.852V5.681h-.852Z" transform="translate(-13.039 -0.075)"/>
            <path id="Fill-20" class="cls-3" d="M47.621,4.749H45.056a1.1,1.1,0,0,0,1.212,1.139A2.89,2.89,0,0,0,47.3,5.7l.132.6a3.116,3.116,0,0,1-1.286.235,1.785,1.785,0,0,1-1.918-1.94A1.879,1.879,0,0,1,46.056,2.53a1.62,1.62,0,0,1,1.6,1.829,1.489,1.489,0,0,1-.037.389Zm-.779-.61c0-.6-.3-1.014-.845-1.014a1.013,1.013,0,0,0-.933,1.014Z" transform="translate(-14.024 -0.855)"/>
            <path id="Fill-21" class="cls-3" d="M55.924,6.563a1.828,1.828,0,0,1-1.851-1.976A1.872,1.872,0,0,1,55.99,2.551,1.815,1.815,0,0,1,57.842,4.52,1.886,1.886,0,0,1,55.924,6.563Zm.037-3.387c-.617,0-1.014.58-1.014,1.381s.4,1.366,1.007,1.366,1.007-.617,1.007-1.389-.4-1.359-1-1.359Z" transform="translate(-17.148 -0.862)"/>
            <path id="Fill-22" class="cls-3" d="M64.758,6.471h-.852V4.26c0-.683-.264-1.021-.779-1.021a.884.884,0,0,0-.852.94V6.464h-.852V3.723c0-.338-.007-.705-.029-1.1h.749l.037.6H62.2a1.383,1.383,0,0,1,1.22-.676c.808,0,1.337.617,1.337,1.624V6.471" transform="translate(-19.473 -0.858)"/>
            <path id="Fill-23" class="cls-3" d="M73.432,2.861h-.94V4.727c0,.478.169.713.5.713a1.869,1.869,0,0,0,.382-.037l.022.647a1.852,1.852,0,0,1-.661.1c-.676,0-1.073-.375-1.073-1.344V2.861H71.1V2.222h.558V1.517L72.5,1.26v.955h.94v.647" transform="translate(-22.556 -0.451)"/>
            <path id="Fill-24" class="cls-3" d="M79.6,5.688h-.852v-2.2c0-.691-.264-1.036-.779-1.036a.837.837,0,0,0-.852.911V5.681H76.26V.075h.852V2.382h.015a1.292,1.292,0,0,1,1.153-.624c.815,0,1.315.632,1.315,1.638V5.688" transform="translate(-24.193 -0.075)"/>
            <path id="Fill-25" class="cls-3" d="M85.966,4.749H83.4a1.1,1.1,0,0,0,1.212,1.139A2.89,2.89,0,0,0,85.65,5.7l.132.6a3.116,3.116,0,0,1-1.286.235,1.785,1.785,0,0,1-1.918-1.94A1.879,1.879,0,0,1,84.4,2.53,1.62,1.62,0,0,1,86,4.359,1.489,1.489,0,0,1,85.966,4.749Zm-.779-.61c0-.6-.3-1.014-.845-1.014a1.008,1.008,0,0,0-.933,1.014Z" transform="translate(-26.2 -0.855)"/>
          </g>
        </g>
      </g>
    </g>
  </g>
</svg>
