<svg xmlns="http://www.w3.org/2000/svg" viewBox="-4283.092 -271.725 57.021 56.366">
  <defs>
    <style>
      .cls-1, .cls-3 {
        fill: #1d1d1d;
      }

      .cls-2 {
        opacity: 0.8;
      }

      .cls-3 {
        stroke: #1d1d1d;
      }

      .cls-4, .cls-5 {
        fill: #e7e7e7;
      }

      .cls-5 {
        stroke: #e7e7e7;
      }

      .cls-6 {
        fill: none;
      }
    </style>
  </defs>
  <g id="account" transform="translate(-4283.092 -271.725)">
    <rect id="Rectangle_2145" data-name="Rectangle 2145" class="cls-1" width="57.021" height="56.366" rx="28.183" transform="translate(0 0)"/>
    <g id="Group_2890" data-name="Group 2890" class="cls-2" transform="translate(16.779 15.232)">
      <g id="Group_2824" data-name="Group 2824" transform="translate(0 0)">
        <g id="Group_1925" data-name="Group 1925" transform="translate(0 0)">
          <path id="Path_1731" data-name="Path 1731" class="cls-3" d="M8575.174-1182.266h3.961l.6,3.964-12.312-.692Z" transform="translate(-8558.848 1209.373)"/>
          <g id="Group_1926" data-name="Group 1926">
            <path id="Path_1728" data-name="Path 1728" class="cls-4" d="M18.679,23.44A5.655,5.655,0,0,1,24.2,17.829q-1.251-.518-2.516-1a.725.725,0,0,1-.39-.3,8.881,8.881,0,0,1-.394-1.112.772.772,0,0,0-.408-.58.322.322,0,0,1-.135-.257c.014-.871-.19-1.787.46-2.544a.346.346,0,0,0,.042-.086A14.094,14.094,0,0,1,21.77,9.61a.105.105,0,0,0,.018-.061c.057-.54.116-1.081.162-1.623a.256.256,0,0,0-.112-.207c-.272-.1-.257-.31-.255-.526q0-1.586,0-3.172a2.007,2.007,0,0,0-.654-1.58c-.536-.475-1.084-.935-1.634-1.395-.266-.222-.287-.393-.04-.637a3.01,3.01,0,0,1,.378-.277C19.6.092,19.574.05,19.548.009a3.355,3.355,0,0,0-.5,0c-.605.1-1.218.182-1.814.321a7.571,7.571,0,0,0-3.175,1.373,2.8,2.8,0,0,0-1.2,1.968c-.033.444-.028.893-.032,1.339,0,.725.005,1.453-.009,2.178,0,.119-.072.313-.152.339-.3.1-.306.283-.266.528.027.168,0,.343.043.508.1.455.211.907.343,1.355a7.872,7.872,0,0,1,.343.986,3.335,3.335,0,0,0,.821,1.775.5.5,0,0,1,.126.337c-.035.521-.09,1.042-.16,1.558a.371.371,0,0,1-.21.268c-.35.072-.4.339-.488.61-.11.356-.229.708-.367,1.055a.537.537,0,0,1-.258.265c-.624.268-1.255.514-1.881.775-.668.276-1.341.541-1.993.849-.671.317-1.321.673-1.977,1.022a4.915,4.915,0,0,0-1.053.713v4.047H18.733A5.906,5.906,0,0,1,18.679,23.44Z" transform="translate(-5.369 0.404)"/>
            <path id="Path_1730" data-name="Path 1730" class="cls-5" d="M8559.82-1202.746l7.43,2.142.438,4.431h-23.56l.494-4.431s11.128-2.162,14.635-2.883" transform="translate(-8544.129 1220.817)"/>
            <line id="Line_14" data-name="Line 14" class="cls-6" x2="3.109" y2="1.536" transform="translate(12.558)"/>
          </g>
        </g>
      </g>
    </g>
  </g>
</svg>
