<svg width="613" height="866" viewBox="0 0 613 866" fill="none" xmlns="http://www.w3.org/2000/svg">
<g opacity="0.03">
<g filter="url(#filter0_d)">
<path d="M400.135 39.8669C400.135 39.8669 423.866 -71.7373 513.055 59.0816C513.055 59.0816 656.509 217.831 614.188 417.388C604.917 460.198 590.612 501.757 571.572 541.194C539.779 606.672 495.546 665.311 441.348 713.83L325.304 820.621C325.304 820.621 202.279 902.254 228.403 799.029C228.403 799.029 229.688 756.261 250.156 747.723C250.156 747.723 288.145 724.606 263.544 691.149C263.544 691.149 251.223 666.784 286.147 645.211C290.361 642.891 294.035 639.7 296.924 635.85C299.814 632 301.853 627.579 302.908 622.879C303.962 618.18 304.008 613.31 303.041 608.591C302.075 603.873 300.118 599.414 297.301 595.511C295.62 585.465 297.295 575.144 302.064 566.148C306.834 557.151 314.432 549.982 323.682 545.75C323.682 545.75 350.34 541.788 334.836 496.069C334.836 496.069 331.632 467.069 353.702 461.621C353.702 461.621 385.679 456.867 357.281 419.606C357.281 419.606 340.373 393.736 374.565 374.442C374.565 374.442 396.635 368.974 372.014 327.871C372.014 327.871 357.44 310.399 389.338 290.352C389.338 290.352 406.84 283.379 388.329 246.772C388.329 246.772 372.113 210.977 398.731 199.369C398.731 199.369 418.507 185.503 403.794 152.759C403.853 152.838 385.086 70.4917 400.135 39.8669Z" fill="#C9874A"/>
</g>
<g filter="url(#filter1_d)">
<path d="M344.646 54.7432C344.646 54.7432 368.714 -3.43598 318.483 10.6086C268.253 24.6532 171.905 102.305 171.905 102.305C171.905 102.305 21.431 182.571 3 425.489C3 425.489 5.92682 672.865 78.148 777.813L141.154 864.497C141.154 864.497 169.433 878.839 177.541 830.703L199.176 741.325C201.015 736.031 204.011 731.215 207.945 727.229C211.88 723.243 216.654 720.188 221.918 718.287C221.918 718.287 241.694 712.067 220.158 677.064C220.158 677.064 213.948 657.255 240.566 645.667C244.224 644.517 247.567 642.538 250.336 639.882C255.618 632.392 258.564 623.5 258.8 614.332C259.036 605.164 256.551 596.132 251.661 588.379C249.901 573.639 249.656 558.757 250.929 543.967C254.369 506.839 266.894 471.132 287.396 440.009C287.396 440.009 390.071 265.333 347.652 177.777C332.047 138.435 330.981 94.8032 344.646 54.7432Z" fill="#C9874A"/>
</g>
</g>
<defs>
<filter id="filter0_d" x="221.762" y="-6.49683" width="403.237" height="861.758" filterUnits="userSpaceOnUse" color-interpolation-filters="sRGB">
<feFlood flood-opacity="0" result="BackgroundImageFix"/>
<feColorMatrix in="SourceAlpha" type="matrix" values="0 0 0 0 0 0 0 0 0 0 0 0 0 0 0 0 0 0 127 0"/>
<feOffset dy="1"/>
<feGaussianBlur stdDeviation="1.5"/>
<feColorMatrix type="matrix" values="0 0 0 0 0 0 0 0 0 0 0 0 0 0 0 0 0 0 0.02 0"/>
<feBlend mode="normal" in2="BackgroundImageFix" result="effect1_dropShadow"/>
<feBlend mode="normal" in="SourceGraphic" in2="effect1_dropShadow" result="shape"/>
</filter>
<filter id="filter1_d" x="0" y="6.42114" width="360.924" height="864.076" filterUnits="userSpaceOnUse" color-interpolation-filters="sRGB">
<feFlood flood-opacity="0" result="BackgroundImageFix"/>
<feColorMatrix in="SourceAlpha" type="matrix" values="0 0 0 0 0 0 0 0 0 0 0 0 0 0 0 0 0 0 127 0"/>
<feOffset dy="1"/>
<feGaussianBlur stdDeviation="1.5"/>
<feColorMatrix type="matrix" values="0 0 0 0 0 0 0 0 0 0 0 0 0 0 0 0 0 0 0.02 0"/>
<feBlend mode="normal" in2="BackgroundImageFix" result="effect1_dropShadow"/>
<feBlend mode="normal" in="SourceGraphic" in2="effect1_dropShadow" result="shape"/>
</filter>
</defs>
</svg>
