<svg xmlns="http://www.w3.org/2000/svg" viewBox="-5996.055 892.891 22.438 28.289">
  <defs>
    <style>
      .cls-1 {
        fill: #3498dc;
      }
    </style>
  </defs>
  <g id="cableTVIcon" transform="translate(-5996.055 892.891)">
    <g id="Group_1432" data-name="Group 1432" transform="translate(0 0)">
      <path id="Path_1379" data-name="Path 1379" class="cls-1" d="M69.571,9.643,72.06,4.825a2.487,2.487,0,1,0-1.5-1.507L65.689,5.76,60.594.666a.829.829,0,0,0-1.172,0,10.787,10.787,0,0,0-.117,15.119l-2.788,7.531H55.437A2.489,2.489,0,0,0,52.95,25.8V27.46a.829.829,0,0,0,.829.829H70.357a.829.829,0,0,0,.829-.829V25.8A2.489,2.489,0,0,0,68.7,23.316h-1.08l-1.586-4.307q.5.047,1.008.047A10.742,10.742,0,0,0,74.661,15.9a.829.829,0,0,0,0-1.172ZM72.316,1.9a.829.829,0,1,1,0,1.172A.83.83,0,0,1,72.316,1.9ZM69.824,5.541,68.341,8.413,66.924,7ZM60.64,16.954a10.7,10.7,0,0,0,3.5,1.705l1.715,4.656H58.285ZM68.7,24.973a.83.83,0,0,1,.829.829v.829H54.608V25.8a.83.83,0,0,1,.829-.829ZM60.594,14.732a9.13,9.13,0,0,1-.56-12.282L72.876,15.292A9.13,9.13,0,0,1,60.594,14.732Z" transform="translate(-52.95 0)"/>
    </g>
  </g>
</svg>
