<svg width="20" height="20" viewBox="0 0 20 20" fill="none" xmlns="http://www.w3.org/2000/svg">
<g clip-path="url(#clip0)">
<path d="M17.5 2.91675H2.5C1.83696 2.91675 1.20107 3.18014 0.732233 3.64898C0.263392 4.11782 0 4.75371 0 5.41675L0 14.5834C0 15.2465 0.263392 15.8823 0.732233 16.3512C1.20107 16.82 1.83696 17.0834 2.5 17.0834H17.5C18.163 17.0834 18.7989 16.82 19.2678 16.3512C19.7366 15.8823 20 15.2465 20 14.5834V5.41675C20 4.75371 19.7366 4.11782 19.2678 3.64898C18.7989 3.18014 18.163 2.91675 17.5 2.91675ZM2.5 4.58342H17.5C17.721 4.58342 17.933 4.67121 18.0893 4.82749C18.2455 4.98377 18.3333 5.19573 18.3333 5.41675V6.25008C18.3333 6.36059 18.2894 6.46657 18.2113 6.54471C18.1332 6.62285 18.0272 6.66675 17.9167 6.66675H2.08333C1.97283 6.66675 1.86685 6.62285 1.78871 6.54471C1.71057 6.46657 1.66667 6.36059 1.66667 6.25008V5.41675C1.66667 5.19573 1.75446 4.98377 1.91074 4.82749C2.06702 4.67121 2.27899 4.58342 2.5 4.58342ZM17.5 15.4167H2.5C2.27899 15.4167 2.06702 15.329 1.91074 15.1727C1.75446 15.0164 1.66667 14.8044 1.66667 14.5834V9.58342C1.66667 9.47291 1.71057 9.36693 1.78871 9.28879C1.86685 9.21065 1.97283 9.16675 2.08333 9.16675H17.9167C18.0272 9.16675 18.1332 9.21065 18.2113 9.28879C18.2894 9.36693 18.3333 9.47291 18.3333 9.58342V14.5834C18.3333 14.8044 18.2455 15.0164 18.0893 15.1727C17.933 15.329 17.721 15.4167 17.5 15.4167Z" fill="#C9874A"/>
<path d="M6.66536 12.0833H4.16536C3.94435 12.0833 3.73239 12.171 3.57611 12.3273C3.41983 12.4836 3.33203 12.6956 3.33203 12.9166C3.33203 13.1376 3.41983 13.3496 3.57611 13.5058C3.73239 13.6621 3.94435 13.7499 4.16536 13.7499H6.66536C6.88638 13.7499 7.09834 13.6621 7.25462 13.5058C7.4109 13.3496 7.4987 13.1376 7.4987 12.9166C7.4987 12.6956 7.4109 12.4836 7.25462 12.3273C7.09834 12.171 6.88638 12.0833 6.66536 12.0833Z" fill="#C9874A"/>
</g>
<defs>
<clipPath id="clip0">
<rect width="20" height="20" fill="white"/>
</clipPath>
</defs>
</svg>
