<svg xmlns="http://www.w3.org/2000/svg" viewBox="-5648.5 -455.289 32.141 31.003">
  <defs>
    <style>
      .cls-1, .cls-5 {
        fill: #9b59b6;
      }

      .cls-1 {
        stroke: #9b59b6;
        stroke-width: 0.2px;
      }

      .cls-2 {
        opacity: 0;
      }

      .cls-3 {
        fill: #fff;
      }

      .cls-4 {
        fill: #1d1d1d;
      }
    </style>
  </defs>
  <g id="cashot" transform="translate(-5675.4 -871.182)">
    <g id="bank_new" data-name="bank new" transform="translate(27 416)">
      <path id="Path_1398" data-name="Path 1398" class="cls-1" d="M30.906,3.746H25.18l-4.6-2.585a.594.594,0,0,0-.887.517v.469H15.438v1.6H1.035A1.036,1.036,0,0,0,0,4.781V28.265A1.037,1.037,0,0,0,1.035,29.3h.031v2.129H6.388V29.3h9.05v1.6H19.7v.385a.594.594,0,0,0,.887.517l4.438-2.5h.531v2.129h5.323V29.3h.031a1.036,1.036,0,0,0,1.035-1.035V4.781A1.036,1.036,0,0,0,30.906,3.746ZM5.323,30.363H2.129V29.3H5.323Zm1.065-2.115v-.019H1.065v.031L1.035,4.812h14.4V5.877H3.379A1.25,1.25,0,0,0,2.131,7.125v18.8a1.25,1.25,0,0,0,1.248,1.248H15.438v1.06Zm5.323-2.135V25.58h2.135v.533ZM7.454,20.782v.523H5.323v-.533Zm0,2.129H5.323v-.533H7.454ZM5.325,23.976H7.454v.533H5.323Zm0,1.6H7.454v.54H5.323Zm3.194-4.79h2.129v5.331H8.517Zm5.327,2.129H11.711v-.533h2.135Zm-2.129,1.065h2.129v.533H11.711Zm2.129-2.671H11.711v-.533h2.135Zm1.065-1.065a.533.533,0,0,0-.533-.533H4.79a.533.533,0,0,0-.533.533v5.873H3.379a.192.192,0,0,1-.192-.192V17.055H15.438v9.057h-.533Zm.533-4.259h-.538V10.135a.533.533,0,0,0-.533-.533H4.79a.533.533,0,0,0-.533.533V15.99H3.194V7.123a.192.192,0,0,1,.192-.192H15.438Zm-3.727,0v-.523h2.129v.533ZM7.454,10.667V11.2H5.323v-.533Zm0,2.129H5.323v-.529H7.454ZM5.325,13.861H7.454v.533H5.323Zm0,1.6H7.454v.533H5.323Zm3.192-4.79h2.131V15.99H8.517ZM13.846,12.8H11.711v-.529h2.135Zm-2.135,1.065h2.135v.533H11.711ZM13.846,11.2H11.711v-.533h2.135Zm2.661,18.632V3.214H19.7V29.832ZM20.768,2.483l2.246,1.263h-.079l5.437,2.934V8.537c-.294,0-.685.238-.685.533s.494.533.789.533v.533c-.294,0-.789.238-.789.533s.391.533.685.533V21.844c-.294,0-.685.242-.685.537s.391.529.685.529v.533c-.294,0-.685.242-.685.537s.391.529.685.529v1.763l-7.6,4.2Zm9.038,27.883H26.618V29.3h3.188Zm1.065-2.129H26.993l2.286-1.286V24.507h.527a.533.533,0,1,0,0-1.065h-.533v-.533h.533a.533.533,0,0,0,0-1.065h-.533V11.2h.533a.533.533,0,1,0,0-1.065h-.533V9.6h.533a.533.533,0,1,0,0-1.065h-.533V6.052L27.047,4.8l3.823-.019L30.9,28.242Z" transform="translate(0 -1.085)"/>
      <g id="Group_1538" data-name="Group 1538" class="cls-2" transform="translate(17.567 3.587)">
        <circle id="Ellipse_377" data-name="Ellipse 377" class="cls-1" cx="0.533" cy="0.533" r="0.533" transform="translate(0 0)"/>
        <circle id="Ellipse_378" data-name="Ellipse 378" class="cls-1" cx="0.533" cy="0.533" r="0.533" transform="translate(0 3.194)"/>
        <circle id="Ellipse_379" data-name="Ellipse 379" class="cls-1" cx="0.533" cy="0.533" r="0.533" transform="translate(0 19.354)"/>
        <circle id="Ellipse_380" data-name="Ellipse 380" class="cls-1" cx="0.533" cy="0.533" r="0.533" transform="translate(0 16.159)"/>
        <circle id="Ellipse_381" data-name="Ellipse 381" class="cls-1" cx="0.533" cy="0.533" r="0.533" transform="translate(0 6.388)"/>
        <circle id="Ellipse_382" data-name="Ellipse 382" class="cls-1" cx="0.533" cy="0.533" r="0.533" transform="translate(0 22.548)"/>
      </g>
      <path id="Path_1399" data-name="Path 1399" class="cls-1" d="M40.533,29.388a.533.533,0,0,0,0,1.065,2.138,2.138,0,0,0,2.135-2.135V25.135A2.136,2.136,0,0,0,40.533,23a.533.533,0,0,0,0,1.065A1.071,1.071,0,0,1,41.6,25.136v3.183A1.073,1.073,0,0,1,40.533,29.388Z" transform="translate(-18.707 -11.333)"/>
      <rect id="Rectangle_1788" data-name="Rectangle 1788" class="cls-3" width="12.214" height="12.415" transform="translate(3.212 12.694)"/>
      <rect id="Rectangle_2197" data-name="Rectangle 2197" class="cls-4" width="2.89" height="1.3" rx="0.65" transform="translate(27.55 20.631)"/>
      <rect id="Rectangle_2201" data-name="Rectangle 2201" class="cls-4" width="2.89" height="1.3" rx="0.65" transform="translate(27.55 22.232)"/>
      <rect id="Rectangle_2198" data-name="Rectangle 2198" class="cls-4" width="2.89" height="1.3" rx="0.65" transform="translate(27.55 8.932)"/>
      <rect id="Rectangle_2200" data-name="Rectangle 2200" class="cls-4" width="2.89" height="1.3" rx="0.65" transform="translate(27.55 7.331)"/>
      <rect id="Rectangle_2161" data-name="Rectangle 2161" class="cls-3" width="12.214" height="9.097" transform="translate(3.212 5.828)"/>
      <path id="Path_2193" data-name="Path 2193" class="cls-5" d="M0,0H18.3V1.094L0,1.063Z" transform="translate(29.37 5.836) rotate(90)"/>
    </g>
  </g>
</svg>
