<svg xmlns="http://www.w3.org/2000/svg" viewBox="-5343.05 -605.066 31.469 28.925">
  <defs>
    <style>
      .cls-1 {
        fill: #2ecc71;
        stroke: #2ecc71;
        stroke-width: 0.5px;
      }
    </style>
  </defs>
  <path id="chat" class="cls-1" d="M27.909,2.5,10.287,2.465A3.064,3.064,0,0,0,7.226,5.526V8.17l-4.165.009A3.064,3.064,0,0,0,0,11.24V22.152a3.064,3.064,0,0,0,3.06,3.06H6.194v5.161a.516.516,0,0,0,.33.482.517.517,0,0,0,.568-.134l5.009-5.51,8.581-.035a3.064,3.064,0,0,0,3.061-3.06v-.059l2.715,2.986a.516.516,0,0,0,.382.169.515.515,0,0,0,.516-.517V19.534h.552a3.064,3.064,0,0,0,3.061-3.06V5.562A3.064,3.064,0,0,0,27.909,2.5Zm-5.2,19.614a2.031,2.031,0,0,1-2.031,2.028l-8.811.036a.516.516,0,0,0-.38.169l-4.263,4.69V24.7a.516.516,0,0,0-.516-.516H3.06a2.031,2.031,0,0,1-2.028-2.028V11.239A2.307,2.307,0,0,1,3.06,8.912H7.742V9.2h0V8.912h12.94a2.311,2.311,0,0,1,1.682,1.158A2.017,2.017,0,0,1,22.71,11.2V22.115Zm7.226-5.641A2.03,2.03,0,0,1,27.908,18.5H26.84a.516.516,0,0,0-.516.516v4.343l-2.581-2.839V11.2a3.061,3.061,0,0,0-.062-.616q-.031-.149-.075-.293a3.066,3.066,0,0,0-2.923-2.151h-.054L8.258,8.168V5.525A2.031,2.031,0,0,1,10.286,3.5l17.622.036h0a2.031,2.031,0,0,1,2.028,2.028Z" transform="translate(-5342.8 -607.281)"/>
</svg>
