<svg xmlns="http://www.w3.org/2000/svg" viewBox="-5861.396 -499.037 25.917 28.599">
  <defs>
    <style>
      .cls-1, .cls-5 {
        fill: #fff;
        stroke: #fff;
      }

      .cls-2, .cls-3, .cls-6 {
        fill: #c4702e;
      }

      .cls-3, .cls-6 {
        stroke: #c4702e;
      }

      .cls-4 {
        fill: none;
      }

      .cls-5 {
        stroke-width: 1.5px;
      }

      .cls-6 {
        stroke-width: 0.5px;
      }

      .cls-7 {
        stroke: none;
      }
    </style>
  </defs>
  <g id="Group_2895" data-name="Group 2895" transform="translate(-5860.838 -499.037)">
    <g id="Group_2824" data-name="Group 2824" transform="translate(0 0)">
      <g id="Group_1925" data-name="Group 1925" transform="translate(0 0)">
        <path id="Path_1731" data-name="Path 1731" class="cls-1" d="M8574.25-1182.267h3.49l.533,3.533-10.848-.617Z" transform="translate(-8559.869 1206.426)"/>
        <g id="Group_1926" data-name="Group 1926">
          <path id="Path_1728" data-name="Path 1728" class="cls-2" d="M17.134,20.891a5.012,5.012,0,0,1,4.864-5q-1.1-.461-2.217-.889a.64.64,0,0,1-.344-.267,7.976,7.976,0,0,1-.347-.991.688.688,0,0,0-.359-.517A.288.288,0,0,1,18.613,13c.012-.776-.167-1.592.406-2.267a.309.309,0,0,0,.037-.076,12.65,12.65,0,0,1,.8-2.088.094.094,0,0,0,.016-.055c.05-.482.1-.964.142-1.446a.228.228,0,0,0-.1-.184c-.239-.085-.226-.276-.225-.469q0-1.414,0-2.827a1.8,1.8,0,0,0-.576-1.408c-.473-.423-.955-.833-1.439-1.243-.234-.2-.253-.35-.035-.568a2.654,2.654,0,0,1,.333-.247c-.023-.037-.05-.074-.073-.11a2.921,2.921,0,0,0-.437,0c-.533.087-1.073.162-1.6.286a6.631,6.631,0,0,0-2.8,1.224,2.5,2.5,0,0,0-1.059,1.754c-.029.4-.025.8-.028,1.193,0,.646,0,1.295-.008,1.941,0,.106-.064.279-.134.3-.263.085-.269.252-.234.471.024.149,0,.306.038.453.091.405.186.808.3,1.208a7.072,7.072,0,0,1,.3.878,2.988,2.988,0,0,0,.723,1.582.452.452,0,0,1,.111.3c-.031.465-.079.929-.141,1.388a.33.33,0,0,1-.185.239c-.308.064-.356.3-.43.544-.1.317-.2.631-.323.94a.476.476,0,0,1-.228.236c-.549.239-1.105.458-1.658.691-.588.246-1.181.482-1.756.756-.591.282-1.164.6-1.742.911a4.328,4.328,0,0,0-.928.635v3.607H17.181A5.324,5.324,0,0,1,17.134,20.891Z" transform="translate(-5.407 0.36)"/>
          <path id="Path_1730" data-name="Path 1730" class="cls-3" d="M8557.951-1202.826l6.546,1.909.39,3.949h-20.76l.438-3.949s9.8-1.927,12.895-2.569" transform="translate(-8544.127 1218.932)"/>
          <line id="Line_14" data-name="Line 14" class="cls-4" x2="2.739" y2="1.369" transform="translate(11.064)"/>
        </g>
      </g>
    </g>
    <g id="Group_2827" data-name="Group 2827" transform="translate(12.64 15.88)">
      <g id="Group_1491" data-name="Group 1491" transform="translate(0 0)">
        <g id="Ellipse_370" data-name="Ellipse 370" class="cls-5">
          <ellipse class="cls-7" cx="6.359" cy="6.36" rx="6.359" ry="6.36"/>
          <ellipse class="cls-4" cx="6.359" cy="6.36" rx="5.609" ry="5.61"/>
        </g>
        <g id="Add_Icon" data-name="Add Icon" transform="translate(3.561 3.561)">
          <path id="Icon" class="cls-6" d="M7.4,5V7.4H5v.8H7.4v2.4h.8V8.2h2.4V7.4H8.2V5Z" transform="translate(-5 -5)"/>
        </g>
      </g>
    </g>
  </g>
</svg>
