<svg xmlns="http://www.w3.org/2000/svg" viewBox="4366.49 -4563.036 35.038 35.038">
  <defs>
    <style>
      .cls-1, .cls-2 {
        fill: #c4702e;
      }

      .cls-1 {
        opacity: 0.08;
      }
    </style>
  </defs>
  <g id="Group_3112" data-name="Group 3112" transform="translate(4366.49 -4563.036)">
    <circle id="Ellipse_486" data-name="Ellipse 486" class="cls-1" cx="17.519" cy="17.519" r="17.519" transform="translate(0 0)"/>
    <g id="facebook-logo" transform="translate(11.867 9.226)">
      <path id="Path_33" data-name="Path 33" class="cls-2" d="M31.07,0,28.829,0a3.936,3.936,0,0,0-4.146,4.254V6.215H22.429a.352.352,0,0,0-.352.353V9.41a.352.352,0,0,0,.352.352h2.254v7.171a.352.352,0,0,0,.352.352h2.94a.352.352,0,0,0,.352-.352V9.762h2.635a.352.352,0,0,0,.352-.352V6.568a.353.353,0,0,0-.353-.353H28.329V4.553c0-.8.19-1.2,1.231-1.2h1.51a.352.352,0,0,0,.352-.352V.356A.353.353,0,0,0,31.07,0Z" transform="translate(-22.077)"/>
    </g>
  </g>
</svg>
