<svg width="267" height="112" viewBox="0 0 267 112" fill="none" xmlns="http://www.w3.org/2000/svg">
<g clip-path="url(#clip0)">
<path fill-rule="evenodd" clip-rule="evenodd" d="M60.7061 73.8377L96.5833 67.6935L135.345 75.9338L64.8837 84.1741L60.7061 73.8377Z" fill="#8692AC" fill-opacity="0.2" style="mix-blend-mode:multiply"/>
<path fill-rule="evenodd" clip-rule="evenodd" d="M0 68.5764L41.1836 66.9884L78.5952 67.3804L19.6424 74.6267L0 68.5764Z" fill="#8692AC" fill-opacity="0.2" style="mix-blend-mode:multiply"/>
<path fill-rule="evenodd" clip-rule="evenodd" d="M2.11719 62.6554C2.11719 62.6554 7.29625 70.9258 13.4156 72.9001C27.5976 77.4755 39.3807 80.8695 48.7647 83.082C68.9143 87.8328 82.1843 75.9649 82.1843 75.9649C82.1843 75.9649 116.552 79.1835 134.079 75.9649C139.437 74.9809 156.508 70.3317 156.508 70.3317L76.3942 50.065C76.3942 50.065 66.4021 58.8021 55.2227 60.9998C50.4845 61.9312 35.6821 64.8456 18.0157 64.8456C9.98241 64.8456 2.11719 62.6554 2.11719 62.6554Z" fill="white"/>
<path fill-rule="evenodd" clip-rule="evenodd" d="M140.546 83.1137L93.8818 69.393L101.274 59.5119L162.804 57.8216L202.537 69.393" fill="url(#paint0_linear)" fill-opacity="0.36" style="mix-blend-mode:multiply"/>
<path fill-rule="evenodd" clip-rule="evenodd" d="M174.332 39.5952C174.918 28.72 167.422 20.6158 161.118 19.3907L94.3945 3.87839L89.1237 64.061L159.901 60.1925C167.555 60.1925 173.747 50.4704 174.332 39.5952Z" fill="url(#paint1_linear)"/>
<mask id="mask0" mask-type="alpha" maskUnits="userSpaceOnUse" x="89" y="3" width="86" height="62">
<path fill-rule="evenodd" clip-rule="evenodd" d="M174.332 39.5952C174.918 28.72 167.422 20.6158 161.118 19.3907L94.3945 3.87839L89.1237 64.061L159.901 60.1925C167.555 60.1925 173.747 50.4704 174.332 39.5952Z" fill="white"/>
</mask>
<g mask="url(#mask0)">
<path fill-rule="evenodd" clip-rule="evenodd" d="M120.941 8.99057L144.535 14.5506C144.535 14.5506 151.733 23.7798 152.093 37.6386C152.452 51.4974 142.053 63.7434 142.053 63.7434L117.196 65.5166C117.196 65.5166 129.203 52.4636 129.058 36.4629C128.914 20.4623 120.941 8.99057 120.941 8.99057Z" fill="url(#paint2_linear)"/>
<g filter="url(#filter0_d)">
<path d="M134.687 33.7201C134.687 33.7201 133.368 32.6149 135.651 32.6363C135.651 32.6363 138.642 32.2788 141.001 34.2538C141.506 34.6795 141.963 35.1507 142.362 35.6572C143.023 36.5002 143.516 37.4268 143.813 38.3851L144.488 40.4591C144.488 40.4591 144.788 42.4181 143.594 41.3504C143.594 41.3504 143.04 41.0119 143.056 40.7243C143.056 40.7243 142.991 40.1352 142.396 40.1492C142.396 40.1492 141.998 40.0985 141.934 39.5545C141.93 39.491 141.911 39.4268 141.879 39.3661C141.846 39.3054 141.801 39.2497 141.746 39.2026C141.69 39.1554 141.627 39.118 141.558 39.0927C141.49 39.0674 141.419 39.0549 141.35 39.0559C141.207 38.998 141.082 38.9015 140.994 38.7813C140.906 38.6611 140.859 38.5239 140.862 38.3911C140.862 38.3911 140.977 38.0708 140.278 37.8927C140.278 37.8927 139.876 37.7075 139.944 37.4259C139.944 37.4259 140.082 37.0416 139.413 37.0681C139.413 37.0681 138.967 37.0559 138.928 36.5372C138.928 36.5372 138.995 36.2554 138.299 36.2116C138.299 36.2116 137.978 36.2377 137.915 35.7383C137.915 35.7383 137.933 35.4948 137.335 35.4186C137.335 35.4186 136.762 35.3236 136.777 34.9457C136.777 34.9457 136.719 34.6251 136.196 34.5369C136.197 34.5368 134.996 34.1164 134.687 33.7201Z" fill="white"/>
</g>
<g filter="url(#filter1_d)">
<path d="M134.014 34.147C134.014 34.147 133.42 33.4134 133.251 34.1319C133.081 34.8503 133.422 36.6122 133.422 36.6122C133.422 36.6122 133.415 39.0534 136.472 41.1163C136.472 41.1163 139.738 42.9525 141.624 42.8665L143.205 42.7546C143.205 42.7546 143.593 42.5184 143.018 42.0554L141.998 41.1154C141.941 41.0529 141.899 40.9799 141.875 40.9018C141.85 40.8237 141.844 40.7424 141.856 40.6639C141.856 40.6639 141.913 40.3758 141.302 40.3734C141.302 40.3734 140.999 40.2992 141.034 39.8871C141.045 39.8338 141.043 39.7781 141.027 39.7242C140.966 39.6032 140.87 39.5 140.752 39.4277C140.633 39.3555 140.497 39.3174 140.361 39.3183C140.155 39.2283 139.958 39.1186 139.773 38.9912C139.31 38.6683 138.93 38.2455 138.666 37.7601C138.666 37.7601 137.097 35.1869 135.65 35.0414C135.024 34.9338 134.444 34.6167 134.014 34.147Z" fill="white"/>
</g>
</g>
<path fill-rule="evenodd" clip-rule="evenodd" d="M89.2257 67.7234C99.9056 68.6577 109.857 54.6335 111.452 36.3994C113.047 18.1653 105.683 2.6262 95.0027 1.69183C84.3228 0.757456 74.3718 14.7817 72.7765 33.0158C71.1813 51.2499 78.5458 66.789 89.2257 67.7234Z" fill="url(#paint3_linear)"/>
<path fill-rule="evenodd" clip-rule="evenodd" d="M89.36 62.0707C97.5156 62.7835 105.215 50.9385 106.557 35.6142C107.899 20.2899 102.376 7.28933 94.2202 6.57655C86.0646 5.86377 78.3651 17.7087 77.023 33.033C75.6809 48.3573 81.2044 61.3579 89.36 62.0707Z" fill="url(#paint4_linear)"/>
<g filter="url(#filter2_d)">
<path fill-rule="evenodd" clip-rule="evenodd" d="M106.43 36.2391C98.5046 41.54 89.6086 50.6661 86.0529 51.705C82.4973 52.7438 75.5837 54.4474 75.0544 58.7579C74.5251 63.0685 68.2217 64.3988 62.6161 65.1555C57.0104 65.9123 45.6831 66.0991 44.7461 68.8289C43.809 71.5588 62.9887 71.5588 69.7854 71.5588C76.5821 71.5588 93.055 71.0745 95.1819 70.1341C97.3087 69.1937 95.7994 63.6505 97.5633 58.7579C99.3271 56.7733 104.787 51.6281 106.43 36.2391Z" fill="url(#paint5_linear)"/>
</g>
<path fill-rule="evenodd" clip-rule="evenodd" d="M73.0594 67.9286C74.4239 67.9286 75.53 67.5603 75.53 67.1059C75.53 66.6516 74.4239 66.2833 73.0594 66.2833C71.695 66.2833 70.5889 66.6516 70.5889 67.1059C70.5889 67.5603 71.695 67.9286 73.0594 67.9286Z" fill="#C39078"/>
<path fill-rule="evenodd" clip-rule="evenodd" d="M87.177 68.3994C87.7618 68.3994 88.2358 68.2414 88.2358 68.0465C88.2358 67.8515 87.7618 67.6935 87.177 67.6935C86.5922 67.6935 86.1182 67.8515 86.1182 68.0465C86.1182 68.2414 86.5922 68.3994 87.177 68.3994Z" fill="#C39078"/>
<path fill-rule="evenodd" clip-rule="evenodd" d="M56.1184 69.1045C56.7032 69.1045 57.1772 68.9465 57.1772 68.7516C57.1772 68.5567 56.7032 68.3987 56.1184 68.3987C55.5336 68.3987 55.0596 68.5567 55.0596 68.7516C55.0596 68.9465 55.5336 69.1045 56.1184 69.1045Z" fill="#B38670"/>
<path fill-rule="evenodd" clip-rule="evenodd" d="M214.652 112L159.764 85.6254L205.947 84.9202L208.812 81.9922L267 100.999" fill="url(#paint6_linear)" fill-opacity="0.36" style="mix-blend-mode:multiply"/>
<path fill-rule="evenodd" clip-rule="evenodd" d="M158.117 78.9758H210.352L208.94 85.322C208.94 85.322 203.776 89.5529 183.983 89.5529C164.19 89.5529 159.529 85.322 159.529 85.322L158.117 78.9758Z" fill="url(#paint7_linear)"/>
<path fill-rule="evenodd" clip-rule="evenodd" d="M184.235 83.9118C198.659 83.9118 210.352 81.544 210.352 78.6232C210.352 75.7024 198.659 73.3347 184.235 73.3347C169.81 73.3347 158.117 75.7024 158.117 78.6232C158.117 81.544 169.81 83.9118 184.235 83.9118Z" fill="url(#paint8_linear)"/>
<mask id="mask1" mask-type="alpha" maskUnits="userSpaceOnUse" x="158" y="73" width="53" height="11">
<path fill-rule="evenodd" clip-rule="evenodd" d="M184.235 83.9118C198.659 83.9118 210.352 81.544 210.352 78.6232C210.352 75.7024 198.659 73.3347 184.235 73.3347C169.81 73.3347 158.117 75.7024 158.117 78.6232C158.117 81.544 169.81 83.9118 184.235 83.9118Z" fill="white"/>
</mask>
<g mask="url(#mask1)">
<path fill-rule="evenodd" clip-rule="evenodd" d="M184.234 88.1426C197.879 88.1426 208.94 85.7748 208.94 82.854C208.94 79.9333 197.879 77.5655 184.234 77.5655C170.589 77.5655 159.528 79.9333 159.528 82.854C159.528 85.7748 170.589 88.1426 184.234 88.1426Z" fill="url(#paint9_linear)"/>
</g>
</g>
<defs>
<filter id="filter0_d" x="132.472" y="31.3869" width="13.8856" height="12.7303" filterUnits="userSpaceOnUse" color-interpolation-filters="sRGB">
<feFlood flood-opacity="0" result="BackgroundImageFix"/>
<feColorMatrix in="SourceAlpha" type="matrix" values="0 0 0 0 0 0 0 0 0 0 0 0 0 0 0 0 0 0 127 0"/>
<feOffset dy="0.612072"/>
<feGaussianBlur stdDeviation="0.918108"/>
<feColorMatrix type="matrix" values="0 0 0 0 0 0 0 0 0 0 0 0 0 0 0 0 0 0 0.02 0"/>
<feBlend mode="normal" in2="BackgroundImageFix" result="effect1_dropShadow"/>
<feBlend mode="normal" in="SourceGraphic" in2="effect1_dropShadow" result="shape"/>
</filter>
<filter id="filter1_d" x="131.367" y="32.5923" width="13.8018" height="12.7254" filterUnits="userSpaceOnUse" color-interpolation-filters="sRGB">
<feFlood flood-opacity="0" result="BackgroundImageFix"/>
<feColorMatrix in="SourceAlpha" type="matrix" values="0 0 0 0 0 0 0 0 0 0 0 0 0 0 0 0 0 0 127 0"/>
<feOffset dy="0.612072"/>
<feGaussianBlur stdDeviation="0.918108"/>
<feColorMatrix type="matrix" values="0 0 0 0 0 0 0 0 0 0 0 0 0 0 0 0 0 0 0.02 0"/>
<feBlend mode="normal" in2="BackgroundImageFix" result="effect1_dropShadow"/>
<feBlend mode="normal" in="SourceGraphic" in2="effect1_dropShadow" result="shape"/>
</filter>
<filter id="filter2_d" x="32.7129" y="18.5922" width="82.8931" height="56.496" filterUnits="userSpaceOnUse" color-interpolation-filters="sRGB">
<feFlood flood-opacity="0" result="BackgroundImageFix"/>
<feColorMatrix in="SourceAlpha" type="matrix" values="0 0 0 0 0 0 0 0 0 0 0 0 0 0 0 0 0 0 127 0"/>
<feOffset dx="-1.41176" dy="-7.05879"/>
<feGaussianBlur stdDeviation="5.29409"/>
<feColorMatrix type="matrix" values="0 0 0 0 0.807779 0 0 0 0 0.847247 0 0 0 0 0.86352 0 0 0 0.484771 0"/>
<feBlend mode="normal" in2="BackgroundImageFix" result="effect1_dropShadow"/>
<feBlend mode="normal" in="SourceGraphic" in2="effect1_dropShadow" result="shape"/>
</filter>
<linearGradient id="paint0_linear" x1="177.016" y1="70.3148" x2="176.945" y2="60.6051" gradientUnits="userSpaceOnUse">
<stop stop-color="white" stop-opacity="0.01"/>
<stop offset="1" stop-color="#788590"/>
</linearGradient>
<linearGradient id="paint1_linear" x1="115.545" y1="36.0485" x2="112.438" y2="71.6044" gradientUnits="userSpaceOnUse">
<stop stop-color="#FAFAFA"/>
<stop offset="1" stop-color="#D6D6D6"/>
</linearGradient>
<linearGradient id="paint2_linear" x1="115.657" y1="16.2047" x2="142.57" y2="58.7442" gradientUnits="userSpaceOnUse">
<stop stop-color="#C9874A"/>
<stop offset="1" stop-color="#996738"/>
</linearGradient>
<linearGradient id="paint3_linear" x1="167.008" y1="-5.41024" x2="108.625" y2="-24.4996" gradientUnits="userSpaceOnUse">
<stop stop-color="#D6D6D6"/>
<stop offset="1" stop-color="white"/>
</linearGradient>
<linearGradient id="paint4_linear" x1="59.7936" y1="47.252" x2="104.147" y2="62.6335" gradientUnits="userSpaceOnUse">
<stop stop-color="white"/>
<stop offset="1" stop-color="#D0D5D9"/>
</linearGradient>
<linearGradient id="paint5_linear" x1="69.1843" y1="84.4415" x2="96.3665" y2="51.8863" gradientUnits="userSpaceOnUse">
<stop stop-color="#C9874A"/>
<stop offset="1" stop-color="#D9BB9F"/>
</linearGradient>
<linearGradient id="paint6_linear" x1="234.935" y1="95.175" x2="234.809" y2="80.0458" gradientUnits="userSpaceOnUse">
<stop stop-color="white" stop-opacity="0.01"/>
<stop offset="1" stop-color="#788590"/>
</linearGradient>
<linearGradient id="paint7_linear" x1="175.31" y1="70.7494" x2="172.609" y2="93.3152" gradientUnits="userSpaceOnUse">
<stop stop-color="#E1E7ED"/>
<stop offset="1" stop-color="white"/>
</linearGradient>
<linearGradient id="paint8_linear" x1="216.431" y1="76.2679" x2="210.053" y2="56.4058" gradientUnits="userSpaceOnUse">
<stop stop-color="white"/>
<stop offset="1" stop-color="#D2D8DE"/>
</linearGradient>
<linearGradient id="paint9_linear" x1="165.511" y1="75.8727" x2="164.664" y2="85.242" gradientUnits="userSpaceOnUse">
<stop stop-color="#F8FAFB"/>
<stop offset="1" stop-color="#EFF3F6"/>
</linearGradient>
<clipPath id="clip0">
<rect width="267" height="112" fill="white"/>
</clipPath>
</defs>
</svg>
