<svg xmlns="http://www.w3.org/2000/svg" viewBox="-8524.362 -228.161 110.49 36.734">
  <defs>
    <style>
      .cls-1 {
        fill: #1d1d1d;
      }

      .cls-2, .cls-4 {
        fill: #e7e7e7;
      }

      .cls-2 {
        opacity: 0.4;
      }

      .cls-3 {
        opacity: 0.6;
      }

      .cls-4 {
        opacity: 0.7;
      }
    </style>
  </defs>
  <g id="Group_1871" data-name="Group 1871" transform="translate(-8524.362 -228.161)">
    <g id="available-on-the-app-store" transform="translate(0 0)">
      <g id="Artboard-1">
        <g id="App-Store">
          <path id="background" class="cls-1" d="M4.381,0H105.894a4.452,4.452,0,0,1,4.488,4.408V32.326a4.452,4.452,0,0,1-4.488,4.408H4.381A4.452,4.452,0,0,1-.108,32.326V4.408A4.452,4.452,0,0,1,4.381,0Z" transform="translate(0.108)"/>
          <path id="Path_1621" data-name="Path 1621" class="cls-2" d="M80.011,169.051a.714.714,0,0,0-.011.126V185.87a.369.369,0,0,0,.226.379l8.891-8.474-9.107-8.724Zm.328-.357a.713.713,0,0,1,.481.1l7.4,4.1L92.028,175l-2.56,2.44-9.13-8.746Zm11.236,11.435-1.89,1.047-1.469.814-6.886,3.816,8.128-7.7,2.117,2.028Zm.444-.246.031-.017,3.686-2.042c.432-.24.39-.568.026-.757-.285-.147-2.382-1.314-3.292-1.821l-2.66,2.521,2.209,2.116Z" transform="translate(-69.902 -157.561)"/>
          <g id="Group_1724" data-name="Group 1724" class="cls-3" transform="translate(33.405 6.335)">
            <path id="Path_1622" data-name="Path 1622" class="cls-4" d="M461.726,115.727l-.7.66c-.161.089-.32.192-.48.265a3.349,3.349,0,0,1-1.41.276,3.1,3.1,0,0,1-1.935-.571,3.788,3.788,0,0,1-1.483-3.083,3.307,3.307,0,0,1,3.331-3.379,2.816,2.816,0,0,1,1.5.41,2.446,2.446,0,0,1,1.018,1.447l-3.417,1.389-1.119.088c.362,1.859,1.612,2.94,2.994,2.94a3.574,3.574,0,0,0,1.672-.46s.094-.049.027.018ZM459.638,112c.274-.1.417-.19.417-.4a1.443,1.443,0,0,0-1.425-1.267,1.8,1.8,0,0,0-1.652,2.049c0,.248.029.513.043.777Zm-5.044,3.65c0,.567.1.655.577.7.248.029.5.042.74.072l-.536.321h-2.553c.335-.437.392-.481.392-.773v-.325l-.006-8.673h-1.128l1.085-.527h2.072a1.007,1.007,0,0,0-.641.932l0,8.273Zm-3.962-5.036a2.387,2.387,0,0,1-.188,4.039,1.036,1.036,0,0,0-.405.714.8.8,0,0,0,.376.628l.523.407a2.547,2.547,0,0,1,1.214,2.044c0,1.372-1.317,2.755-3.805,2.755-2.1,0-3.11-1.007-3.11-2.086a2.1,2.1,0,0,1,1.115-1.779,6.188,6.188,0,0,1,2.762-.67,1.544,1.544,0,0,1-.435-.994,1.327,1.327,0,0,1,.145-.568c-.158.015-.318.031-.462.031a2.3,2.3,0,0,1-2.4-2.291,2.628,2.628,0,0,1,.927-1.954,3.925,3.925,0,0,1,2.59-.8h2.981l-.927.527h-.9Zm-1.018,6.458a2.215,2.215,0,0,0-.336-.016,5.69,5.69,0,0,0-1.53.238,1.66,1.66,0,0,0-1.256,1.53c0,1.053,1.007,1.812,2.566,1.812,1.4,0,2.143-.683,2.143-1.6,0-.757-.481-1.157-1.587-1.96Zm.409-2.809a1.476,1.476,0,0,0,.362-1.063c0-1.046-.618-2.674-1.815-2.674a1.337,1.337,0,0,0-1.008.482,1.687,1.687,0,0,0-.317,1.074c0,.974.563,2.589,1.8,2.589a1.466,1.466,0,0,0,.977-.407Zm-8.407,2.668a3.442,3.442,0,0,1-3.537-3.464,3.613,3.613,0,0,1,3.754-3.569,3.414,3.414,0,0,1,3.466,3.465A3.564,3.564,0,0,1,441.617,116.928Zm1.8-1.189a2.67,2.67,0,0,0,.437-1.633c0-1.3-.61-3.771-2.414-3.771a2.014,2.014,0,0,0-1.311.5,2.243,2.243,0,0,0-.669,1.8c0,1.455.71,3.855,2.473,3.855a1.853,1.853,0,0,0,1.484-.749Zm-9.525,1.189a3.44,3.44,0,0,1-3.537-3.464,3.614,3.614,0,0,1,3.756-3.569,3.413,3.413,0,0,1,3.465,3.465A3.563,3.563,0,0,1,433.895,116.928Zm1.8-1.189a2.686,2.686,0,0,0,.437-1.633c0-1.3-.612-3.771-2.415-3.771a2.007,2.007,0,0,0-1.309.5,2.24,2.24,0,0,0-.67,1.8c0,1.455.714,3.855,2.475,3.855a1.854,1.854,0,0,0,1.484-.749Zm-6.3.754-1.952.45a14.177,14.177,0,0,1-2.253.236,4.867,4.867,0,0,1-5.2-4.972,5.173,5.173,0,0,1,5.513-5.137,7.929,7.929,0,0,1,2.09.286,5.243,5.243,0,0,1,1.8.855l-1.134,1.084-.478.108.341-.547a3.883,3.883,0,0,0-2.921-1.291,3.782,3.782,0,0,0-3.778,4.053,4.841,4.841,0,0,0,4.829,5.013,4.042,4.042,0,0,0,1.733-.342v-2.215l-2.061.112,1.092-.591h2.892l-.354.343a.315.315,0,0,0-.135.219c-.014.125-.028.523-.028.663v1.675Zm36.537-.7V119.5H465.2v-9.437h.735v1.075a2.919,2.919,0,0,1,2.369-1.245c1.822,0,3.049,1.385,3.049,3.579s-1.227,3.593-3.049,3.593a2.912,2.912,0,0,1-2.369-1.273Zm4.665-2.263c0-1.67-.863-2.944-2.393-2.944A2.923,2.923,0,0,0,465.957,112v3.053a2.949,2.949,0,0,0,2.254,1.439C469.74,116.489,470.6,115.2,470.6,113.531Zm1.758-6.084h.753v9.482h-.753Zm8.945,11.4a1.725,1.725,0,0,0,.6.114c.449,0,.762-.184,1.043-.835l.536-1.217-2.894-6.889h.82l2.483,5.97,2.459-5.97h.831l-3.53,8.335a1.806,1.806,0,0,1-1.734,1.272,2.9,2.9,0,0,1-.734-.1l.126-.68Zm-2.074-1.931c-.049-.238-.087-.448-.114-.623a4.194,4.194,0,0,1-.036-.535,3.152,3.152,0,0,1-2.563,1.294,2.413,2.413,0,0,1-1.678-.538,1.875,1.875,0,0,1-.6-1.464,1.732,1.732,0,0,1,.867-1.5,3.982,3.982,0,0,1,2.248-.575h1.723v-.853a1.432,1.432,0,0,0-.5-1.158,2.139,2.139,0,0,0-1.415-.423,2.236,2.236,0,0,0-1.353.382,1.165,1.165,0,0,0-.513.962h-.756l-.016-.037a1.592,1.592,0,0,1,.713-1.367,3.1,3.1,0,0,1,1.966-.59,3.06,3.06,0,0,1,1.949.582,1.988,1.988,0,0,1,.737,1.664v3.389a5.386,5.386,0,0,0,.042.708,4.51,4.51,0,0,0,.147.68h-.852Zm-2.624-.493a2.759,2.759,0,0,0,1.539-.421,2.124,2.124,0,0,0,.932-1.079V113.6h-1.73a2.82,2.82,0,0,0-1.639.445,1.291,1.291,0,0,0-.65,1.073,1.191,1.191,0,0,0,.414.947,1.663,1.663,0,0,0,1.134.361ZM420,101.062a2.249,2.249,0,0,1,2.423-2.223,2.208,2.208,0,0,1,1.855.889l-.657.355a1.563,1.563,0,1,0-1.2,2.531,1.727,1.727,0,0,0,1.094-.386v-.664H422.13V100.9h2.188v1.6a2.578,2.578,0,0,1-1.9.786A2.257,2.257,0,0,1,420,101.062Zm5.367,2.163V98.9h3.207v.668h-2.386v1.114h2.337v.667h-2.337v1.2h2.386v.667Zm5.388,0V99.572h-1.4V98.9h3.6v.668h-1.4v3.653Zm5.084-4.32h.785v4.32h-.785Zm3.032,4.32V99.572h-1.4V98.9h3.6v.668h-1.4v3.653Zm4.887-2.16a2.4,2.4,0,1,1,2.389,2.225A2.23,2.23,0,0,1,443.757,101.065Zm3.927-.033a1.538,1.538,0,1,0-1.538,1.538A1.47,1.47,0,0,0,447.684,101.032Zm4.979,2.193-2.4-3.089v3.089h-.808V98.9h.829l2.355,2.993V98.9h.808v4.32Z" transform="translate(-419.998 -98.839)"/>
          </g>
        </g>
      </g>
    </g>
  </g>
</svg>
