<svg xmlns="http://www.w3.org/2000/svg" viewBox="4415.091 -4563.036 35.038 35.038">
  <defs>
    <style>
      .cls-1, .cls-2 {
        fill: #c4702e;
      }

      .cls-1 {
        opacity: 0.08;
      }
    </style>
  </defs>
  <g id="Group_3114" data-name="Group 3114" transform="translate(4415.091 -4563.036)">
    <circle id="Ellipse_487" data-name="Ellipse 487" class="cls-1" cx="17.519" cy="17.519" r="17.519" transform="translate(0 0)"/>
    <g id="instagram" transform="translate(8.875 9.042)">
      <path id="Path_31" data-name="Path 31" class="cls-2" d="M12.265,0H5.2A5.21,5.21,0,0,0,0,5.2v7.061a5.21,5.21,0,0,0,5.2,5.2h7.061a5.21,5.21,0,0,0,5.2-5.2V5.2A5.21,5.21,0,0,0,12.265,0Zm3.447,12.265a3.447,3.447,0,0,1-3.447,3.447H5.2a3.447,3.447,0,0,1-3.447-3.447V5.2A3.447,3.447,0,0,1,5.2,1.757h7.061A3.447,3.447,0,0,1,15.712,5.2v7.061Z"/>
      <path id="Path_32" data-name="Path 32" class="cls-2" d="M137.518,133a4.518,4.518,0,1,0,4.518,4.518A4.523,4.523,0,0,0,137.518,133Zm0,7.279a2.761,2.761,0,1,1,2.761-2.761A2.761,2.761,0,0,1,137.518,140.279Z" transform="translate(-128.783 -128.783)"/>
      <ellipse id="Ellipse_2" data-name="Ellipse 2" class="cls-2" cx="1.083" cy="1.083" rx="1.083" ry="1.083" transform="translate(12.179 3.168)"/>
    </g>
  </g>
</svg>
