<svg xmlns="http://www.w3.org/2000/svg" viewBox="-5497.589 -452.023 34.88 27.73">
  <defs>
    <style>
      .cls-1 {
        fill: #fc0;
        stroke-width: 0.3px;
      }

      .cls-1, .cls-2 {
        stroke: #f1c40f;
      }

      .cls-2, .cls-3 {
        fill: #f1c40f;
      }

      .cls-2 {
        stroke-width: 0.2px;
      }
    </style>
  </defs>
  <g id="inviteOthers" transform="translate(-5497.439 -499.873)">
    <path id="Path_1354" data-name="Path 1354" class="cls-1" d="M59.655,57.309A4.655,4.655,0,1,0,55,52.655,4.66,4.66,0,0,0,59.655,57.309Zm0-8.192a3.537,3.537,0,1,1-3.537,3.537A3.542,3.542,0,0,1,59.655,49.117Z" transform="translate(-50.904 0)"/>
    <path id="Path_1355" data-name="Path 1355" class="cls-1" d="M224.655,57.309A4.655,4.655,0,1,0,220,52.655,4.66,4.66,0,0,0,224.655,57.309Zm0-8.192a3.537,3.537,0,1,1-3.537,3.537A3.541,3.541,0,0,1,224.655,49.117Z" transform="translate(-203.616 0)"/>
    <path id="Path_1356" data-name="Path 1356" class="cls-1" d="M224.68,206.087a.559.559,0,1,0,.884-.683,8.753,8.753,0,0,0-11.821-1.909.559.559,0,1,0,.625.926,7.636,7.636,0,0,1,10.312,1.667Z" transform="translate(-197.598 -142.531)"/>
    <path id="Path_1357" data-name="Path 1357" class="cls-1" d="M8.751,202A8.76,8.76,0,0,0,0,210.751a.559.559,0,1,0,1.117,0,7.633,7.633,0,0,1,15.267,0,.559.559,0,1,0,1.117,0A8.76,8.76,0,0,0,8.751,202Z" transform="translate(0 -142.531)"/>
    <path id="Path_1358" data-name="Path 1358" class="cls-2" d="M325.4,272a5.4,5.4,0,1,0,5.4,5.4A5.405,5.405,0,0,0,325.4,272Zm0,9.681a4.282,4.282,0,1,1,4.282-4.282A4.287,4.287,0,0,1,325.4,281.681Z" transform="translate(-296.169 -207.318)"/>
    <path id="Path_1359" data-name="Path 1359" class="cls-3" d="M364.282,313.862h-1.3v-1.3a.559.559,0,1,0-1.117,0v1.3h-1.3a.559.559,0,0,0,0,1.117h1.3v1.3a.559.559,0,0,0,1.117,0v-1.3h1.3a.559.559,0,1,0,0-1.117Z" transform="translate(-333.19 -244.339)"/>
  </g>
</svg>
