<svg xmlns="http://www.w3.org/2000/svg" viewBox="-8404 -228 110 37">
  <defs>
    <style>
      .cls-1 {
        fill: #1d1d1d;
      }

      .cls-2 {
        opacity: 0.5;
      }

      .cls-3, .cls-4 {
        fill: #e7e7e7;
        opacity: 0.7;
      }

      .cls-3 {
        font-size: 14px;
        font-family: SourceSansPro-Regular, Source Sans Pro;
      }
    </style>
  </defs>
  <g id="Group_3054" data-name="Group 3054" transform="translate(-8677 -884)">
    <rect id="Rectangle_2230" data-name="Rectangle 2230" class="cls-1" width="110" height="37" rx="4" transform="translate(273 656)"/>
    <g id="Group_3057" data-name="Group 3057" class="cls-2">
      <text id="Logout" class="cls-3" transform="translate(340 679.5)"><tspan x="-20.51" y="0">Logout</tspan></text>
      <g id="door" transform="translate(241.627 664)">
        <g id="Group_3051" data-name="Group 3051" transform="translate(68.611 1.866)">
          <g id="Group_3050" data-name="Group 3050" transform="translate(0)">
            <path id="Path_2228" data-name="Path 2228" class="cls-4" d="M412.745,46.819a.933.933,0,0,0-.66-.273h-.933v16.8h.933a.933.933,0,0,0,.933-.933V47.479A.933.933,0,0,0,412.745,46.819Z" transform="translate(-411.152 -46.546)"/>
          </g>
        </g>
        <g id="Group_3053" data-name="Group 3053" transform="translate(54.303 0)">
          <g id="Group_3052" data-name="Group 3052" transform="translate(0)">
            <path id="Path_2229" data-name="Path 2229" class="cls-4" d="M66.411.218a.932.932,0,0,0-.762-.2L55.074,1.881A.933.933,0,0,0,54.3,2.8V17.729a.933.933,0,0,0,.771.919l10.575,1.866a.933.933,0,0,0,1.1-.919V.933A.933.933,0,0,0,66.411.218ZM62.739,11.546a.934.934,0,1,1,.273-.66A.94.94,0,0,1,62.739,11.546Z" transform="translate(-54.303 0)"/>
          </g>
        </g>
      </g>
    </g>
  </g>
</svg>
