<svg width="22" height="14" viewBox="0 0 22 14" fill="none" xmlns="http://www.w3.org/2000/svg">
<path d="M6.78505 14C10.5323 14 13.5701 10.866 13.5701 7C13.5701 3.13401 10.5323 0 6.78505 0C3.03777 0 0 3.13401 0 7C0 10.866 3.03777 14 6.78505 14Z" fill="#EE0005"/>
<path d="M15.2147 14C18.962 14 21.9998 10.866 21.9998 7C21.9998 3.13401 18.962 0 15.2147 0C11.4675 0 8.42969 3.13401 8.42969 7C8.42969 10.866 11.4675 14 15.2147 14Z" fill="#F9A000"/>
<path d="M8.42969 7.00002C8.42969 9.22266 9.43397 11.2031 10.9997 12.4854C12.5655 11.2031 13.5698 9.22266 13.5698 7.00002C13.5698 4.77737 12.5655 2.79689 10.9997 1.51465C9.43403 2.79699 8.42969 4.77743 8.42969 7.00002Z" fill="#FF6300"/>
</svg>
