<svg xmlns="http://www.w3.org/2000/svg" viewBox="-6298.478 1197.984 19.264 28.279">
  <defs>
    <style>
      .cls-1 {
        fill: #c4702e;
        stroke: #c4702e;
        stroke-width: 0.4px;
      }
    </style>
  </defs>
  <g id="voucher" transform="translate(-6298.278 1198.184)">
    <g id="Group_1628" data-name="Group 1628" transform="translate(0 0)">
      <path id="Path_1607" data-name="Path 1607" class="cls-1" d="M104.839,16.957V11.5H95.168v5.457H90.6V39.379h18.863V16.957Zm-8.485-4.328h7.413v9.192H96.354Zm11.981,25.626H91.729V18.086h3.439v3.735H93.8V22.95h12.46V21.821h-1.426V18.086h3.5V38.255Z" transform="translate(-90.6 -11.5)"/>
      <rect id="Rectangle_1859" data-name="Rectangle 1859" class="cls-1" width="2.315" height="1.129" transform="translate(3.558 14.655)"/>
      <rect id="Rectangle_1860" data-name="Rectangle 1860" class="cls-1" width="2.315" height="1.129" transform="translate(8.303 14.655)"/>
      <rect id="Rectangle_1861" data-name="Rectangle 1861" class="cls-1" width="2.315" height="1.129" transform="translate(13.053 14.655)"/>
      <rect id="Rectangle_1862" data-name="Rectangle 1862" class="cls-1" width="2.315" height="1.129" transform="translate(3.558 18.687)"/>
      <rect id="Rectangle_1863" data-name="Rectangle 1863" class="cls-1" width="2.315" height="1.129" transform="translate(8.303 18.687)"/>
      <rect id="Rectangle_1864" data-name="Rectangle 1864" class="cls-1" width="2.315" height="1.129" transform="translate(13.053 18.687)"/>
      <rect id="Rectangle_1865" data-name="Rectangle 1865" class="cls-1" width="2.315" height="1.129" transform="translate(3.558 22.661)"/>
      <rect id="Rectangle_1866" data-name="Rectangle 1866" class="cls-1" width="2.315" height="1.129" transform="translate(8.303 22.661)"/>
      <rect id="Rectangle_1867" data-name="Rectangle 1867" class="cls-1" width="2.315" height="1.129" transform="translate(13.053 22.661)"/>
      <rect id="Rectangle_1868" data-name="Rectangle 1868" class="cls-1" width="3.798" height="1.129" transform="translate(7.533 2.971)"/>
      <rect id="Rectangle_1869" data-name="Rectangle 1869" class="cls-1" width="3.798" height="1.129" transform="translate(7.533 6.233)"/>
    </g>
  </g>
</svg>
