<svg xmlns="http://www.w3.org/2000/svg" viewBox="-5533.523 -821.68 21.114 23.341">
  <defs>
    <style>
      .cls-1, .cls-2 {
        opacity: 0.9;
      }

      .cls-2 {
        fill: #151515;
      }

      .cls-3 {
        fill: #c4702e;
      }

      .cls-4, .cls-5 {
        stroke: none;
      }

      .cls-5 {
        fill: #fff;
      }
    </style>
  </defs>
  <g id="notifications-button" class="cls-1" transform="translate(-5533.523 -821.68)">
    <g id="notifications" transform="translate(0 0)">
      <path id="Path_1104" data-name="Path 1104" class="cls-2" d="M47.012,20.617a2.068,2.068,0,0,0,2.062-2.062H44.95A2.068,2.068,0,0,0,47.012,20.617Zm6.7-6.185V8.762a6.633,6.633,0,0,0-5.154-6.494V1.546a1.546,1.546,0,1,0-3.092,0v.722a6.633,6.633,0,0,0-5.154,6.494v5.67L38.25,16.493v1.031H55.774V16.493Z" transform="translate(-38.25 2.725)"/>
      <g id="Path_2181" data-name="Path 2181" class="cls-3" transform="translate(10.216)">
        <path class="cls-4" d="M 5.44943380355835 10.14886379241943 C 2.858163833618164 10.14886379241943 0.7500038146972656 8.040703773498535 0.7500038146972656 5.44943380355835 C 0.7500038146972656 2.858163833618164 2.858163833618164 0.7500038146972656 5.44943380355835 0.7500038146972656 C 8.040703773498535 0.7500038146972656 10.14886379241943 2.858163833618164 10.14886379241943 5.44943380355835 C 10.14886379241943 8.040703773498535 8.040703773498535 10.14886379241943 5.44943380355835 10.14886379241943 Z"/>
        <path class="cls-5" d="M 5.44943380355835 9.398863792419434 C 7.627153873443604 9.398863792419434 9.398863792419434 7.627153873443604 9.398863792419434 5.44943380355835 C 9.398863792419434 3.271713733673096 7.627153873443604 1.500003814697266 5.44943380355835 1.500003814697266 C 3.271713733673096 1.500003814697266 1.500003814697266 3.271713733673096 1.500003814697266 5.44943380355835 C 1.500003814697266 7.627153873443604 3.271713733673096 9.398863792419434 5.44943380355835 9.398863792419434 M 5.44943380355835 10.89886379241943 C 2.439793825149536 10.89886379241943 3.803558456638712e-06 8.459074020385742 3.803558456638712e-06 5.44943380355835 C 3.803558456638712e-06 2.439793825149536 2.439793825149536 3.803558456638712e-06 5.44943380355835 3.803558456638712e-06 C 8.459074020385742 3.803558456638712e-06 10.89886379241943 2.439793825149536 10.89886379241943 5.44943380355835 C 10.89886379241943 8.459074020385742 8.459074020385742 10.89886379241943 5.44943380355835 10.89886379241943 Z"/>
      </g>
    </g>
  </g>
</svg>
