<svg width="344" height="324" viewBox="0 0 344 324" fill="none" xmlns="http://www.w3.org/2000/svg">
<path fill-rule="evenodd" clip-rule="evenodd" d="M15 6C15 4.89543 15.8954 4 17 4L233.569 4C234.191 4 234.777 4.28924 235.156 4.78262L342.944 145.28C343.212 145.629 343.357 146.057 343.357 146.497V323.889H111.5L15.5616 224.581C15.2014 224.208 15 223.71 15 223.192V6Z" fill="url(#paint0_linear)"/>
<g filter="url(#filter0_d)">
<rect x="12" y="1" width="220" height="220" rx="4" fill="white"/>
</g>
<path opacity="0.487092" fill-rule="evenodd" clip-rule="evenodd" d="M27 18.0001C27 16.8955 27.8954 16.0001 29 16.0001H216C217.105 16.0001 218 16.8955 218 18.0001V206C218 207.105 217.105 208 216 208H29C27.8954 208 27 207.105 27 206V18.0001Z" fill="url(#paint1_linear)"/>
<path fill-rule="evenodd" clip-rule="evenodd" d="M25.9994 15H218.999V160.066L215.026 153.028L211.367 165.757L205.57 159.523L200.559 162.066L185.71 159.523L182.962 208L176.604 208.107L171.97 206.456L162.748 208L156.384 205.398L146.77 208L141.77 147.991L136.441 208L128.358 206.401L120.857 208.774L111.02 206L95.9372 208L91.4904 204.931L86.7454 208H76.2716V75C76.2716 75 72.2634 132.981 64.7108 147.991C61.483 154.406 56.283 156.147 52.8804 157.636C48.3213 159.632 44.876 160.066 33.5166 160.066C13.6794 160.066 6.83203 139.029 6.83203 139.029C6.83203 139.029 14.4771 133.698 19.2609 122.855C24.0448 112.012 25.9994 75 25.9994 75V15Z" fill="url(#paint2_linear)"/>
<mask id="mask0" mask-type="alpha" maskUnits="userSpaceOnUse" x="6" y="15" width="213" height="194">
<path fill-rule="evenodd" clip-rule="evenodd" d="M25.9994 15H218.999V160.066L215.026 153.028L211.367 165.757L205.57 159.523L200.559 162.066L185.71 159.523L182.962 208L176.604 208.107L171.97 206.456L162.748 208L156.384 205.398L146.77 208L141.77 147.991L136.441 208L128.358 206.401L120.857 208.774L111.02 206L95.9372 208L91.4904 204.931L86.7454 208H76.2716V75C76.2716 75 72.2634 132.981 64.7108 147.991C61.483 154.406 56.283 156.147 52.8804 157.636C48.3213 159.632 44.876 160.066 33.5166 160.066C13.6794 160.066 6.83203 139.029 6.83203 139.029C6.83203 139.029 14.4771 133.698 19.2609 122.855C24.0448 112.012 25.9994 75 25.9994 75V15Z" fill="white"/>
</mask>
<g mask="url(#mask0)">
<path opacity="0.2" d="M80.7697 123V113.142H61.8907V104.214L75.5617 56.784H85.6057L71.3767 104.214H80.7697V85.335H90.2557V104.214H94.8127V113.142H90.2557V123H80.7697ZM114.861 70.455C114.861 68.223 115.233 66.239 115.977 64.503C116.783 62.767 117.837 61.279 119.139 60.039C120.441 58.799 121.929 57.869 123.603 57.249C125.339 56.567 127.137 56.226 128.997 56.226C130.857 56.226 132.624 56.567 134.298 57.249C136.034 57.869 137.553 58.799 138.855 60.039C140.157 61.279 141.18 62.767 141.924 64.503C142.73 66.239 143.133 68.223 143.133 70.455V109.329C143.133 111.561 142.73 113.545 141.924 115.281C141.18 117.017 140.157 118.505 138.855 119.745C137.553 120.985 136.034 121.946 134.298 122.628C132.624 123.248 130.857 123.558 128.997 123.558C127.137 123.558 125.339 123.248 123.603 122.628C121.929 121.946 120.441 120.985 119.139 119.745C117.837 118.505 116.783 117.017 115.977 115.281C115.233 113.545 114.861 111.561 114.861 109.329V70.455ZM124.347 109.329C124.347 110.693 124.781 111.84 125.649 112.77C126.517 113.638 127.633 114.072 128.997 114.072C130.361 114.072 131.477 113.638 132.345 112.77C133.213 111.84 133.647 110.693 133.647 109.329V70.455C133.647 69.091 133.213 67.975 132.345 67.107C131.477 66.177 130.361 65.712 128.997 65.712C127.633 65.712 126.517 66.177 125.649 67.107C124.781 67.975 124.347 69.091 124.347 70.455V109.329ZM182.06 123V113.142H163.181V104.214L176.852 56.784H186.896L172.667 104.214H182.06V85.335H191.546V104.214H196.103V113.142H191.546V123H182.06Z" fill="url(#paint3_linear)"/>
</g>
<path fill-rule="evenodd" clip-rule="evenodd" d="M0.9375 130.557H52.2645C52.2645 130.557 56.1471 150.019 64.8914 147.769C61.0964 155.489 53.1836 161.496 36.3545 161.496C19.5255 161.496 12.5566 155.072 8.39138 150.578C4.2262 146.085 0.9375 130.557 0.9375 130.557Z" fill="url(#paint4_linear)"/>
<defs>
<filter id="filter0_d" x="7" y="0" width="250" height="250" filterUnits="userSpaceOnUse" color-interpolation-filters="sRGB">
<feFlood flood-opacity="0" result="BackgroundImageFix"/>
<feColorMatrix in="SourceAlpha" type="matrix" values="0 0 0 0 0 0 0 0 0 0 0 0 0 0 0 0 0 0 127 0"/>
<feOffset dx="10" dy="14"/>
<feGaussianBlur stdDeviation="7.5"/>
<feColorMatrix type="matrix" values="0 0 0 0 0.230539 0 0 0 0 0.370572 0 0 0 0 0.482993 0 0 0 0.0403646 0"/>
<feBlend mode="normal" in2="BackgroundImageFix" result="effect1_dropShadow"/>
<feBlend mode="normal" in="SourceGraphic" in2="effect1_dropShadow" result="shape"/>
</filter>
<linearGradient id="paint0_linear" x1="366.093" y1="124.51" x2="133.385" y2="-118.527" gradientUnits="userSpaceOnUse">
<stop stop-color="white" stop-opacity="0.01"/>
<stop offset="1" stop-color="#A4B0D5"/>
</linearGradient>
<linearGradient id="paint1_linear" x1="105.046" y1="170.976" x2="85.3231" y2="114.775" gradientUnits="userSpaceOnUse">
<stop stop-color="#C4C8DE" stop-opacity="0.01"/>
<stop offset="1" stop-color="#6B798E"/>
</linearGradient>
<linearGradient id="paint2_linear" x1="17.3848" y1="1.73302" x2="-6.94006" y2="176.888" gradientUnits="userSpaceOnUse">
<stop stop-color="#F6F8FA"/>
<stop offset="1" stop-color="#E9EDF3"/>
</linearGradient>
<linearGradient id="paint3_linear" x1="65.8908" y1="48.7069" x2="57.9527" y2="146.221" gradientUnits="userSpaceOnUse">
<stop stop-color="#7B86A4"/>
<stop offset="1" stop-color="#454E6B"/>
</linearGradient>
<linearGradient id="paint4_linear" x1="-14.367" y1="131.664" x2="-13.2931" y2="173.072" gradientUnits="userSpaceOnUse">
<stop stop-color="#DFE2EA"/>
<stop offset="1" stop-color="#CBD0DE"/>
</linearGradient>
</defs>
</svg>
