<svg width="131" height="131" viewBox="0 0 131 131" fill="none" xmlns="http://www.w3.org/2000/svg">
<path fill-rule="evenodd" clip-rule="evenodd" d="M31.0142 68.7513H37.2151V74.9521H43.4116V81.1486H12.4335V74.9521H18.6299V62.5548H31.0273V68.7513H31.0142ZM111.556 124.502H117.744V118.306H111.556V124.502ZM37.2108 68.7513H43.4073V62.5548H37.2108V68.7513ZM123.931 124.502H130.132V118.306H123.931V124.502ZM49.6081 130.694H61.9924V124.498H49.6081V130.694ZM105.355 130.694V124.498H99.1542V130.694H105.355ZM80.5777 130.694H86.7741V118.301H80.5777V130.694ZM31.0143 50.1661V56.3626H49.5994V50.1661H31.0143ZM24.8265 56.3583V50.1618H12.4291V62.5548H18.6256V56.3583H24.8265ZM43.4087 43.9661H0.0462966V0.60803H43.4087V43.9661ZM37.2108 6.80371H6.23263V37.7731H37.2108V6.80371ZM12.4291 118.306H31.0099V99.7207H12.4291V118.306ZM74.3768 112.105V118.306H80.582V112.105H74.3768ZM31.0142 13.0002H12.4335V31.5767H31.0142V13.0002ZM130.128 0.607221V43.9696H86.7655V0.607221H130.128ZM123.931 6.80371H92.962V37.7731H123.931V6.80371ZM0.0361328 87.3234H43.4029V130.686H0.0361328V87.3234ZM6.23696 124.502H37.2151V93.5242H6.23696V124.502ZM6.23697 50.1661H0.0361328V81.1443H6.23697V50.1661ZM86.7655 81.1356V87.3234H92.962V81.1356H86.7655ZM68.1803 105.917V99.7207H61.9881V105.922H49.6038V118.319H61.9881V124.515H68.1803V112.118H74.3811V105.922H68.1803V105.917ZM49.6081 25.3888H61.9924V19.1837H49.6081V25.3888ZM99.1584 74.9478H111.56V81.1443H117.752V62.5635H111.56V50.1661H105.355V68.7513H86.7828V74.9521H92.9793V81.1486H99.1758V74.9521H99.1584V74.9478ZM105.355 93.5242H99.1541V87.3234H92.9576V99.7207H74.3768V105.922H86.7785V118.319H92.975V124.515H99.1715V112.118H123.944V105.922H105.364V93.5242H105.355ZM105.355 93.5242H111.56V81.1356H105.355V93.5242ZM55.796 93.5242V87.3234H61.9838V81.1356H68.176V74.9391H74.3768V62.5417H92.9576V50.1444H86.7611V56.3409H80.5646V31.5636H74.3681V19.1663H80.5646V0.602875H74.3681V12.9959H68.1716V0.602875H49.5908V12.9959H55.7873V6.79937H61.9751V19.1837H68.1716V37.7688H74.3681V43.9653H68.1716V56.3583H61.9751V43.9653H55.7873V37.7731H49.5908V50.1661H55.7873V56.3626H49.5908V74.9521H55.7873V62.5548H61.9751V74.9521H55.7873V81.1486H49.5908V99.7207H61.9751V93.5242H55.796ZM123.931 99.7207V93.5242H111.547V99.7207H123.931ZM117.735 13.0002H99.1585V31.5767H117.735V13.0002ZM68.1803 93.5242H80.582V87.3234H74.3768V81.1356H68.176V93.5242H68.1803ZM80.5777 81.1356V74.9391H74.3725V81.1356H80.5777ZM117.735 56.3583H130.132V50.1618H117.735V56.3583ZM123.931 105.917H130.132V99.7207H123.931V105.917ZM123.931 68.7513H130.132V62.5548H123.931V68.7513ZM68.1803 37.7731H61.9882V43.9696H68.1803V37.7731Z" fill="#C9874A"/>
</svg>
