<svg width="45" height="45" viewBox="0 0 45 45" fill="none" xmlns="http://www.w3.org/2000/svg">
<path opacity="0.05" d="M22.5 43.5938C34.1498 43.5938 43.5938 34.1498 43.5938 22.5C43.5938 10.8502 34.1498 1.40625 22.5 1.40625C10.8502 1.40625 1.40625 10.8502 1.40625 22.5C1.40625 34.1498 10.8502 43.5938 22.5 43.5938Z" fill="#C9874A"/>
<path opacity="0.15" d="M22.5 40.5176C32.4508 40.5176 40.5176 32.4508 40.5176 22.5C40.5176 12.5492 32.4508 4.48242 22.5 4.48242C12.5492 4.48242 4.48242 12.5492 4.48242 22.5C4.48242 32.4508 12.5492 40.5176 22.5 40.5176Z" fill="#C9874A"/>
<path d="M34.2584 14.9983H18.849C18.3129 14.9983 17.8784 15.4328 17.8784 15.969V16.4963V19.6407H10.7265C10.1904 19.6407 9.75586 20.0752 9.75586 20.6113V21.1387V30.965V31.4924C9.75586 32.0285 10.1904 32.463 10.7265 32.463H26.1357C26.6718 32.463 27.1063 32.0285 27.1063 31.4924V30.965V27.8207H34.2582C34.7943 27.8207 35.2288 27.3861 35.2288 26.85V26.3226V16.4961V15.9688C35.229 15.4328 34.7943 14.9983 34.2584 14.9983Z" fill="#C9874A" fill-opacity="0.2"/>
<path d="M26.1357 31.2325H10.7265C10.1904 31.2325 9.75586 30.798 9.75586 30.2619V19.9082C9.75586 19.372 10.1904 18.9375 10.7265 18.9375H26.1357C26.6718 18.9375 27.1063 19.372 27.1063 19.9082V30.2619C27.1063 30.7978 26.6718 31.2325 26.1357 31.2325Z" fill="#D1D3D4"/>
<path d="M26.1357 30.7052H10.7265C10.1904 30.7052 9.75586 30.2706 9.75586 29.7345V19.3808C9.75586 18.8447 10.1904 18.4102 10.7265 18.4102H26.1357C26.6718 18.4102 27.1063 18.8447 27.1063 19.3808V29.7345C27.1063 30.2706 26.6718 30.7052 26.1357 30.7052Z" fill="white"/>
<path d="M26.1357 18.4102H10.7265C10.1904 18.4102 9.75586 18.8449 9.75586 19.3808V21.12H27.1063V19.3808C27.1063 18.8447 26.6718 18.4102 26.1357 18.4102Z" fill="#9597AC"/>
<path d="M11.7391 19.5703C11.7391 19.7895 11.5614 19.9672 11.3422 19.9672C11.123 19.9672 10.9453 19.7895 10.9453 19.5703C10.9453 19.3511 11.123 19.1733 11.3422 19.1733C11.5614 19.1733 11.7391 19.3511 11.7391 19.5703Z" fill="white"/>
<path d="M9.75586 20.5615H27.1063V21.1196H9.75586V20.5615Z" fill="#686B89"/>
<path d="M15.3915 23.3181H11.3723C11.1366 23.3181 10.9453 23.127 10.9453 22.8911C10.9453 22.6552 11.1366 22.4641 11.3723 22.4641H15.3915C15.6272 22.4641 15.8185 22.6552 15.8185 22.8911C15.8185 23.1268 15.6272 23.3181 15.3915 23.3181Z" fill="#D1D3D4"/>
<path d="M15.3915 25.0327H11.3723C11.1366 25.0327 10.9453 24.8416 10.9453 24.6057C10.9453 24.3698 11.1366 24.1787 11.3723 24.1787H15.3915C15.6272 24.1787 15.8185 24.3698 15.8185 24.6057C15.8185 24.8416 15.6272 25.0327 15.3915 25.0327Z" fill="#D1D3D4"/>
<path d="M15.3915 27.5754H11.3723C11.1366 27.5754 10.9453 27.3843 10.9453 27.1484C10.9453 26.9125 11.1366 26.7214 11.3723 26.7214H15.3915C15.6272 26.7214 15.8185 26.9125 15.8185 27.1484C15.8185 27.3843 15.6272 27.5754 15.3915 27.5754Z" fill="#D1D3D4"/>
<path d="M16.8148 29.2902H11.3723C11.1366 29.2902 10.9453 29.0991 10.9453 28.8633C10.9453 28.6274 11.1366 28.4363 11.3723 28.4363H16.8148C17.0507 28.4363 17.2418 28.6274 17.2418 28.8633C17.2418 29.0991 17.0507 29.2902 16.8148 29.2902Z" fill="#D1D3D4"/>
<path d="M25.1937 29.2902H19.7512C19.5155 29.2902 19.3242 29.0991 19.3242 28.8633C19.3242 28.6274 19.5155 28.4363 19.7512 28.4363H25.1937C25.4296 28.4363 25.6207 28.6274 25.6207 28.8633C25.6209 29.0991 25.4296 29.2902 25.1937 29.2902Z" fill="#D1D3D4"/>
<path d="M26.1343 18.4102H17.877V26.3226C17.877 26.8587 18.3115 27.2933 18.8476 27.2933H27.1049V19.3808C27.1049 18.8447 26.6704 18.4102 26.1343 18.4102Z" fill="#D1D3D4"/>
<path d="M34.2589 26.5899H18.8496C18.3134 26.5899 17.8789 26.1554 17.8789 25.6193V15.2656C17.8789 14.7295 18.3134 14.2949 18.8496 14.2949H34.2587C34.7949 14.2949 35.2294 14.7295 35.2294 15.2656V25.6193C35.2296 26.1554 34.7949 26.5899 34.2589 26.5899Z" fill="#B57336"/>
<path d="M34.2589 26.0626H18.8496C18.3134 26.0626 17.8789 25.6281 17.8789 25.0919V14.7382C17.8789 14.2021 18.3134 13.7676 18.8496 13.7676H34.2587C34.7949 13.7676 35.2294 14.2021 35.2294 14.7382V25.0919C35.2296 25.6281 34.7949 26.0626 34.2589 26.0626Z" fill="#C9874A"/>
<path d="M34.2589 13.7676H18.8496C18.3134 13.7676 17.8789 14.2021 17.8789 14.7382V16.4774H35.2294V14.7382C35.2296 14.2023 34.7949 13.7676 34.2589 13.7676Z" fill="#C9874A"/>
<path d="M19.8622 14.9282C19.8622 15.1474 19.6845 15.3251 19.4653 15.3251C19.2461 15.3251 19.0684 15.1474 19.0684 14.9282C19.0684 14.709 19.2461 14.5312 19.4653 14.5312C19.6845 14.5312 19.8622 14.709 19.8622 14.9282Z" fill="#E7AD27"/>
<path d="M17.8789 15.9192H35.2294V16.4773H17.8789V15.9192Z" fill="#B57336"/>
<path d="M30.3193 21.5099C30.3185 21.493 30.3171 21.4763 30.3148 21.4596C30.3111 21.4318 30.3058 21.404 30.2986 21.3768C30.2972 21.3713 30.2956 21.3659 30.294 21.3605C30.2814 21.317 30.2643 21.2747 30.2425 21.2342C30.2072 21.1685 30.1597 21.1075 30.1003 21.0546L29.9878 20.9547L26.8489 18.1683C26.4274 17.794 25.7615 18.0934 25.7615 18.6569V19.8192H23.3793C22.8785 19.8192 22.4727 20.2251 22.4727 20.7259V22.361C22.4727 22.4158 22.4776 22.4695 22.4869 22.5215C22.4883 22.5289 22.4897 22.5364 22.4911 22.5436C22.4941 22.5584 22.4974 22.573 22.5013 22.5876C22.5069 22.6094 22.5133 22.6306 22.5205 22.6517C22.5252 22.6658 22.5303 22.6797 22.5358 22.6934C22.5493 22.7277 22.5648 22.7611 22.5823 22.7931C22.5894 22.8059 22.5966 22.8186 22.6041 22.831C22.6193 22.856 22.6356 22.8801 22.653 22.9035C22.6618 22.9151 22.6708 22.9265 22.6799 22.9377C22.689 22.949 22.6987 22.9599 22.7084 22.9706C22.7279 22.9921 22.7485 23.0126 22.7699 23.0321C22.7861 23.0467 22.8026 23.0608 22.8198 23.0743C22.8712 23.1148 22.927 23.1496 22.9865 23.1782C22.9931 23.1814 22.9996 23.1845 23.0065 23.1875C23.0332 23.1997 23.0608 23.2106 23.0888 23.22C23.18 23.251 23.2779 23.2677 23.3795 23.2677H25.7617V24.4299C25.7617 24.7383 25.9609 24.9675 26.2103 25.0506C26.2245 25.0554 26.2389 25.0596 26.2535 25.0635C26.2623 25.0657 26.2711 25.0679 26.2801 25.0698C26.3154 25.0775 26.3513 25.0823 26.3875 25.084C26.395 25.0844 26.4026 25.0846 26.4102 25.0847C26.4253 25.0849 26.4406 25.0846 26.4557 25.0837C26.4708 25.0828 26.4861 25.0814 26.5014 25.0795C26.623 25.0636 26.7438 25.0123 26.8491 24.9186L30.1005 22.0323C30.1096 22.0242 30.1186 22.0158 30.127 22.0073C30.1443 21.9903 30.1603 21.9725 30.175 21.9542C30.1824 21.9451 30.1896 21.9358 30.1965 21.9263C30.217 21.8978 30.2351 21.8681 30.2506 21.8373C30.2533 21.8322 30.2557 21.8272 30.2582 21.8219C30.2728 21.7909 30.2847 21.7589 30.2942 21.7264C30.2958 21.721 30.2974 21.7155 30.2988 21.7101C30.306 21.6828 30.3113 21.6551 30.315 21.6273C30.3178 21.605 30.3195 21.5826 30.32 21.5601C30.3202 21.5545 30.3202 21.5489 30.3202 21.5433C30.3202 21.5324 30.3199 21.5211 30.3193 21.5099Z" fill="#B57336"/>
<path d="M26.8491 24.3913L30.1005 21.505C30.3934 21.245 30.3934 20.7875 30.1005 20.5275L26.8491 17.6412C26.4276 17.2669 25.7617 17.5663 25.7617 18.1298V19.2921H23.3793C22.8785 19.2921 22.4727 19.698 22.4727 20.1988V21.8339C22.4727 22.3347 22.8785 22.7406 23.3793 22.7406H25.7617V23.9028C25.7617 24.4664 26.4276 24.7656 26.8491 24.3913Z" fill="white"/>
<path d="M23.3793 21.5633H25.7617V22.7255C25.7617 23.2893 26.4276 23.5885 26.8491 23.2142L29.988 20.4277L30.1005 20.5276C30.3934 20.7876 30.3934 21.2451 30.1005 21.5051L26.8491 24.3914C26.4276 24.7657 25.7617 24.4663 25.7617 23.9026V22.7403H23.3793C22.8787 22.7403 22.4727 22.3344 22.4727 21.8336V20.6564C22.4727 21.1574 22.8787 21.5633 23.3793 21.5633Z" fill="#F3F3F3"/>
</svg>
