<svg xmlns="http://www.w3.org/2000/svg" viewBox="-6013.728 -12956.193 15.032 15.032">
  <defs>
    <style>
      .cls-1 {
        fill: #151515;
        stroke: #151515;
        stroke-width: 0.6px;
      }
    </style>
  </defs>
  <g id="settings" transform="translate(-6013.428 -12955.894)">
    <path id="Path_1351" data-name="Path 1351" class="cls-1" d="M13.689,5.613h-1.35a.518.518,0,0,1-.367-.885l.955-.954a.744.744,0,0,0,0-1.051L11.71,1.505a.761.761,0,0,0-1.051,0L9.7,2.46a.518.518,0,0,1-.885-.366V.743A.744.744,0,0,0,8.077,0H6.355a.744.744,0,0,0-.743.743v1.35a.518.518,0,0,1-.885.366l-.954-.954a.761.761,0,0,0-1.051,0L1.505,2.722a.744.744,0,0,0,0,1.051l.955.954a.518.518,0,0,1-.367.885H.743A.744.744,0,0,0,0,6.356V8.077a.744.744,0,0,0,.743.743h1.35A.518.518,0,0,1,2.46,9.7l-.955.954a.744.744,0,0,0,0,1.051l1.217,1.217a.76.76,0,0,0,1.051,0l.954-.955a.518.518,0,0,1,.885.367v1.35a.744.744,0,0,0,.743.743H8.076a.744.744,0,0,0,.743-.743v-1.35a.518.518,0,0,1,.885-.367l.954.955a.761.761,0,0,0,1.051,0l1.217-1.217a.744.744,0,0,0,0-1.051L11.972,9.7a.518.518,0,0,1,.367-.885h1.35a.744.744,0,0,0,.743-.743V6.356A.744.744,0,0,0,13.689,5.613ZM13.9,8.077a.209.209,0,0,1-.208.208h-1.35a1.053,1.053,0,0,0-.745,1.8l.955.954a.209.209,0,0,1,0,.3l-1.217,1.217a.209.209,0,0,1-.3,0l-.954-.955a1.053,1.053,0,0,0-1.8.745v1.35a.209.209,0,0,1-.208.208H6.355a.209.209,0,0,1-.208-.208v-1.35a1.037,1.037,0,0,0-.65-.973,1.065,1.065,0,0,0-.41-.083,1.038,1.038,0,0,0-.738.311l-.954.955a.209.209,0,0,1-.3,0L1.883,11.332a.209.209,0,0,1,0-.3l.955-.954a1.053,1.053,0,0,0-.745-1.8H.743a.209.209,0,0,1-.208-.208V6.356a.209.209,0,0,1,.208-.208h1.35a1.053,1.053,0,0,0,.745-1.8L1.883,3.4a.209.209,0,0,1,0-.3L3.1,1.883a.209.209,0,0,1,.3,0l.954.954a1.053,1.053,0,0,0,1.8-.744V.743A.209.209,0,0,1,6.355.535H8.076a.209.209,0,0,1,.209.208v1.35a1.053,1.053,0,0,0,1.8.745l.954-.954a.209.209,0,0,1,.3,0L12.549,3.1a.209.209,0,0,1,0,.3l-.955.954a1.053,1.053,0,0,0,.745,1.8h1.35a.208.208,0,0,1,.208.208Z"/>
    <path id="Path_1352" data-name="Path 1352" class="cls-1" d="M20.405,18a2.405,2.405,0,1,0,2.405,2.405A2.408,2.408,0,0,0,20.405,18Zm0,4.276a1.871,1.871,0,1,1,1.871-1.871A1.873,1.873,0,0,1,20.405,22.276Z" transform="translate(-13.189 -13.189)"/>
  </g>
</svg>
