<svg width="106" height="19" viewBox="0 0 106 19" fill="none" xmlns="http://www.w3.org/2000/svg">
<g clip-path="url(#clip0)">
<path d="M0 0.000943631L106 0V19.0746L0 19.0756V0.000943631Z" fill="white"/>
<path d="M1.79675 2.01588L83.6209 2.01514V16.9751L1.79675 16.9758V2.01588Z" fill="#EC1B24"/>
<path d="M59.9625 4.7056C60.6666 4.7056 61.1032 4.95402 61.7617 5.75843L66.6579 12.4606C66.9183 12.8118 66.8928 13.3707 66.4438 13.7338C66.0457 14.0554 65.3417 14.085 64.9599 13.6022L63.7882 12.051H56.0765L54.9063 13.631C54.4936 14.0997 53.9881 14.0997 53.5298 13.807C53.053 13.5031 52.9324 12.9146 53.2238 12.5042L58.1655 5.75843C58.7931 4.92445 59.2893 4.7056 59.9625 4.7056ZM60.2554 7.18611C60.1263 7.00497 60.0784 6.98796 59.9408 6.98796C59.787 6.98796 59.7267 7.06116 59.6224 7.19498C59.4539 7.41013 57.4908 10.1782 57.4684 10.1782H62.4264C62.4171 10.1782 60.529 7.57352 60.2554 7.18611Z" fill="white"/>
<path d="M26.5666 4.71671H33.6198C35.3696 4.71671 35.5304 6.64345 35.5304 6.64345H26.8525C26.4228 6.64345 26.024 6.95397 26.024 7.49369C26.024 8.10957 26.5132 8.40235 26.8216 8.40235H32.9544C34.1693 8.40235 35.8982 9.37016 35.8982 11.0418C35.8982 13.2118 33.8896 13.9829 33.1901 13.9829H26.0147C23.8824 13.9829 24.0006 12.0385 24.0006 12.0385H32.8933C33.2488 12.0385 33.7728 11.7013 33.7728 11.1971C33.7728 10.7158 33.313 10.3468 32.9752 10.3468H26.9654C25.2604 10.3468 23.9396 9.13579 23.9396 7.49369C23.9396 5.64607 25.5974 4.71671 26.5666 4.71671Z" fill="white"/>
<path d="M71.7766 4.70413H79.0602C80.1638 4.70413 81.8757 5.56695 81.8757 7.63047V7.76207C81.8757 8.86074 81.1562 9.82559 80.1468 10.2936C80.1468 10.2936 80.2195 10.3993 81.7838 12.4296C81.9863 12.692 81.9979 13.3227 81.5542 13.7027C81.1315 14.0657 80.4258 14.1116 80.0703 13.7175C79.5734 13.1674 78.9991 12.4444 77.4232 10.528H74.5767C73.766 10.528 72.6646 9.91283 72.6646 8.55244H78.8152C79.1491 8.53913 79.6847 8.23304 79.6847 7.63195C79.6847 7.07596 79.1699 6.6952 78.8121 6.6952H72.0185L72.0239 12.8547C72.0247 13.5275 71.486 13.9807 70.9048 13.9807C70.3538 13.9807 69.8035 13.5127 69.8035 12.8835V6.60647C69.8035 5.55216 70.9659 4.70413 71.7766 4.70413Z" fill="white"/>
<path d="M41.7574 4.71967H49.041C50.1447 4.71967 51.8566 5.58322 51.8566 7.646V7.77761C51.8566 8.87701 51.1378 9.84112 50.1277 10.3091C50.1277 10.3091 49.6052 10.4703 49.116 10.5295H44.5406C43.7298 10.5295 42.6895 9.90027 42.6895 8.53913H48.779C49.1129 8.52583 49.6655 8.24857 49.6655 7.64748C49.6655 7.09149 49.1508 6.71073 48.7929 6.71073L42.0009 6.70999L42.0048 12.8702C42.0055 13.543 41.4668 13.9963 40.8856 13.9963C40.3346 13.9963 39.7843 13.5282 39.7843 12.8991V6.62201C39.7843 5.5677 40.9467 4.71967 41.7574 4.71967Z" fill="white"/>
<path d="M87.5208 9.69694C87.5208 12.5678 89.0317 15.1385 91.6935 16.3962C94.1953 17.5784 97.5287 17.5784 100.038 16.3962C102.513 15.2302 104.203 12.5678 104.203 9.69694C104.203 5.30595 100.531 1.71716 95.8616 1.71716C91.171 1.71716 87.5208 5.27786 87.5208 9.69694Z" fill="#157946"/>
<path d="M95.8663 3.78585C95.027 6.50887 92.5252 10.4991 90.7004 12.4554H95.027L95.037 13.6413C95.027 14.3134 94.4682 15.0114 93.6551 15.0017C92.5252 14.9892 91.1124 14.4894 90.2583 13.1031C89.6362 12.0917 89.1848 11.2947 89.1848 9.69693C89.1848 6.20647 92.124 3.31415 95.8624 3.31415C99.5599 3.31415 102.54 6.29076 102.54 9.69693C102.54 11.2947 101.76 12.6765 101.503 13.075C100.59 14.4894 99.1997 14.9892 98.1239 15.0017C97.3819 15.0106 96.6979 14.4894 96.6979 13.6376V12.4554H101.091C99.1997 10.4991 96.6979 6.50887 95.8663 3.78585Z" fill="white"/>
</g>
<defs>
<clipPath id="clip0">
<rect width="106" height="19" fill="white"/>
</clipPath>
</defs>
</svg>
