<svg xmlns="http://www.w3.org/2000/svg" viewBox="-5496.128 -607.959 25.46 30.874">
  <defs>
    <style>
      .cls-1, .cls-2 {
        fill: #3498dc;
        stroke: #3498dc;
      }

      .cls-1 {
        stroke-width: 0.2px;
      }

      .cls-2 {
        stroke-width: 0.1px;
      }
    </style>
  </defs>
  <g id="t-history" transform="translate(-5496.028 -607.859)">
    <g id="Layer_1" data-name="Layer 1" transform="translate(0 0)">
      <path id="Path_1353" data-name="Path 1353" class="cls-1" d="M49.373,23.819a.745.745,0,1,0,0-1.488H45.918V19.422a.745.745,0,0,0-1.488,0v3.66a.742.742,0,0,0,.743.736Z" transform="translate(-38.175 -16.076)"/>
      <path id="Path_1353-2" data-name="Path 1353" class="cls-1" d="M7,14a7,7,0,1,1,7-7h0a7.007,7.007,0,0,1-7,7Zm0-1.488A5.516,5.516,0,1,0,1.484,7h0A5.521,5.521,0,0,0,7,12.516Z" transform="translate(0 0)"/>
      <path id="Path_2126" data-name="Path 2126" class="cls-1" d="M88.354,102.7H80.317a.745.745,0,1,0,0,1.488h8.037a.745.745,0,1,0,0-1.488Z" transform="translate(-68.342 -88.237)"/>
      <path id="Path_2127" data-name="Path 2127" class="cls-1" d="M88.354,131.886H80.317a.745.745,0,1,0,0,1.488h8.037a.745.745,0,1,0,0-1.488Z" transform="translate(-68.342 -113.318)"/>
      <path id="Path_2128" data-name="Path 2128" class="cls-1" d="M88.354,161.086H80.317a.745.745,0,1,0,0,1.488h8.037a.745.745,0,1,0,0-1.488Z" transform="translate(-68.342 -138.407)"/>
      <path id="Path_2129" data-name="Path 2129" class="cls-2" d="M48.316,49.833a7.744,7.744,0,0,1-.876-.049V62.324a2.561,2.561,0,0,0,2.547,2.545H63.526a2.561,2.561,0,0,0,2.545-2.547V42.287a2.561,2.561,0,0,0-2.534-2.547H56.4a11.421,11.421,0,0,1,0,1.633h6.854c.644,0,1.119.27,1.12.914V62.324c0,.642-.2.909-.843.91H49.987c-.642,0-.86-.272-.861-.914V49.833C48.95,49.844,48.483,49.833,48.316,49.833Z" transform="translate(-40.761 -34.145)"/>
    </g>
  </g>
</svg>
