<svg xmlns="http://www.w3.org/2000/svg" viewBox="-5693.16 892.478 26.321 27.938">
  <defs>
    <style>
      .cls-1 {
        fill: #7f8b8d;
      }
    </style>
  </defs>
  <g id="tax" transform="translate(-5693.16 892.478)">
    <path id="Path_1380" data-name="Path 1380" class="cls-1" d="M27.318,11.778V.95a.95.95,0,0,0-.95-.95H9.543a.95.95,0,0,0-.95.95V26.188a.95.95,0,0,0,.95.95H23.32a8.087,8.087,0,1,0,4-15.36ZM10.493,1.9H25.418v9.986A8.081,8.081,0,0,0,20.8,25.237H10.493ZM26.826,26.037a6.188,6.188,0,1,1,6.188-6.188A6.195,6.195,0,0,1,26.826,26.037Z" transform="translate(-8.593)"/>
    <path id="Path_1381" data-name="Path 1381" class="cls-1" d="M175.795,178.837a.95.95,0,0,0-1.344,0l-4.206,4.206a.95.95,0,0,0,1.344,1.344l4.206-4.206A.95.95,0,0,0,175.795,178.837Z" transform="translate(-154.786 -161.763)"/>
    <path id="Path_1382" data-name="Path 1382" class="cls-1" d="M170.776,180.325a.95.95,0,1,0-.672-.278A.96.96,0,0,0,170.776,180.325Z" transform="translate(-154.659 -161.641)"/>
    <path id="Path_1383" data-name="Path 1383" class="cls-1" d="M215.769,223.407a.95.95,0,1,0,.672.278A.957.957,0,0,0,215.769,223.407Z" transform="translate(-195.42 -202.392)"/>
    <path id="Path_1384" data-name="Path 1384" class="cls-1" d="M63.2,55.559h6.73a.95.95,0,1,0,0-1.9H63.2a.95.95,0,1,0,0,1.9Z" transform="translate(-57.204 -48.611)"/>
    <path id="Path_1385" data-name="Path 1385" class="cls-1" d="M63.2,109.218h6.73a.95.95,0,1,0,0-1.9H63.2a.95.95,0,1,0,0,1.9Z" transform="translate(-57.204 -97.222)"/>
    <path id="Path_1386" data-name="Path 1386" class="cls-1" d="M64.884,160.975H63.2a.95.95,0,1,0,0,1.9h1.682a.95.95,0,1,0,0-1.9Z" transform="translate(-57.204 -145.833)"/>
  </g>
</svg>
