<svg xmlns="http://www.w3.org/2000/svg" viewBox="4317.889 -4563.036 35.038 35.038">
  <defs>
    <style>
      .cls-1, .cls-2 {
        fill: #c4702e;
      }

      .cls-1 {
        opacity: 0.08;
      }
    </style>
  </defs>
  <g id="Group_3113" data-name="Group 3113" transform="translate(4317.888 -4563.036)">
    <circle id="Ellipse_485" data-name="Ellipse 485" class="cls-1" cx="17.519" cy="17.519" r="17.519" transform="translate(0 0)"/>
    <g id="twitter-black-shape" transform="translate(9.069 10.173)">
      <g id="Group_41" data-name="Group 41" transform="translate(0 0)">
        <path id="Path_34" data-name="Path 34" class="cls-2" d="M16.808,43.72q-.128.037-.256.07c-.522.132-.57-.042-.192-.426a3.481,3.481,0,0,0,.448-.561c.291-.453.039-.65-.456-.439q-.265.113-.538.2a2.25,2.25,0,0,1-1.689-.375,3.737,3.737,0,0,0-4.574.537,3.567,3.567,0,0,0-1.083,2.618,3.908,3.908,0,0,0,.024.426c.026.234-.369.4-.9.329A10.24,10.24,0,0,1,4.3,45.056a10.537,10.537,0,0,1-2.725-2C1.2,42.666.694,42.7.553,43.219a3.707,3.707,0,0,0-.126.972,3.6,3.6,0,0,0,.447,1.764,3.788,3.788,0,0,0,.521.732c.335.368.284.581-.183.45A6.009,6.009,0,0,1,.4,46.826v.023A3.574,3.574,0,0,0,1.246,49.2a3.682,3.682,0,0,0,1.2.964c.482.239.707.372.437.407a3.825,3.825,0,0,1-.491.032q-.167,0-.35-.015c-.193-.016-.228.386.065.838A3.7,3.7,0,0,0,3,52.376a3.621,3.621,0,0,0,1.192.6c.518.148.622.416.16.693A7.23,7.23,0,0,1,.564,54.7q-.234,0-.447-.01c-.247-.012-.081.206.4.455a10.275,10.275,0,0,0,4.84,1.17,10.819,10.819,0,0,0,3.7-.624,9.41,9.41,0,0,0,2.955-1.673A11.192,11.192,0,0,0,14.121,51.6a10.756,10.756,0,0,0,1.323-2.847,10.519,10.519,0,0,0,.435-2.973c0-.089,0-.17,0-.241,0-.133.349-.493.741-.861q.266-.249.508-.524C17.483,43.754,17.325,43.569,16.808,43.72Z" transform="translate(-0.003 -41.648)"/>
      </g>
    </g>
  </g>
</svg>
