<svg width="35" height="12" viewBox="0 0 35 12" fill="none" xmlns="http://www.w3.org/2000/svg">
<path fill-rule="evenodd" clip-rule="evenodd" d="M11.957 5.97839C11.957 9.28018 9.2804 11.9568 5.97862 11.9568C2.67668 11.9568 0 9.28018 0 5.97839C0 2.67661 2.67668 0 5.97862 0C9.2804 0 11.957 2.67661 11.957 5.97839Z" fill="#ED342B"/>
<path fill-rule="evenodd" clip-rule="evenodd" d="M5.98104 8.53942C4.64379 5.50824 3.66328 2.67654 3.66328 2.67654H1.61328C1.61328 2.67654 2.86101 6.31104 5.17869 10.8562H6.78339C9.10107 6.31104 10.3487 2.67654 10.3487 2.67654H8.29871C8.29871 2.67654 7.31829 5.50824 5.98104 8.53942Z" fill="#FEFEFE"/>
<path fill-rule="evenodd" clip-rule="evenodd" d="M31.7271 5.66678C30.5682 5.66678 30.4792 6.91473 30.4792 6.91473L32.9748 6.91473C32.9748 6.91473 32.8858 5.66678 31.7271 5.66678ZM34.4902 8.16246H30.4792C30.4792 8.16246 30.5682 9.49964 32.3511 9.49964C33.2423 9.49964 34.1336 9.23196 34.1336 9.23196L34.312 10.6581C34.312 10.6581 33.4207 11.0148 32.1727 11.0148C30.3901 11.0148 28.7857 10.1234 28.7857 7.62771C28.7857 5.66678 30.0336 4.4189 31.8163 4.4189C34.4902 4.4189 34.6683 7.09288 34.4902 8.16246ZM20.8515 6.05639L21.1275 4.5847C21.1275 4.5847 18.9964 3.93804 17.2642 5.13643V11.0232H19.1038V6.24018C19.8396 5.68853 20.8515 6.05639 20.8515 6.05639ZM13.1837 5.66678C12.025 5.66678 11.936 6.91473 11.936 6.91473H14.4316C14.4316 6.91473 14.3426 5.66678 13.1837 5.66678ZM15.9467 8.16246H11.936C11.936 8.16246 12.025 9.49964 13.8077 9.49964C14.6988 9.49964 15.5902 9.23196 15.5902 9.23196L15.7686 10.6581C15.7686 10.6581 14.8772 11.0148 13.6293 11.0148C11.8467 11.0148 10.2422 10.1234 10.2422 7.62771C10.2422 5.66678 11.4901 4.4189 13.2728 4.4189C15.9467 4.4189 16.1249 7.09288 15.9467 8.16246ZM25.3408 8.77331C24.4067 6.53135 23.9399 4.41998 23.9399 4.41998L22.0721 4.4202C22.0721 4.4202 23.0061 8.02595 24.594 11.0137L26.0876 11.0137C27.6756 8.02595 28.6096 4.42073 28.6096 4.42073H26.7417C26.7417 4.42073 26.2749 6.53135 25.3408 8.77331Z" fill="#03435F"/>
</svg>
