<svg width="50" height="40" viewBox="0 0 50 40" fill="none" xmlns="http://www.w3.org/2000/svg">
<rect opacity="0.1" width="50" height="40" rx="4" fill="#C9874A"/>
<path d="M19.9336 24.712L21.8638 14.3455H24.8796L23.0098 24.712H19.9336Z" fill="#3C58BF"/>
<path d="M19.9336 24.712L22.4066 14.3455H24.8796L23.0098 24.712H19.9336Z" fill="#293688"/>
<path d="M33.9278 14.4607C33.3246 14.2304 32.3595 14 31.1532 14C28.1373 14 25.9659 15.4398 25.9659 17.5131C25.9659 19.0681 27.4738 19.8743 28.6802 20.3927C29.8865 20.911 30.2484 21.2565 30.2484 21.7173C30.2484 22.4084 29.2833 22.7539 28.4389 22.7539C27.2326 22.7539 26.5691 22.5812 25.5437 22.178L25.1214 22.0052L24.6992 24.3665C25.423 24.6545 26.75 24.9424 28.1373 24.9424C31.3341 24.9424 33.4453 23.5026 33.4453 21.3141C33.4453 20.1047 32.6611 19.1832 30.8516 18.4346C29.7659 17.9162 29.1024 17.6283 29.1024 17.1099C29.1024 16.6492 29.6453 16.1885 30.8516 16.1885C31.877 16.1885 32.6008 16.3613 33.1437 16.5916L33.4453 16.7068L33.9278 14.4607Z" fill="#3C58BF"/>
<path d="M33.9278 14.4607C33.3246 14.2304 32.3595 14 31.1532 14C28.1373 14 26.5087 15.4398 26.5087 17.5131C26.5087 19.0681 27.4738 19.8743 28.6802 20.3927C29.8865 20.911 30.2484 21.2565 30.2484 21.7173C30.2484 22.4084 29.2833 22.7539 28.4389 22.7539C27.2326 22.7539 26.5691 22.5812 25.5437 22.178L25.1214 22.0052L24.6992 24.3665C25.423 24.6545 26.75 24.9424 28.1373 24.9424C31.3341 24.9424 33.4453 23.5026 33.4453 21.3141C33.4453 20.1047 32.6611 19.1832 30.8516 18.4346C29.7659 17.9162 29.1024 17.6283 29.1024 17.1099C29.1024 16.6492 29.6453 16.1885 30.8516 16.1885C31.877 16.1885 32.6008 16.3613 33.1437 16.5916L33.4453 16.7068L33.9278 14.4607Z" fill="#293688"/>
<path fill-rule="evenodd" clip-rule="evenodd" d="M37.5472 15.0942C37.8488 14.4031 38.3917 14.3455 39.1155 14.3455H41.4679L44.0012 24.712H41.106L40.7441 22.9842H36.8838L36.2806 24.712H33.0234L37.5472 15.0942ZM38.9329 18.2041C38.9329 18.2041 37.9075 20.7382 37.7266 21.2565V21.3141H40.2599C40.1393 20.7382 39.5361 18.1465 39.5361 18.1465L39.3551 17.1675C39.1742 17.5706 38.9329 18.2041 38.9329 18.2041Z" fill="#3C58BF"/>
<path fill-rule="evenodd" clip-rule="evenodd" d="M38.2711 15.0942C38.5726 14.4031 39.1155 14.3455 39.8393 14.3455H41.4679L44.0012 24.712H41.106L40.7441 22.9842H36.8838L36.2806 24.712H33.0234L38.2711 15.0942ZM38.9329 18.2041C38.9329 18.2041 37.9678 20.6806 37.7266 21.2565V21.3141H40.2599C40.1393 20.7382 39.5361 18.1465 39.5361 18.1465L39.3551 17.1675C39.1742 17.5706 38.9329 18.2041 38.9329 18.2041Z" fill="#293688"/>
<path d="M14.3832 21.602L14.0816 20.1046C13.5387 18.3769 11.7895 16.4764 9.85938 15.5549L12.5737 24.7696H15.8308L20.7165 14.4031H17.4594L14.3832 21.602Z" fill="#3C58BF"/>
<path d="M14.3832 21.602L14.0816 20.1046C13.5387 18.3769 11.7895 16.4764 9.85938 15.5549L12.5737 24.7696H15.8308L20.7165 14.4031H18.0625L14.3832 21.602Z" fill="#293688"/>
<path d="M6 14.3455L6.54286 14.4606C10.4032 15.3245 13.0571 17.513 14.0825 20.1046L12.9968 15.2093C12.8159 14.5182 12.273 14.3455 11.6095 14.3455H6V14.3455Z" fill="#FFBC00"/>
<path d="M6 14.3455C9.86032 15.2093 13.0571 17.4554 14.0825 20.047L13.0571 15.958C12.8762 15.2669 12.273 14.8638 11.6095 14.8638L6 14.3455Z" fill="#F7981D"/>
<path d="M6 14.3455C9.86032 15.2093 13.0571 17.4554 14.0825 20.047L13.3587 17.801C13.1778 17.1099 12.9365 16.4188 12.0921 16.1308L6 14.3455Z" fill="#ED7C00"/>
<path d="M17.4012 21.2565L15.3504 19.2984L14.3854 21.4868L14.1441 20.0471C13.6012 18.3193 11.852 16.4188 9.92188 15.4973L12.6362 24.712H15.8933L17.4012 21.2565Z" fill="#051244"/>
<path d="M23.0098 24.712L20.4161 22.178L19.9336 24.712H23.0098Z" fill="#051244"/>
<path d="M29.9468 21.1414C30.1881 21.3717 30.3087 21.5445 30.2484 21.7749C30.2484 22.466 29.2833 22.8115 28.4389 22.8115C27.2326 22.8115 26.5691 22.6387 25.5437 22.2356L25.1214 22.0628L24.6992 24.4241C25.423 24.712 26.75 25 28.1373 25C30.0675 25 31.6357 24.4817 32.5405 23.5602L29.9468 21.1414Z" fill="#051244"/>
<path d="M33.4453 24.712H36.2802L36.8834 22.9842H40.7437L41.1056 24.712H44.0009L42.9755 20.5078L39.3564 17.1675L39.5374 18.0889C39.5374 18.0889 40.1406 20.6806 40.2612 21.2565H37.7279C37.9691 20.6806 38.9342 18.2041 38.9342 18.2041C38.9342 18.2041 39.1755 17.5706 39.3564 17.1675" fill="#051244"/>
</svg>
