<svg width="39" height="11" viewBox="0 0 39 11" fill="none" xmlns="http://www.w3.org/2000/svg">
<path d="M13.9336 10.712L15.8638 0.345459H18.8796L17.0098 10.712H13.9336Z" fill="#3C58BF"/>
<path d="M13.9336 10.712L16.4066 0.345459H18.8796L17.0098 10.712H13.9336Z" fill="#293688"/>
<path d="M27.9278 0.460733C27.3246 0.230367 26.3595 0 25.1532 0C22.1373 0 19.9659 1.43979 19.9659 3.51309C19.9659 5.06806 21.4738 5.87435 22.6802 6.39267C23.8865 6.911 24.2484 7.25655 24.2484 7.71728C24.2484 8.40838 23.2833 8.75393 22.4389 8.75393C21.2326 8.75393 20.5691 8.58115 19.5437 8.17801L19.1214 8.00524L18.6992 10.3665C19.423 10.6545 20.75 10.9424 22.1373 10.9424C25.3341 10.9424 27.4453 9.50262 27.4453 7.31414C27.4453 6.10471 26.6611 5.18325 24.8516 4.43456C23.7659 3.91623 23.1024 3.62827 23.1024 3.10995C23.1024 2.64921 23.6453 2.18848 24.8516 2.18848C25.877 2.18848 26.6008 2.36126 27.1437 2.59162L27.4453 2.70681L27.9278 0.460733Z" fill="#3C58BF"/>
<path d="M27.9278 0.460733C27.3246 0.230367 26.3595 0 25.1532 0C22.1373 0 20.5087 1.43979 20.5087 3.51309C20.5087 5.06806 21.4738 5.87435 22.6802 6.39267C23.8865 6.911 24.2484 7.25655 24.2484 7.71728C24.2484 8.40838 23.2833 8.75393 22.4389 8.75393C21.2326 8.75393 20.5691 8.58115 19.5437 8.17801L19.1214 8.00524L18.6992 10.3665C19.423 10.6545 20.75 10.9424 22.1373 10.9424C25.3341 10.9424 27.4453 9.50262 27.4453 7.31414C27.4453 6.10471 26.6611 5.18325 24.8516 4.43456C23.7659 3.91623 23.1024 3.62827 23.1024 3.10995C23.1024 2.64921 23.6453 2.18848 24.8516 2.18848C25.877 2.18848 26.6008 2.36126 27.1437 2.59162L27.4453 2.70681L27.9278 0.460733Z" fill="#293688"/>
<path fill-rule="evenodd" clip-rule="evenodd" d="M31.5472 1.09415C31.8488 0.403051 32.3917 0.345459 33.1155 0.345459H35.4679L38.0012 10.712H35.106L34.7441 8.9842H30.8838L30.2806 10.712H27.0234L31.5472 1.09415ZM32.9329 4.20413C32.9329 4.20413 31.9075 6.73816 31.7266 7.25649V7.31408H34.2599C34.1393 6.73816 33.5361 4.14654 33.5361 4.14654L33.3551 3.16748C33.1742 3.57062 32.9329 4.20413 32.9329 4.20413Z" fill="#3C58BF"/>
<path fill-rule="evenodd" clip-rule="evenodd" d="M32.2711 1.09415C32.5726 0.403051 33.1155 0.345459 33.8393 0.345459H35.4679L38.0012 10.712H35.106L34.7441 8.9842H30.8838L30.2806 10.712H27.0234L32.2711 1.09415ZM32.9329 4.20413C32.9329 4.20413 31.9678 6.68057 31.7266 7.25649V7.31408H34.2599C34.1393 6.73816 33.5361 4.14654 33.5361 4.14654L33.3551 3.16748C33.1742 3.57062 32.9329 4.20413 32.9329 4.20413Z" fill="#293688"/>
<path d="M8.38318 7.60203L8.0816 6.10465C7.53874 4.3769 5.78953 2.47637 3.85938 1.55491L6.57366 10.7696H9.8308L14.7165 0.403076H11.4594L8.38318 7.60203Z" fill="#3C58BF"/>
<path d="M8.38318 7.60203L8.0816 6.10465C7.53874 4.3769 5.78953 2.47637 3.85938 1.55491L6.57366 10.7696H9.8308L14.7165 0.403076H12.0625L8.38318 7.60203Z" fill="#293688"/>
<path d="M0 0.345459L0.542857 0.460642C4.40317 1.32452 7.05714 3.513 8.08254 6.10462L6.99683 1.20933C6.81587 0.518234 6.27302 0.345459 5.60952 0.345459H0V0.345459Z" fill="#FFBC00"/>
<path d="M0 0.345459C3.86032 1.20933 7.05714 3.45541 8.08254 6.04703L7.05714 1.95802C6.87619 1.26693 6.27302 0.863784 5.60952 0.863784L0 0.345459Z" fill="#F7981D"/>
<path d="M0 0.345459C3.86032 1.20933 7.05714 3.45541 8.08254 6.04703L7.35873 3.80096C7.17778 3.10986 6.93651 2.41876 6.09206 2.1308L0 0.345459Z" fill="#ED7C00"/>
<path d="M11.4012 7.25648L9.35045 5.29836L8.38537 7.48684L8.1441 6.04705C7.60124 4.3193 5.85203 2.41878 3.92188 1.49731L6.63616 10.712H9.8933L11.4012 7.25648Z" fill="#051244"/>
<path d="M17.0098 10.712L14.4161 8.17798L13.9336 10.712H17.0098Z" fill="#051244"/>
<path d="M23.9468 7.14136C24.1881 7.37172 24.3087 7.5445 24.2484 7.77487C24.2484 8.46596 23.2833 8.81151 22.4389 8.81151C21.2326 8.81151 20.5691 8.63874 19.5437 8.2356L19.1214 8.06282L18.6992 10.4241C19.423 10.712 20.75 11 22.1373 11C24.0675 11 25.6357 10.4817 26.5405 9.56021L23.9468 7.14136Z" fill="#051244"/>
<path d="M27.4453 10.712H30.2802L30.8834 8.98423H34.7437L35.1056 10.712H38.0009L36.9755 6.50779L33.3564 3.16748L33.5374 4.08895C33.5374 4.08895 34.1406 6.68057 34.2612 7.25649H31.7279C31.9691 6.68057 32.9342 4.20413 32.9342 4.20413C32.9342 4.20413 33.1755 3.57062 33.3564 3.16748" fill="#051244"/>
</svg>
